<svg width="1440" height="816" viewBox="0 0 1440 816" fill="none" xmlns="http://www.w3.org/2000/svg">
<g clip-path="url(#clip0_211_103)">
<path d="M268.546 28.4387C220.258 7.40174 166.91 45.2221 170.776 97.7513L173.666 137.012L180.57 176.593C189.538 228.009 249.592 251.881 291.411 220.653L322.846 197.179L348.97 177.672C392.02 145.525 384.302 78.869 335.045 57.4099L268.546 28.4387Z" fill="#D9D9D9"/>
<path d="M197.347 231.375L174.484 283.307C157.067 322.868 128.854 356.721 93.08 380.983L-64.3838 487.778C-84.0701 501.13 -101.566 517.454 -116.248 536.17L-229.15 680.094" stroke="black" stroke-width="9"/>
<path d="M327.868 90.9233C280.412 77.7202 234.525 116.361 239.457 165.372L243.487 205.406L247.391 224.151C258.36 276.811 322.156 297.936 362.386 262.23L386.562 240.773L404.95 224.454C446.422 187.645 430.669 119.524 377.246 104.661L327.868 90.9233Z" fill="#D9D9D9"/>
<path d="M68.4011 89.6783C28.1344 113.902 22.6988 170.134 57.5802 201.622L86.1201 227.385L88.846 229.356C133.344 261.527 195.868 232.276 199.689 177.5L201.379 153.273L202.473 137.594C206.415 81.0836 145.1 43.5383 96.5584 72.7396L68.4011 89.6783Z" fill="#D9D9D9"/>
<path d="M336.706 108.776C287.806 93.4557 239.559 134.143 246.406 184.927L248.842 202.997L251.18 212.727C263.526 264.113 326.183 283.809 365.709 248.728L376.563 239.094L382.126 234.157C422.841 198.021 408.536 131.28 356.588 115.005L336.706 108.776Z" fill="#C6C6C6"/>
<path d="M336.706 108.776C287.806 93.4557 239.559 134.143 246.406 184.927L248.842 202.997L251.18 212.727C263.526 264.113 326.183 283.809 365.709 248.728L376.563 239.094L382.126 234.157C422.841 198.021 408.536 131.28 356.588 115.005L336.706 108.776Z" fill="#C6C6C6"/>
<path d="M336.706 108.776C287.806 93.4557 239.559 134.143 246.406 184.927L248.842 202.997L251.18 212.727C263.526 264.113 326.183 283.809 365.709 248.728L376.563 239.094L382.126 234.157C422.841 198.021 408.536 131.28 356.588 115.005L336.706 108.776Z" fill="#C6C6C6"/>
<path d="M336.706 108.776C287.806 93.4557 239.559 134.143 246.406 184.927L248.842 202.997L251.18 212.727C263.526 264.113 326.183 283.809 365.709 248.728L376.563 239.094L382.126 234.157C422.841 198.021 408.536 131.28 356.588 115.005L336.706 108.776Z" fill="#D1D1D1"/>
<path d="M351.547 176.509C302.647 161.189 254.4 201.876 261.247 252.66L263.683 270.73L266.021 280.46C278.367 331.846 341.024 351.541 380.55 316.461L391.404 306.827L396.967 301.89C437.682 265.754 423.377 199.013 371.429 182.738L351.547 176.509Z" fill="#C6C6C6"/>
<path d="M351.547 176.509C302.647 161.189 254.4 201.876 261.247 252.66L263.683 270.73L266.021 280.46C278.367 331.846 341.024 351.541 380.55 316.461L391.404 306.827L396.967 301.89C437.682 265.754 423.377 199.013 371.429 182.738L351.547 176.509Z" fill="#C6C6C6"/>
<path d="M351.547 176.509C302.647 161.189 254.4 201.876 261.247 252.66L263.683 270.73L266.021 280.46C278.367 331.846 341.024 351.541 380.55 316.461L391.404 306.827L396.967 301.89C437.682 265.754 423.377 199.013 371.429 182.738L351.547 176.509Z" fill="#C6C6C6"/>
<path d="M351.547 176.509C302.647 161.189 254.4 201.876 261.247 252.66L263.683 270.73L266.021 280.46C278.367 331.846 341.024 351.541 380.55 316.461L391.404 306.827L396.967 301.89C437.682 265.754 423.377 199.013 371.429 182.738L351.547 176.509Z" fill="#D1D1D1"/>
<path d="M206.751 55.6645C157.851 40.3444 109.604 81.0317 116.451 131.816L118.887 149.886L121.225 159.616C133.571 211.002 196.228 230.697 235.754 195.616L246.608 185.983L252.171 181.046C292.886 144.91 278.581 78.1686 226.633 61.8934L206.751 55.6645Z" fill="#C6C6C6"/>
<path d="M206.751 55.6645C157.851 40.3444 109.604 81.0317 116.451 131.816L118.887 149.886L121.225 159.616C133.571 211.002 196.228 230.697 235.754 195.616L246.608 185.983L252.171 181.046C292.886 144.91 278.581 78.1686 226.633 61.8934L206.751 55.6645Z" fill="#C6C6C6"/>
<path d="M206.751 55.6645C157.851 40.3444 109.604 81.0317 116.451 131.816L118.887 149.886L121.225 159.616C133.571 211.002 196.228 230.697 235.754 195.616L246.608 185.983L252.171 181.046C292.886 144.91 278.581 78.1686 226.633 61.8934L206.751 55.6645Z" fill="#C6C6C6"/>
<path d="M206.751 55.6645C157.851 40.3444 109.604 81.0317 116.451 131.816L118.887 149.886L121.225 159.616C133.571 211.002 196.228 230.697 235.754 195.616L246.608 185.983L252.171 181.046C292.886 144.91 278.581 78.1686 226.633 61.8934L206.751 55.6645Z" fill="#D1D1D1"/>
<path d="M154.748 155.908C105.848 140.588 57.6013 181.275 64.4481 232.059L66.8843 250.129L69.222 259.859C81.5683 311.245 144.225 330.94 183.751 295.859L194.605 286.226L200.168 281.289C240.883 245.153 226.578 178.412 174.63 162.137L154.748 155.908Z" fill="#C6C6C6"/>
<path d="M154.748 155.908C105.848 140.588 57.6013 181.275 64.4481 232.059L66.8843 250.129L69.222 259.859C81.5683 311.245 144.225 330.94 183.751 295.859L194.605 286.226L200.168 281.289C240.883 245.153 226.578 178.412 174.63 162.137L154.748 155.908Z" fill="#C6C6C6"/>
<path d="M154.748 155.908C105.848 140.588 57.6013 181.275 64.4481 232.059L66.8843 250.129L69.222 259.859C81.5683 311.245 144.225 330.94 183.751 295.859L194.605 286.226L200.168 281.289C240.883 245.153 226.578 178.412 174.63 162.137L154.748 155.908Z" fill="#C6C6C6"/>
<path d="M154.748 155.908C105.848 140.588 57.6013 181.275 64.4481 232.059L66.8843 250.129L69.222 259.859C81.5683 311.245 144.225 330.94 183.751 295.859L194.605 286.226L200.168 281.289C240.883 245.153 226.578 178.412 174.63 162.137L154.748 155.908Z" fill="#D1D1D1"/>
<path d="M256.814 247.492C207.914 232.172 159.667 272.859 166.514 323.644L168.95 341.713L171.287 351.443C183.634 402.83 246.29 422.525 285.816 387.444L296.671 377.81L302.234 372.873C342.948 336.737 328.644 269.996 276.695 253.721L256.814 247.492Z" fill="#C6C6C6"/>
<path d="M256.814 247.492C207.914 232.172 159.667 272.859 166.514 323.644L168.95 341.713L171.287 351.443C183.634 402.83 246.29 422.525 285.816 387.444L296.671 377.81L302.234 372.873C342.948 336.737 328.644 269.996 276.695 253.721L256.814 247.492Z" fill="#C6C6C6"/>
<path d="M256.814 247.492C207.914 232.172 159.667 272.859 166.514 323.644L168.95 341.713L171.287 351.443C183.634 402.83 246.29 422.525 285.816 387.444L296.671 377.81L302.234 372.873C342.948 336.737 328.644 269.996 276.695 253.721L256.814 247.492Z" fill="#C6C6C6"/>
<path d="M256.814 247.492C207.914 232.172 159.667 272.859 166.514 323.644L168.95 341.713L171.287 351.443C183.634 402.83 246.29 422.525 285.816 387.444L296.671 377.81L302.234 372.873C342.948 336.737 328.644 269.996 276.695 253.721L256.814 247.492Z" fill="#D1D1D1"/>
<path d="M292.299 122.669C243.399 107.349 195.152 148.036 201.999 198.82L204.435 216.89L206.773 226.62C219.119 278.006 281.776 297.702 321.302 262.621L332.156 252.987L337.719 248.05C378.434 211.914 364.129 145.173 312.181 128.898L292.299 122.669Z" fill="#C6C6C6"/>
<path d="M292.299 122.669C243.399 107.349 195.152 148.036 201.999 198.82L204.435 216.89L206.773 226.62C219.119 278.006 281.776 297.702 321.302 262.621L332.156 252.987L337.719 248.05C378.434 211.914 364.129 145.173 312.181 128.898L292.299 122.669Z" fill="#C6C6C6"/>
<path d="M292.299 122.669C243.399 107.349 195.152 148.036 201.999 198.82L204.435 216.89L206.773 226.62C219.119 278.006 281.776 297.702 321.302 262.621L332.156 252.987L337.719 248.05C378.434 211.914 364.129 145.173 312.181 128.898L292.299 122.669Z" fill="#C6C6C6"/>
<path d="M292.299 122.669C243.399 107.349 195.152 148.036 201.999 198.82L204.435 216.89L206.773 226.62C219.119 278.006 281.776 297.702 321.302 262.621L332.156 252.987L337.719 248.05C378.434 211.914 364.129 145.173 312.181 128.898L292.299 122.669Z" fill="#C6C6C6"/>
<path d="M192.187 151.986C143.287 136.666 95.0397 177.354 101.887 228.138L104.323 246.208L106.661 255.937C119.007 307.324 181.663 327.019 221.19 291.938L232.044 282.304L237.607 277.367C278.321 241.231 264.017 174.49 212.068 158.215L192.187 151.986Z" fill="#C6C6C6"/>
<path d="M192.187 151.986C143.287 136.666 95.0397 177.354 101.887 228.138L104.323 246.208L106.661 255.937C119.007 307.324 181.663 327.019 221.19 291.938L232.044 282.304L237.607 277.367C278.321 241.231 264.017 174.49 212.068 158.215L192.187 151.986Z" fill="#C6C6C6"/>
<path d="M192.187 151.986C143.287 136.666 95.0397 177.354 101.887 228.138L104.323 246.208L106.661 255.937C119.007 307.324 181.663 327.019 221.19 291.938L232.044 282.304L237.607 277.367C278.321 241.231 264.017 174.49 212.068 158.215L192.187 151.986Z" fill="#C6C6C6"/>
<path d="M192.187 151.986C143.287 136.666 95.0397 177.354 101.887 228.138L104.323 246.208L106.661 255.937C119.007 307.324 181.663 327.019 221.19 291.938L232.044 282.304L237.607 277.367C278.321 241.231 264.017 174.49 212.068 158.215L192.187 151.986Z" fill="#C6C6C6"/>
<path d="M309.089 226.249C279.02 183.236 214.063 187.384 189.71 233.873L182.217 248.178L176.275 262.928C156.739 311.419 195.321 363.436 247.395 358.812L263.156 357.412L272.256 356.604C325.867 351.843 354.273 290.884 323.436 246.772L309.089 226.249Z" fill="#C6C6C6"/>
<path d="M309.089 226.249C279.02 183.236 214.063 187.384 189.71 233.873L182.217 248.178L176.275 262.928C156.739 311.419 195.321 363.436 247.395 358.812L263.156 357.412L272.256 356.604C325.867 351.843 354.273 290.884 323.436 246.772L309.089 226.249Z" fill="#C6C6C6"/>
<path d="M309.089 226.249C279.02 183.236 214.063 187.384 189.71 233.873L182.217 248.178L176.275 262.928C156.739 311.419 195.321 363.436 247.395 358.812L263.156 357.412L272.256 356.604C325.867 351.843 354.273 290.884 323.436 246.772L309.089 226.249Z" fill="#C6C6C6"/>
<path d="M309.089 226.249C279.02 183.236 214.063 187.384 189.71 233.873L182.217 248.178L176.275 262.928C156.739 311.419 195.321 363.436 247.395 358.812L263.156 357.412L272.256 356.604C325.867 351.843 354.273 290.884 323.436 246.772L309.089 226.249Z" fill="#C6C6C6"/>
<ellipse cx="232.552" cy="198.568" rx="22.1699" ry="26.5904" transform="rotate(-6.88664 232.552 198.568)" fill="#B2B2B2"/>
<ellipse cx="251.204" cy="224.216" rx="43.0794" ry="21.7169" transform="rotate(-6.88664 251.204 224.216)" fill="#B2B2B2"/>
<ellipse cx="222.92" cy="224.508" rx="43.0794" ry="21.7169" transform="rotate(-6.88664 222.92 224.508)" fill="#B2B2B2"/>
<ellipse cx="232.701" cy="262.928" rx="34.8801" ry="21.7169" transform="rotate(-6.88664 232.701 262.928)" fill="#B2B2B2"/>
<path d="M320.973 469.73C321.318 505.077 362.511 524.215 389.746 501.68L518.244 395.36C541.202 376.364 537.627 340.166 511.396 326.028L399.983 265.981C377.148 253.675 348.727 264.804 340.322 289.345L322.134 342.451C320.589 346.961 319.823 351.701 319.87 356.469L320.973 469.73Z" fill="#C2C2C2"/>
<path d="M320.973 469.73C321.318 505.077 362.511 524.215 389.746 501.68L518.244 395.36C541.202 376.364 537.627 340.166 511.396 326.028L399.983 265.981C377.148 253.675 348.727 264.804 340.322 289.345L322.134 342.451C320.589 346.961 319.823 351.701 319.87 356.469L320.973 469.73Z" fill="#C2C2C2"/>
<path d="M376.909 516.572C356.158 544.244 375.878 583.734 410.467 583.77L582.773 583.95C612.891 583.981 633.251 553.238 621.471 525.521L567.785 399.209C557.583 375.207 528.201 366.208 506.308 380.38L459.602 410.614C455.445 413.306 451.796 416.711 448.824 420.674L376.909 516.572Z" fill="#C2C2C2"/>
<path d="M376.909 516.572C356.158 544.244 375.878 583.734 410.467 583.77L582.773 583.95C612.891 583.981 633.251 553.238 621.471 525.521L567.785 399.209C557.583 375.207 528.201 366.208 506.308 380.38L459.602 410.614C455.445 413.306 451.796 416.711 448.824 420.674L376.909 516.572Z" fill="#C2C2C2"/>
<path d="M385.179 505.387C351.247 498.681 324.207 533.569 339.167 564.755L413.691 720.112C426.717 747.267 463.247 752.29 483.12 729.659L573.679 626.529C590.887 606.931 586.261 576.553 564 562.966L516.509 533.981C512.282 531.401 507.631 529.589 502.772 528.628L385.179 505.387Z" fill="#C2C2C2"/>
<path d="M385.179 505.387C351.247 498.681 324.207 533.569 339.167 564.755L413.691 720.112C426.717 747.267 463.247 752.29 483.12 729.659L573.679 626.529C590.887 606.931 586.261 576.553 564 562.966L516.509 533.981C512.282 531.401 507.631 529.589 502.772 528.628L385.179 505.387Z" fill="#C2C2C2"/>
<path d="M310.451 487.906C290.929 510.671 300.869 545.972 329.401 555.206L399.424 577.868C406.001 579.997 413.002 580.469 419.805 579.243L521.25 560.962C547.829 556.172 563.044 527.903 552.404 503.08L494.006 366.846C481.753 338.262 443.765 332.445 423.52 356.053L310.451 487.906Z" fill="#B3B3B3"/>
<path d="M300.351 511.62C296.21 537.321 316.205 560.56 342.236 560.3L453.83 559.186C484.609 558.879 504.613 526.661 491.238 498.938L421.517 354.423C407.804 325.999 368.815 322.287 349.985 347.613L326.487 379.215C322.462 384.629 319.8 390.933 318.727 397.593L300.351 511.62Z" fill="#CECECE"/>
<path d="M348.932 511.393C322.919 528.595 324.065 567.148 351.055 582.774L446.964 638.3C472.232 652.929 504.349 637.949 509.379 609.188L527.401 506.153C532.298 478.154 508.551 453.478 480.384 457.298L427.439 464.479C421.178 465.328 415.188 467.579 409.918 471.065L348.932 511.393Z" fill="#C3C3C3"/>
<path d="M329.985 483.754C309.716 502.791 313.208 535.916 337.002 550.307L424.18 603.036C453.886 621.003 491.325 597.22 487.686 562.695L474.773 440.217C471.134 405.692 429.558 390.238 404.252 414.005L329.985 483.754Z" fill="#D9D9D9"/>
<path d="M333.212 531.037L162.298 549.055C141.192 551.28 120.496 556.416 100.798 564.315L-45.1054 622.83" stroke="black" stroke-width="9"/>
<path d="M63.6611 610.702L-146.476 632.856C-177.802 636.158 -209.47 633.582 -239.85 625.259L-433.295 572.262" stroke="black" stroke-width="7"/>
<path d="M309.924 522.861C309.793 525.877 311.609 528.636 314.43 529.709L342.641 540.438C348.833 542.793 354.528 536.026 351.151 530.327L324.437 485.242C320.889 479.253 311.725 481.551 311.422 488.505L309.924 522.861Z" fill="#D9D9D9"/>
<path d="M314.436 529.689L315.063 530.309C319.051 534.255 322.093 539.053 323.961 544.343V544.343C328.894 558.318 341.666 568.02 356.452 569.024L361.21 569.347" stroke="black" stroke-width="5"/>
<path d="M312.461 529.898L310.35 519.067C307.911 506.551 309.826 493.578 315.78 482.302V482.302L324.399 467.986" stroke="black" stroke-width="5"/>
<path d="M883.66 518.123C909.266 493.753 895.149 450.581 860.092 446.046L694.69 424.651C665.137 420.829 641.114 448.141 648.677 476.964L680.799 599.384C687.382 624.474 714.911 637.658 738.586 627.058L789.82 604.119C794.171 602.171 798.159 599.496 801.612 596.21L883.66 518.123Z" fill="#B2B2B2"/>
<path d="M842.932 513.639C870.572 519.533 896.027 496.996 893.526 468.846L886.163 385.966C885.515 378.673 882.971 371.676 878.785 365.669L822.504 284.913C806.819 262.406 774.118 260.734 756.219 281.524L647.054 408.313C626.236 432.493 638.919 470.14 670.124 476.794L842.932 513.639Z" fill="#C3C3C3"/>
<path d="M856.616 528.305C885.631 510.711 882.883 467.753 851.863 453.998L702.894 387.942C677.341 376.612 648.057 392.937 644.259 420.629L626.525 549.914C622.619 578.393 647.833 602.292 676.063 596.866L767.466 579.299C772.363 578.357 777.053 576.552 781.317 573.966L856.616 528.305Z" fill="#C3C3C3"/>
<path d="M831.809 528.311C864.883 525.546 881.834 487.318 861.678 460.95L766.435 336.353C747.057 311.004 707.606 315.667 694.672 344.835L633.63 482.497C620.697 511.665 643.728 544.034 675.524 541.376L831.809 528.311Z" fill="#D9D9D9"/>
<path d="M875.193 492.042L1032.3 561.707C1051.7 570.309 1072.2 576.186 1093.21 579.168L1248.85 601.258" stroke="black" stroke-width="9"/>
<path d="M1213.16 585.429L1367.34 653.797C1388.68 663.26 1411.23 669.724 1434.34 673.005L1586.82 694.645" stroke="black" stroke-width="7"/>
<path d="M1155.88 395.652L1186.43 439.379C1207.83 470.018 1222.18 505.019 1228.45 541.866L1237.16 593.096" stroke="black" stroke-width="7"/>
<path d="M887.619 509.548C893.321 508.814 895.756 501.901 891.774 497.756L866.915 471.877C863.304 468.118 856.997 469.483 855.265 474.4L844.533 504.859C842.801 509.776 846.858 514.793 852.029 514.128L887.619 509.548Z" fill="#D9D9D9"/>
<path d="M890.793 502.579V502.579C889.16 496.639 885.977 491.241 881.57 486.936L867.442 473.139C866.869 472.579 866.2 472.126 865.468 471.801V471.801C862.07 470.294 860.536 466.318 862.043 462.92L870.046 444.871" stroke="black" stroke-width="5"/>
<path d="M889.315 502.647L871.404 494.705C865.643 492.151 859.474 490.641 853.184 490.246V490.246C846.895 489.852 840.726 488.342 834.965 485.788L820.684 479.455" stroke="black" stroke-width="5"/>
<path d="M892.608 503.384L885.081 507.594C880.503 510.154 875.535 511.942 870.376 512.887L866.244 513.643C862.673 514.297 859.007 514.225 855.464 513.433V513.433C848.365 511.846 840.927 513.183 834.825 517.142L829.119 520.843" stroke="black" stroke-width="5"/>
<path d="M1154.39 380.553C1164.42 389.858 1157.78 406.631 1144.1 406.549L1091.12 406.231C1080.57 406.168 1073.38 395.52 1077.26 385.71L1091.41 349.994C1095.29 340.184 1107.82 337.344 1115.55 344.52L1154.39 380.553Z" fill="#D9D9D9"/>
<path d="M1162.65 383.621C1167.72 396.327 1154.52 408.633 1142.2 402.693L1094.48 379.692C1084.97 375.111 1083.04 362.408 1090.76 355.211L1118.85 329.008C1126.56 321.811 1139.1 324.617 1143.01 334.416L1162.65 383.621Z" fill="#E9E9E9"/>
</g>
<defs>
<clipPath id="clip0_211_103">
<rect width="1440" height="816" fill="white"/>
</clipPath>
</defs>
</svg>
