<svg width="1440" height="568" viewBox="0 0 1440 568" fill="none" xmlns="http://www.w3.org/2000/svg">
<g clip-path="url(#clip0_211_46)">
<path d="M88.415 154.725C61.5546 177.705 73.3653 221.564 108.133 227.948L250.676 254.123C279.985 259.505 305.42 233.503 299.394 204.32L277.121 96.4565C271.875 71.0525 245.083 56.4304 220.88 65.7619L175.758 83.1586C171.309 84.8736 167.185 87.3335 163.563 90.4328L88.415 154.725Z" fill="#B2B2B2"/>
<path d="M117.14 186.022C93.7711 170.129 61.6915 181.387 53.379 208.398L31.9696 277.965C29.816 284.964 29.5292 292.403 31.1378 299.546L50.2845 384.57C56.3114 411.334 85.9601 425.229 110.384 412.736L241.414 345.716C269.82 331.186 272.291 291.537 245.907 273.594L117.14 186.022Z" fill="#C3C3C3"/>
<path d="M93.3258 155.803C64.9808 166.352 56.7411 202.499 77.7141 224.29L184.227 334.958C204.631 356.159 239.948 350.348 252.485 323.727L318.831 182.848C331.165 156.656 313.925 126.133 285.127 123.173L213.283 115.79C206.867 115.131 200.385 115.958 194.34 118.208L93.3258 155.803Z" fill="#C3C3C3"/>
<path d="M133.693 176.661C102.023 166.733 71.8934 195.731 80.602 227.758L116.251 358.858C124.623 389.647 162.915 400.225 185.904 378.099L279.896 287.636C302.885 265.51 293.78 226.841 263.334 217.298L133.693 176.661Z" fill="#D9D9D9"/>
<path d="M78.4912 191.099L-30.9495 77.3885C-45.6664 62.0974 -62.4289 48.9169 -80.7599 38.2219L-205.284 -34.4301" stroke="black" stroke-width="9"/>
<path d="M71.4684 169.109C69.0082 170.857 67.945 173.984 68.8306 176.869L76.5704 202.084C78.5144 208.417 87.3522 208.757 89.7767 202.592L106.536 159.973C109.083 153.495 101.642 147.673 95.9675 151.704L71.4684 169.109Z" fill="#D9D9D9"/>
<path d="M68.7466 176.529V176.529C68.0668 182.225 68.9136 187.998 71.2002 193.259L78.5303 210.122C78.8278 210.806 79.245 211.432 79.7624 211.969V211.969C82.1625 214.463 82.0866 218.43 79.5929 220.83L66.3476 233.578" stroke="black" stroke-width="5"/>
<path d="M70.0446 176.99L82.6957 190.134C86.7647 194.362 91.553 197.833 96.8371 200.384V200.384C102.121 202.935 106.909 206.406 110.978 210.634L121.065 221.114" stroke="black" stroke-width="5"/>
<path d="M67.4641 175.197L75.4347 174.213C80.2815 173.615 85.1938 173.82 89.974 174.82L93.8025 175.62C97.1113 176.312 100.247 177.662 103.024 179.591V179.591C108.586 183.455 115.469 184.917 122.122 183.649L128.343 182.463" stroke="black" stroke-width="5"/>
<path d="M69.7005 176.451L75.9778 171.441C79.795 168.395 84.088 165.999 88.6845 164.349L92.3657 163.028C95.5473 161.886 98.9262 161.395 102.301 161.586V161.586C109.063 161.967 115.694 159.611 120.7 155.049L125.38 150.783" stroke="black" stroke-width="5"/>
</g>
<defs>
<clipPath id="clip0_211_46">
<rect width="1440" height="568" fill="white"/>
</clipPath>
</defs>
</svg>
