<svg width="1440" height="775" viewBox="0 0 1440 775" fill="none" xmlns="http://www.w3.org/2000/svg">
<g clip-path="url(#clip0_211_46)">
<path d="M776.964 355.515C787.867 321.889 754.888 290.657 721.905 303.372L566.287 363.361C538.483 374.079 530.373 409.538 550.754 431.277L637.319 523.607C655.061 542.531 685.545 541.007 701.311 520.408L735.428 475.832C738.326 472.046 740.558 467.794 742.028 463.259L776.964 355.515Z" fill="#B2B2B2"/>
<path d="M735.292 349.368C763.52 350.715 784.997 324.36 777.978 296.984L757.312 216.386C755.494 209.293 751.853 202.799 746.75 197.548L678.154 126.954C659.036 107.279 626.496 110.915 612.193 134.325L524.962 277.095C508.327 304.322 526.929 339.424 558.8 340.945L735.292 349.368Z" fill="#C3C3C3"/>
<path d="M772.774 359.757C791.435 335.957 779.582 300.828 750.316 293.2L581.74 249.259C553.266 241.837 526.185 265.238 529.398 294.487L548.631 469.568C551.792 498.345 582.436 515.37 608.54 502.853L683.086 467.105C688.902 464.316 693.997 460.226 697.977 455.15L772.774 359.757Z" fill="#C3C3C3"/>
<path d="M726.686 365.645C758.878 357.569 769.426 317.104 745.272 294.341L631.138 186.782C607.918 164.899 569.739 175.878 561.691 206.754L523.708 352.473C515.66 383.348 543.622 411.568 574.57 403.804L726.686 365.645Z" fill="#D9D9D9"/>
<path d="M763.638 322.839L929.942 366.188C950.479 371.541 971.657 374.025 992.875 373.571L1150.04 370.209" stroke="black" stroke-width="9"/>
<path d="M1043.97 343.242L1248.44 396.539C1278.92 404.484 1307.65 418.052 1333.15 436.544L1495.53 554.292" stroke="black" stroke-width="7"/>
<path d="M782.552 338.694C783.737 335.919 783.01 332.696 780.748 330.699L758.125 310.719C753.159 306.334 745.445 310.66 746.598 317.184L755.716 368.79C756.927 375.644 766.314 376.722 769.047 370.321L782.552 338.694Z" fill="#D9D9D9"/>
<path d="M780.736 330.716V330.716C778.163 325.118 774.149 320.305 769.104 316.77L752.932 305.438C752.276 304.978 751.543 304.639 750.767 304.437V304.437C747.17 303.5 745.014 299.824 745.952 296.227L750.932 277.122" stroke="black" stroke-width="5"/>
<path d="M779.289 331.022L760.329 326.08C754.231 324.491 747.899 323.998 741.628 324.626V324.626C735.358 325.253 729.026 324.76 722.928 323.171L707.811 319.23" stroke="black" stroke-width="5"/>
<path d="M782.657 331.217L775.909 336.588C771.805 339.855 767.191 342.423 762.253 344.189L758.297 345.603C754.879 346.825 751.25 347.348 747.625 347.139V347.139C740.363 346.72 733.239 349.242 727.857 354.135L722.825 358.71" stroke="black" stroke-width="5"/>
<path d="M779.905 331.323L776.965 339.432C775.178 344.363 772.59 348.966 769.306 353.055L766.676 356.33C764.403 359.161 761.583 361.505 758.386 363.224V363.224C751.979 366.667 747.227 372.545 745.202 379.531L743.309 386.063" stroke="black" stroke-width="5"/>
</g>
<defs>
<clipPath id="clip0_211_46">
<rect width="1440" height="775" fill="white"/>
</clipPath>
</defs>
</svg>
