<svg width="1440" height="816" viewBox="0 0 1440 816" fill="none" xmlns="http://www.w3.org/2000/svg">
<g clip-path="url(#clip0_211_46)">
<path d="M838.174 562.253C847.809 528.243 813.683 498.268 781.199 512.21L654.93 566.404C627.547 578.157 620.772 613.894 641.953 634.854L716.226 708.349C734.664 726.595 765.07 723.929 780.053 702.754L806.44 665.461C809.194 661.569 811.265 657.237 812.565 652.65L838.174 562.253Z" fill="#C2C2C2"/>
<path d="M838.174 562.253C847.809 528.243 813.683 498.268 781.199 512.21L654.93 566.404C627.547 578.157 620.772 613.894 641.953 634.854L716.226 708.349C734.664 726.595 765.07 723.929 780.053 702.754L806.44 665.461C809.194 661.569 811.265 657.237 812.565 652.65L838.174 562.253Z" fill="#C2C2C2"/>
<path d="M797.462 503.957C825.173 483.258 817.386 439.81 784.211 430.024L647.337 389.647C618.45 381.126 590.248 404.881 593.736 434.795L606.944 548.061C609.964 573.966 635.617 590.884 660.618 583.459L703.917 570.6C708.665 569.19 713.126 566.951 717.094 563.987L797.462 503.957Z" fill="#C2C2C2"/>
<path d="M797.462 503.957C825.173 483.258 817.386 439.81 784.211 430.024L647.337 389.647C618.45 381.126 590.248 404.881 593.736 434.795L606.944 548.061C609.964 573.966 635.617 590.884 660.618 583.459L703.917 570.6C708.665 569.19 713.126 566.951 717.094 563.987L797.462 503.957Z" fill="#C2C2C2"/>
<path d="M786.738 503.34C817.403 519.341 853.182 493.491 847.621 459.352L824.68 318.502C819.838 288.777 786.206 273.658 760.76 289.768L664.412 350.766C642.376 364.716 638.25 395.167 655.777 414.479L686.134 447.926C689.463 451.593 693.414 454.643 697.805 456.934L786.738 503.34Z" fill="#C2C2C2"/>
<path d="M786.738 503.34C817.403 519.341 853.182 493.491 847.621 459.352L824.68 318.502C819.838 288.777 786.206 273.658 760.76 289.768L664.412 350.766C642.376 364.716 638.25 395.167 655.777 414.479L686.134 447.926C689.463 451.593 693.414 454.643 697.805 456.934L786.738 503.34Z" fill="#C2C2C2"/>
<path d="M849.313 544.45C874.461 528.112 874.877 491.442 850.106 474.538L800.569 440.734C794.859 436.838 788.275 434.411 781.402 433.669L694.234 424.261C667.382 421.362 644.814 444.195 648.025 471.011L662.69 593.506C666.387 624.385 701.194 640.676 727.273 623.733L849.313 544.45Z" fill="#B3B3B3"/>
<path d="M867.083 527.369C878.302 503.879 865.67 475.944 840.622 468.855L753.512 444.199C723.895 435.816 695.619 461.087 700.635 491.456L722.318 622.731C727.461 653.868 763.822 668.422 789.029 649.433L811.682 632.367C817.071 628.308 821.402 623.01 824.31 616.922L867.083 527.369Z" fill="#CECECE"/>
<path d="M820.715 512.822C850.523 503.652 860.293 466.34 838.803 443.738L777.672 379.445C757.553 358.285 722.516 363.602 709.581 389.778L672.353 465.113C659.76 490.596 675.587 520.966 703.688 525.242L745.485 531.602C751.732 532.552 758.113 532.081 764.152 530.223L820.715 512.822Z" fill="#C3C3C3"/>
<path d="M831.566 542.2C856.381 529.65 862.37 496.885 843.598 476.369L789.934 417.717C766.5 392.104 723.874 404.366 717.632 438.517L700.355 533.047C694.113 567.198 729.645 593.746 760.625 578.078L831.566 542.2Z" fill="#D9D9D9"/>
<path d="M845.428 497.896L995.925 525.402C1016.8 529.218 1038.11 530.126 1059.23 528.1L1198.28 514.766" stroke="black" stroke-width="9"/>
<path d="M1100.48 497.499L1284.76 531.179C1315.75 536.843 1345.4 548.243 1372.2 564.793L1523.31 658.105" stroke="black" stroke-width="7"/>
<path d="M863.459 511.414C864.435 508.558 863.471 505.399 861.067 503.574L841.1 488.42C835.823 484.415 828.451 489.301 830.084 495.722L840.814 537.9C842.529 544.646 851.97 545.025 854.221 538.439L863.459 511.414Z" fill="#D9D9D9"/>
<path d="M861.429 503.874L861.041 503.173C858.579 498.718 857.158 493.762 856.885 488.679V488.679C856.166 475.25 847.528 463.536 834.912 458.879L830.853 457.38" stroke="black" stroke-width="5"/>
<path d="M863.203 504.197L862.27 514.167C861.192 525.687 856.204 536.492 848.137 544.786V544.786L836.97 555.044" stroke="black" stroke-width="5"/>
<path d="M1238.1 360.374C1271.05 347.568 1274.41 302.271 1243.71 284.749L1076.95 189.576C1051.07 174.806 1018.47 190.934 1014.5 220.468L995.152 364.697C991.703 390.407 1012.15 413.065 1038.08 412.262L1103.16 410.246C1107.92 410.098 1112.63 409.14 1117.07 407.413L1238.1 360.374Z" fill="#B2B2B2"/>
<path d="M1196.48 344.275C1219.8 360.234 1251.91 349.066 1260.3 322.079L1288.57 231.14C1290.74 224.148 1291.05 216.71 1289.46 209.562L1265.28 100.766C1259.33 73.9854 1229.72 60.007 1205.26 72.4306L1035.37 158.723C1006.93 173.172 1004.35 212.815 1030.68 230.832L1196.48 344.275Z" fill="#C3C3C3"/>
<path d="M1206.71 360.993C1240.23 355.75 1254.02 314.973 1230.56 290.458L1101.44 155.542C1082.12 135.348 1048.82 139.314 1034.78 163.483L959.45 293.152C945.01 318.008 959.246 349.698 987.418 355.412L1091.04 376.427C1095.93 377.418 1100.95 377.531 1105.88 376.761L1206.71 360.993Z" fill="#C3C3C3"/>
<path d="M1181.44 353.646C1213.08 363.663 1243.29 334.75 1234.67 302.699L1187.66 127.876C1179.38 97.0635 1141.12 86.3777 1118.06 108.439L992.481 228.626C969.43 250.687 978.426 289.381 1008.84 299.011L1181.44 353.646Z" fill="#D9D9D9"/>
<path d="M1233.82 333.398L1363.85 469.269C1378.53 484.601 1395.25 497.829 1413.55 508.575L1562.08 595.793" stroke="black" stroke-width="9"/>
<path d="M1408.68 280.309L1422.22 340.909C1430.37 377.385 1430.34 415.214 1422.13 451.676L1408.81 510.804" stroke="black" stroke-width="7"/>
<path d="M1240.11 356.262C1245.66 357.751 1250.54 352.283 1248.44 346.935L1233.5 309.026C1231.59 304.176 1225.24 303.042 1221.77 306.931L1197.35 334.286C1193.88 338.175 1195.72 344.358 1200.76 345.708L1240.11 356.262Z" fill="#D9D9D9"/>
<path d="M1245.07 350.32V350.32C1245.88 343.72 1244.92 337.023 1242.28 330.917L1233.84 311.343C1233.5 310.549 1233.02 309.822 1232.42 309.197V309.197C1229.64 306.298 1229.74 301.699 1232.64 298.924L1248.04 284.188" stroke="black" stroke-width="5"/>
<path d="M1243.57 349.782L1228.94 334.502C1224.24 329.587 1218.7 325.548 1212.58 322.573V322.573C1206.47 319.598 1200.93 315.558 1196.22 310.644L1184.56 298.46" stroke="black" stroke-width="5"/>
<path d="M1246.55 351.869L1237.31 352.983C1231.69 353.66 1226 353.407 1220.46 352.232L1216.02 351.292C1212.19 350.479 1208.56 348.903 1205.34 346.658V346.658C1198.91 342.16 1190.93 340.442 1183.21 341.891L1176 343.245" stroke="black" stroke-width="5"/>
<path d="M1414.68 267.407C1420.42 279.825 1407.9 292.814 1395.28 287.538L1338.08 263.623C1328.34 259.554 1325.74 246.972 1333.06 239.375L1364.26 207.008C1371.58 199.411 1384.25 201.547 1388.67 211.125L1414.68 267.407Z" fill="#D9D9D9"/>
<path d="M1420.35 274.14C1420.21 287.82 1403.33 294.187 1394.19 284.008L1352.76 237.878C1345.71 230.028 1348.76 217.545 1358.63 213.821L1400.69 197.956C1410.56 194.232 1421.09 201.594 1420.98 212.145L1420.35 274.14Z" fill="#E9E9E9"/>
</g>
<defs>
<clipPath id="clip0_211_46">
<rect width="1440" height="816" fill="white"/>
</clipPath>
</defs>
</svg>
