<svg width="1440" height="534" viewBox="0 0 1440 534" fill="none" xmlns="http://www.w3.org/2000/svg">
<g clip-path="url(#clip0_203_2)">
<path d="M908.508 287.148C909.237 338.526 962.589 372.034 1008.48 349.937L1044.14 332.765L1070.23 316.714C1115.09 289.114 1114.34 223.098 1068.86 196.112L1037.59 177.564L1012.44 162.639C965.587 134.84 906.834 169.151 907.61 223.857L908.508 287.148Z" fill="#D9D9D9"/>
<path d="M1133.15 267.768L1140.23 267.417C1199.44 264.477 1257.58 284.819 1302.42 324.164L1359.71 374.427C1385.22 396.812 1415.29 413.259 1447.78 422.593L1557.88 454.226" stroke="black" stroke-width="9"/>
<path d="M959.027 185.349C959.756 236.727 1013.11 270.236 1059 248.138L1094.66 230.967L1120.75 214.916C1165.61 187.315 1164.86 121.3 1119.38 94.3138L1088.11 75.7651L1062.96 60.8399C1016.11 33.0414 957.352 67.3522 958.129 122.058L959.027 185.349Z" fill="#D9D9D9"/>
<path d="M997.292 430.027C1031.32 460.616 1086.38 446.399 1106.41 401.849L1124.39 361.863L1127.38 352.902C1145.2 299.385 1100.39 249.932 1047.76 265.028L1019.25 273.207L998.853 279.056C944.56 294.628 925.888 365.835 966.52 402.363L997.292 430.027Z" fill="#D9D9D9"/>
<path d="M973.938 170.28C973.043 223.618 1029.08 258.751 1075.95 234.237L1090.78 226.481L1108.08 215.119C1151.37 186.693 1149.7 122.14 1104.99 95.6127L1089.34 86.3309L1079.28 80.3615C1033.27 53.0593 975.358 85.6652 974.457 139.384L973.938 170.28Z" fill="#C6C6C6"/>
<path d="M973.938 170.28C973.043 223.618 1029.08 258.751 1075.95 234.237L1090.78 226.481L1108.08 215.119C1151.37 186.693 1149.7 122.14 1104.99 95.6127L1089.34 86.3309L1079.28 80.3615C1033.27 53.0593 975.358 85.6652 974.457 139.384L973.938 170.28Z" fill="#C6C6C6"/>
<path d="M973.938 170.28C973.043 223.618 1029.08 258.751 1075.95 234.237L1090.78 226.481L1108.08 215.119C1151.37 186.693 1149.7 122.14 1104.99 95.6127L1089.34 86.3309L1079.28 80.3615C1033.27 53.0593 975.358 85.6652 974.457 139.384L973.938 170.28Z" fill="#C6C6C6"/>
<path d="M973.938 170.28C973.043 223.618 1029.08 258.751 1075.95 234.237L1090.78 226.481L1108.08 215.119C1151.37 186.693 1149.7 122.14 1104.99 95.6127L1089.34 86.3309L1079.28 80.3615C1033.27 53.0593 975.358 85.6652 974.457 139.384L973.938 170.28Z" fill="#D1D1D1"/>
<path d="M1035.62 131.472C1034.72 184.809 1090.76 219.943 1137.63 195.429L1152.46 187.672L1169.76 176.311C1213.05 147.885 1211.38 83.3312 1166.67 56.8041L1151.02 47.5224L1140.96 41.553C1094.95 14.2508 1037.04 46.8567 1036.14 100.576L1035.62 131.472Z" fill="#C6C6C6"/>
<path d="M1035.62 131.472C1034.72 184.809 1090.76 219.943 1137.63 195.429L1152.46 187.672L1169.76 176.311C1213.05 147.885 1211.38 83.3312 1166.67 56.8041L1151.02 47.5224L1140.96 41.553C1094.95 14.2508 1037.04 46.8567 1036.14 100.576L1035.62 131.472Z" fill="#C6C6C6"/>
<path d="M1035.62 131.472C1034.72 184.809 1090.76 219.943 1137.63 195.429L1152.46 187.672L1169.76 176.311C1213.05 147.885 1211.38 83.3312 1166.67 56.8041L1151.02 47.5224L1140.96 41.553C1094.95 14.2508 1037.04 46.8567 1036.14 100.576L1035.62 131.472Z" fill="#C6C6C6"/>
<path d="M1035.62 131.472C1034.72 184.809 1090.76 219.943 1137.63 195.429L1152.46 187.672L1169.76 176.311C1213.05 147.885 1211.38 83.3312 1166.67 56.8041L1151.02 47.5224L1140.96 41.553C1094.95 14.2508 1037.04 46.8567 1036.14 100.576L1035.62 131.472Z" fill="#D1D1D1"/>
<path d="M959.453 318.688C958.558 372.025 1014.6 407.159 1061.47 382.645L1076.3 374.888L1093.6 363.527C1136.88 335.101 1135.21 270.547 1090.5 244.02L1074.86 234.738L1064.8 228.769C1018.78 201.467 960.873 234.073 959.971 287.792L959.453 318.688Z" fill="#C6C6C6"/>
<path d="M959.453 318.688C958.558 372.025 1014.6 407.159 1061.47 382.645L1076.3 374.888L1093.6 363.527C1136.88 335.101 1135.21 270.547 1090.5 244.02L1074.86 234.738L1064.8 228.769C1018.78 201.467 960.873 234.073 959.971 287.792L959.453 318.688Z" fill="#C6C6C6"/>
<path d="M959.453 318.688C958.558 372.025 1014.6 407.159 1061.47 382.645L1076.3 374.888L1093.6 363.527C1136.88 335.101 1135.21 270.547 1090.5 244.02L1074.86 234.738L1064.8 228.769C1018.78 201.467 960.873 234.073 959.971 287.792L959.453 318.688Z" fill="#C6C6C6"/>
<path d="M959.453 318.688C958.558 372.025 1014.6 407.159 1061.47 382.645L1076.3 374.888L1093.6 363.527C1136.88 335.101 1135.21 270.547 1090.5 244.02L1074.86 234.738L1064.8 228.769C1018.78 201.467 960.873 234.073 959.971 287.792L959.453 318.688Z" fill="#D1D1D1"/>
<path d="M1071.92 335.007C1071.03 388.344 1127.07 423.478 1173.94 398.964L1188.77 391.207L1206.07 379.846C1249.35 351.42 1247.68 286.867 1202.97 260.339L1187.33 251.058L1177.27 245.088C1131.25 217.786 1073.34 250.392 1072.44 304.111L1071.92 335.007Z" fill="#C6C6C6"/>
<path d="M1071.92 335.007C1071.03 388.344 1127.07 423.478 1173.94 398.964L1188.77 391.207L1206.07 379.846C1249.35 351.42 1247.68 286.867 1202.97 260.339L1187.33 251.058L1177.27 245.088C1131.25 217.786 1073.34 250.392 1072.44 304.111L1071.92 335.007Z" fill="#C6C6C6"/>
<path d="M1071.92 335.007C1071.03 388.344 1127.07 423.478 1173.94 398.964L1188.77 391.207L1206.07 379.846C1249.35 351.42 1247.68 286.867 1202.97 260.339L1187.33 251.058L1177.27 245.088C1131.25 217.786 1073.34 250.392 1072.44 304.111L1071.92 335.007Z" fill="#C6C6C6"/>
<path d="M1071.92 335.007C1071.03 388.344 1127.07 423.478 1173.94 398.964L1188.77 391.207L1206.07 379.846C1249.35 351.42 1247.68 286.867 1202.97 260.339L1187.33 251.058L1177.27 245.088C1131.25 217.786 1073.34 250.392 1072.44 304.111L1071.92 335.007Z" fill="#D1D1D1"/>
<path d="M1119.98 278.664C1119.09 332.002 1175.12 367.135 1221.99 342.621L1236.83 334.865L1254.13 323.503C1297.41 295.077 1295.74 230.524 1251.03 203.997L1235.39 194.715L1225.33 188.746C1179.31 161.443 1121.4 194.049 1120.5 247.768L1119.98 278.664Z" fill="#C6C6C6"/>
<path d="M1119.98 278.664C1119.09 332.002 1175.12 367.135 1221.99 342.621L1236.83 334.865L1254.13 323.503C1297.41 295.077 1295.74 230.524 1251.03 203.997L1235.39 194.715L1225.33 188.746C1179.31 161.443 1121.4 194.049 1120.5 247.768L1119.98 278.664Z" fill="#C6C6C6"/>
<path d="M1119.98 278.664C1119.09 332.002 1175.12 367.135 1221.99 342.621L1236.83 334.865L1254.13 323.503C1297.41 295.077 1295.74 230.524 1251.03 203.997L1235.39 194.715L1225.33 188.746C1179.31 161.443 1121.4 194.049 1120.5 247.768L1119.98 278.664Z" fill="#C6C6C6"/>
<path d="M1119.98 278.664C1119.09 332.002 1175.12 367.135 1221.99 342.621L1236.83 334.865L1254.13 323.503C1297.41 295.077 1295.74 230.524 1251.03 203.997L1235.39 194.715L1225.33 188.746C1179.31 161.443 1121.4 194.049 1120.5 247.768L1119.98 278.664Z" fill="#D1D1D1"/>
<path d="M992.821 251.463C991.926 304.8 1047.96 339.934 1094.83 315.42L1109.67 307.663L1126.97 296.302C1170.25 267.876 1168.58 203.322 1123.87 176.795L1108.23 167.514L1098.17 161.544C1052.15 134.242 994.241 166.848 993.339 220.567L992.821 251.463Z" fill="#C6C6C6"/>
<path d="M992.821 251.463C991.926 304.8 1047.96 339.934 1094.83 315.42L1109.67 307.663L1126.97 296.302C1170.25 267.876 1168.58 203.322 1123.87 176.795L1108.23 167.514L1098.17 161.544C1052.15 134.242 994.241 166.848 993.339 220.567L992.821 251.463Z" fill="#C6C6C6"/>
<path d="M992.821 251.463C991.926 304.8 1047.96 339.934 1094.83 315.42L1109.67 307.663L1126.97 296.302C1170.25 267.876 1168.58 203.322 1123.87 176.795L1108.23 167.514L1098.17 161.544C1052.15 134.242 994.241 166.848 993.339 220.567L992.821 251.463Z" fill="#C6C6C6"/>
<path d="M992.821 251.463C991.926 304.8 1047.96 339.934 1094.83 315.42L1109.67 307.663L1126.97 296.302C1170.25 267.876 1168.58 203.322 1123.87 176.795L1108.23 167.514L1098.17 161.544C1052.15 134.242 994.241 166.848 993.339 220.567L992.821 251.463Z" fill="#C6C6C6"/>
<path d="M1057.39 299.066C1056.49 352.404 1112.53 387.537 1159.4 363.024L1174.23 355.267L1191.53 343.905C1234.82 315.479 1233.15 250.926 1188.44 224.399L1172.79 215.117L1162.73 209.148C1116.72 181.845 1058.81 214.451 1057.91 268.17L1057.39 299.066Z" fill="#C6C6C6"/>
<path d="M1057.39 299.066C1056.49 352.404 1112.53 387.537 1159.4 363.024L1174.23 355.267L1191.53 343.905C1234.82 315.479 1233.15 250.926 1188.44 224.399L1172.79 215.117L1162.73 209.148C1116.72 181.845 1058.81 214.451 1057.91 268.17L1057.39 299.066Z" fill="#C6C6C6"/>
<path d="M1057.39 299.066C1056.49 352.404 1112.53 387.537 1159.4 363.024L1174.23 355.267L1191.53 343.905C1234.82 315.479 1233.15 250.926 1188.44 224.399L1172.79 215.117L1162.73 209.148C1116.72 181.845 1058.81 214.451 1057.91 268.17L1057.39 299.066Z" fill="#C6C6C6"/>
<path d="M1057.39 299.066C1056.49 352.404 1112.53 387.537 1159.4 363.024L1174.23 355.267L1191.53 343.905C1234.82 315.479 1233.15 250.926 1188.44 224.399L1172.79 215.117L1162.73 209.148C1116.72 181.845 1058.81 214.451 1057.91 268.17L1057.39 299.066Z" fill="#C6C6C6"/>
<path d="M1115.86 205.999C1114.96 259.337 1171 294.47 1217.87 269.957L1232.7 262.2L1250 250.838C1293.29 222.412 1291.62 157.859 1246.91 131.332L1231.26 122.05L1221.2 116.081C1175.19 88.7786 1117.28 121.384 1116.38 175.104L1115.86 205.999Z" fill="#C6C6C6"/>
<path d="M1115.86 205.999C1114.96 259.337 1171 294.47 1217.87 269.957L1232.7 262.2L1250 250.838C1293.29 222.412 1291.62 157.859 1246.91 131.332L1231.26 122.05L1221.2 116.081C1175.19 88.7786 1117.28 121.384 1116.38 175.104L1115.86 205.999Z" fill="#C6C6C6"/>
<path d="M1115.86 205.999C1114.96 259.337 1171 294.47 1217.87 269.957L1232.7 262.2L1250 250.838C1293.29 222.412 1291.62 157.859 1246.91 131.332L1231.26 122.05L1221.2 116.081C1175.19 88.7786 1117.28 121.384 1116.38 175.104L1115.86 205.999Z" fill="#C6C6C6"/>
<path d="M1115.86 205.999C1114.96 259.337 1171 294.47 1217.87 269.957L1232.7 262.2L1250 250.838C1293.29 222.412 1291.62 157.859 1246.91 131.332L1231.26 122.05L1221.2 116.081C1175.19 88.7786 1117.28 121.384 1116.38 175.104L1115.86 205.999Z" fill="#C6C6C6"/>
<path d="M1040.1 189.945C1039.2 243.282 1095.24 278.416 1142.11 253.902L1156.94 246.145L1174.24 234.784C1217.53 206.358 1215.85 141.804 1171.15 115.277L1155.5 105.995L1145.44 100.026C1099.43 72.7239 1041.52 105.33 1040.61 159.049L1040.1 189.945Z" fill="#C6C6C6"/>
<path d="M1040.1 189.945C1039.2 243.282 1095.24 278.416 1142.11 253.902L1156.94 246.145L1174.24 234.784C1217.53 206.358 1215.85 141.804 1171.15 115.277L1155.5 105.995L1145.44 100.026C1099.43 72.7239 1041.52 105.33 1040.61 159.049L1040.1 189.945Z" fill="#C6C6C6"/>
<path d="M1040.1 189.945C1039.2 243.282 1095.24 278.416 1142.11 253.902L1156.94 246.145L1174.24 234.784C1217.53 206.358 1215.85 141.804 1171.15 115.277L1155.5 105.995L1145.44 100.026C1099.43 72.7239 1041.52 105.33 1040.61 159.049L1040.1 189.945Z" fill="#C6C6C6"/>
<path d="M1040.1 189.945C1039.2 243.282 1095.24 278.416 1142.11 253.902L1156.94 246.145L1174.24 234.784C1217.53 206.358 1215.85 141.804 1171.15 115.277L1155.5 105.995L1145.44 100.026C1099.43 72.7239 1041.52 105.33 1040.61 159.049L1040.1 189.945Z" fill="#C6C6C6"/>
<ellipse cx="44.3202" cy="27.7741" rx="44.3202" ry="27.7741" transform="matrix(-0.389794 -0.920902 0.892325 -0.451393 1074.46 296.595)" fill="#B2B2B2"/>
<ellipse cx="44.3202" cy="22.6837" rx="44.3202" ry="22.6837" transform="matrix(-0.389794 -0.920902 0.892325 -0.451393 1107.8 267.658)" fill="#B2B2B2"/>
<ellipse cx="44.3202" cy="22.6837" rx="44.3202" ry="22.6837" transform="matrix(-0.389794 -0.920902 0.892325 -0.451393 1119 310.322)" fill="#B2B2B2"/>
<ellipse cx="44.3202" cy="22.6837" rx="44.3202" ry="22.6837" transform="matrix(-0.389794 -0.920902 0.892325 -0.451393 1135.91 267.248)" fill="#B2B2B2"/>
</g>
<defs>
<clipPath id="clip0_203_2">
<rect width="1440" height="534" fill="white"/>
</clipPath>
</defs>
</svg>
