<svg width="1440" height="816" viewBox="0 0 1440 816" fill="none" xmlns="http://www.w3.org/2000/svg">
<g clip-path="url(#clip0_211_46)">
<path d="M1228.69 564.983C1259.45 547.563 1256.25 502.256 1223.34 489.341L1068.09 428.408C1040.35 417.521 1010.41 438.18 1010.75 467.976L1012.17 594.532C1012.46 620.471 1035.96 639.946 1061.5 635.415L1116.77 625.609C1121.47 624.776 1125.99 623.15 1130.13 620.801L1228.69 564.983Z" fill="#B2B2B2"/>
<path d="M1202.13 532.294C1222.03 552.362 1255.67 547.446 1268.99 522.523L1308.22 449.145C1311.67 442.688 1313.37 435.44 1313.16 428.121L1310.3 329.731C1309.5 302.309 1283.06 283.001 1256.69 290.593L1095.92 336.893C1065.26 345.723 1055.25 384.168 1077.72 406.825L1202.13 532.294Z" fill="#C3C3C3"/>
<path d="M1222.74 565.279C1252.58 560.345 1267.58 526.44 1251.16 501.041L1156.58 354.739C1140.61 330.028 1104.83 328.978 1087.44 352.71L983.307 494.768C966.192 518.118 977.277 551.375 1004.98 559.786L1084.09 583.807C1090.26 585.682 1096.78 586.109 1103.14 585.057L1222.74 565.279Z" fill="#C3C3C3"/>
<path d="M1184.79 538.478C1213.97 554.278 1249.09 531.576 1246.67 498.475L1235.21 342.064C1232.88 310.242 1197.32 292.537 1170.52 309.859L1044.06 391.611C1017.26 408.933 1018.81 448.629 1046.87 463.819L1184.79 538.478Z" fill="#D9D9D9"/>
<path d="M1240.95 531.892L1334.25 676.222C1345.77 694.045 1359.7 710.188 1375.65 724.19L1493.78 827.911" stroke="black" stroke-width="9"/>
<path d="M1433.81 736.361L1548.53 913.814C1565.63 940.267 1577.64 969.682 1583.94 1000.54L1624.07 1197.06" stroke="black" stroke-width="7"/>
<path d="M1244.18 556.36C1246.93 555.115 1248.57 552.248 1248.25 549.247L1245.07 519.232C1244.38 512.644 1235.77 510.621 1232.21 516.209L1204.06 560.412C1200.32 566.283 1206.51 573.42 1212.85 570.548L1244.18 556.36Z" fill="#D9D9D9"/>
<path d="M1248.23 549.251V549.251C1250.12 543.387 1250.41 537.126 1249.08 531.111L1244.81 511.83C1244.64 511.047 1244.33 510.302 1243.9 509.629V509.629C1241.88 506.508 1242.77 502.341 1245.89 500.323L1262.47 489.605" stroke="black" stroke-width="5"/>
<path d="M1246.96 548.499L1236.32 532.045C1232.9 526.752 1228.56 522.11 1223.52 518.336V518.336C1218.47 514.561 1214.14 509.919 1210.71 504.627L1202.23 491.507" stroke="black" stroke-width="5"/>
<path d="M1249.31 550.919L1240.7 550.318C1235.47 549.953 1230.34 548.729 1225.5 546.694L1221.63 545.064C1218.28 543.655 1215.26 541.587 1212.73 538.984V538.984C1207.66 533.769 1200.7 530.813 1193.43 530.784L1186.62 530.756" stroke="black" stroke-width="5"/>
<path d="M1247.21 549.138L1239.56 553.129C1234.91 555.556 1229.9 557.201 1224.71 557.996L1220.56 558.633C1216.97 559.184 1213.31 559.007 1209.79 558.113V558.113C1202.74 556.322 1195.27 557.443 1189.05 561.225L1183.24 564.761" stroke="black" stroke-width="5"/>
</g>
<defs>
<clipPath id="clip0_211_46">
<rect width="1440" height="816" fill="white"/>
</clipPath>
</defs>
</svg>
