<svg width="1440" height="1736" viewBox="0 0 1440 1736" fill="none" xmlns="http://www.w3.org/2000/svg">
<g clip-path="url(#clip0_200_36)">
<path d="M436.545 82.4382C388.257 61.4012 334.909 99.2216 338.775 151.751L341.665 191.011L348.569 230.593C357.537 282.008 417.591 305.88 459.41 274.652L490.845 251.179L516.969 231.672C560.019 199.525 552.301 132.869 503.044 111.409L436.545 82.4382Z" fill="#D9D9D9"/>
<path d="M365.347 285.375L342.484 337.306C325.067 376.868 296.854 410.721 261.08 434.983L103.616 541.778C83.9299 555.13 66.434 571.454 51.7524 590.17L-61.1504 734.093" stroke="black" stroke-width="9"/>
<path d="M495.868 144.923C448.412 131.72 402.525 170.361 407.457 219.371L411.487 259.406L415.391 278.151C426.36 330.811 490.156 351.936 530.386 316.23L554.562 294.773L572.95 278.453C614.422 241.645 598.669 173.524 545.246 158.661L495.868 144.923Z" fill="#D9D9D9"/>
<path d="M236.402 143.678C196.135 167.902 190.7 224.134 225.581 255.622L254.121 281.385L256.847 283.355C301.345 315.526 363.869 286.276 367.69 231.5L369.38 207.273L370.474 191.594C374.416 135.083 313.1 97.5381 264.559 126.739L236.402 143.678Z" fill="#D9D9D9"/>
<path d="M504.706 162.775C455.806 147.455 407.559 188.143 414.406 238.927L416.842 256.997L419.18 266.726C431.526 318.113 494.183 337.808 533.709 302.727L544.563 293.093L550.126 288.156C590.841 252.02 576.536 185.279 524.588 169.004L504.706 162.775Z" fill="#C6C6C6"/>
<path d="M504.706 162.775C455.806 147.455 407.559 188.143 414.406 238.927L416.842 256.997L419.18 266.726C431.526 318.113 494.183 337.808 533.709 302.727L544.563 293.093L550.126 288.156C590.841 252.02 576.536 185.279 524.588 169.004L504.706 162.775Z" fill="#C6C6C6"/>
<path d="M504.706 162.775C455.806 147.455 407.559 188.143 414.406 238.927L416.842 256.997L419.18 266.726C431.526 318.113 494.183 337.808 533.709 302.727L544.563 293.093L550.126 288.156C590.841 252.02 576.536 185.279 524.588 169.004L504.706 162.775Z" fill="#C6C6C6"/>
<path d="M504.706 162.775C455.806 147.455 407.559 188.143 414.406 238.927L416.842 256.997L419.18 266.726C431.526 318.113 494.183 337.808 533.709 302.727L544.563 293.093L550.126 288.156C590.841 252.02 576.536 185.279 524.588 169.004L504.706 162.775Z" fill="#D1D1D1"/>
<path d="M519.547 230.508C470.647 215.188 422.4 255.875 429.247 306.66L431.683 324.73L434.021 334.459C446.367 385.846 509.024 405.541 548.55 370.46L559.404 360.826L564.967 355.889C605.682 319.753 591.377 253.012 539.429 236.737L519.547 230.508Z" fill="#C6C6C6"/>
<path d="M519.547 230.508C470.647 215.188 422.4 255.875 429.247 306.66L431.683 324.73L434.021 334.459C446.367 385.846 509.024 405.541 548.55 370.46L559.404 360.826L564.967 355.889C605.682 319.753 591.377 253.012 539.429 236.737L519.547 230.508Z" fill="#C6C6C6"/>
<path d="M519.547 230.508C470.647 215.188 422.4 255.875 429.247 306.66L431.683 324.73L434.021 334.459C446.367 385.846 509.024 405.541 548.55 370.46L559.404 360.826L564.967 355.889C605.682 319.753 591.377 253.012 539.429 236.737L519.547 230.508Z" fill="#C6C6C6"/>
<path d="M519.547 230.508C470.647 215.188 422.4 255.875 429.247 306.66L431.683 324.73L434.021 334.459C446.367 385.846 509.024 405.541 548.55 370.46L559.404 360.826L564.967 355.889C605.682 319.753 591.377 253.012 539.429 236.737L519.547 230.508Z" fill="#D1D1D1"/>
<path d="M374.751 109.664C325.851 94.3441 277.604 135.032 284.451 185.816L286.887 203.886L289.225 213.615C301.571 265.002 364.228 284.697 403.754 249.616L414.608 239.982L420.171 235.045C460.886 198.909 446.581 132.168 394.633 115.893L374.751 109.664Z" fill="#C6C6C6"/>
<path d="M374.751 109.664C325.851 94.3441 277.604 135.032 284.451 185.816L286.887 203.886L289.225 213.615C301.571 265.002 364.228 284.697 403.754 249.616L414.608 239.982L420.171 235.045C460.886 198.909 446.581 132.168 394.633 115.893L374.751 109.664Z" fill="#C6C6C6"/>
<path d="M374.751 109.664C325.851 94.3441 277.604 135.032 284.451 185.816L286.887 203.886L289.225 213.615C301.571 265.002 364.228 284.697 403.754 249.616L414.608 239.982L420.171 235.045C460.886 198.909 446.581 132.168 394.633 115.893L374.751 109.664Z" fill="#C6C6C6"/>
<path d="M374.751 109.664C325.851 94.3441 277.604 135.032 284.451 185.816L286.887 203.886L289.225 213.615C301.571 265.002 364.228 284.697 403.754 249.616L414.608 239.982L420.171 235.045C460.886 198.909 446.581 132.168 394.633 115.893L374.751 109.664Z" fill="#D1D1D1"/>
<path d="M322.748 209.907C273.848 194.587 225.601 235.275 232.448 286.059L234.884 304.129L237.222 313.859C249.568 365.245 312.225 384.94 351.751 349.859L362.605 340.226L368.168 335.288C408.883 299.152 394.578 232.411 342.63 216.136L322.748 209.907Z" fill="#C6C6C6"/>
<path d="M322.748 209.907C273.848 194.587 225.601 235.275 232.448 286.059L234.884 304.129L237.222 313.859C249.568 365.245 312.225 384.94 351.751 349.859L362.605 340.226L368.168 335.288C408.883 299.152 394.578 232.411 342.63 216.136L322.748 209.907Z" fill="#C6C6C6"/>
<path d="M322.748 209.907C273.848 194.587 225.601 235.275 232.448 286.059L234.884 304.129L237.222 313.859C249.568 365.245 312.225 384.94 351.751 349.859L362.605 340.226L368.168 335.288C408.883 299.152 394.578 232.411 342.63 216.136L322.748 209.907Z" fill="#C6C6C6"/>
<path d="M322.748 209.907C273.848 194.587 225.601 235.275 232.448 286.059L234.884 304.129L237.222 313.859C249.568 365.245 312.225 384.94 351.751 349.859L362.605 340.226L368.168 335.288C408.883 299.152 394.578 232.411 342.63 216.136L322.748 209.907Z" fill="#D1D1D1"/>
<path d="M424.814 301.492C375.914 286.172 327.667 326.859 334.514 377.643L336.95 395.713L339.287 405.443C351.634 456.829 414.29 476.524 453.816 441.443L464.671 431.81L470.234 426.873C510.948 390.737 496.644 323.996 444.695 307.721L424.814 301.492Z" fill="#C6C6C6"/>
<path d="M424.814 301.492C375.914 286.172 327.667 326.859 334.514 377.643L336.95 395.713L339.287 405.443C351.634 456.829 414.29 476.524 453.816 441.443L464.671 431.81L470.234 426.873C510.948 390.737 496.644 323.996 444.695 307.721L424.814 301.492Z" fill="#C6C6C6"/>
<path d="M424.814 301.492C375.914 286.172 327.667 326.859 334.514 377.643L336.95 395.713L339.287 405.443C351.634 456.829 414.29 476.524 453.816 441.443L464.671 431.81L470.234 426.873C510.948 390.737 496.644 323.996 444.695 307.721L424.814 301.492Z" fill="#C6C6C6"/>
<path d="M424.814 301.492C375.914 286.172 327.667 326.859 334.514 377.643L336.95 395.713L339.287 405.443C351.634 456.829 414.29 476.524 453.816 441.443L464.671 431.81L470.234 426.873C510.948 390.737 496.644 323.996 444.695 307.721L424.814 301.492Z" fill="#D1D1D1"/>
<path d="M460.299 176.669C411.399 161.349 363.152 202.036 369.999 252.82L372.435 270.89L374.773 280.62C387.119 332.006 449.776 351.701 489.302 316.62L500.156 306.987L505.719 302.05C546.434 265.914 532.129 199.173 480.181 182.898L460.299 176.669Z" fill="#C6C6C6"/>
<path d="M460.299 176.669C411.399 161.349 363.152 202.036 369.999 252.82L372.435 270.89L374.773 280.62C387.119 332.006 449.776 351.701 489.302 316.62L500.156 306.987L505.719 302.05C546.434 265.914 532.129 199.173 480.181 182.898L460.299 176.669Z" fill="#C6C6C6"/>
<path d="M460.299 176.669C411.399 161.349 363.152 202.036 369.999 252.82L372.435 270.89L374.773 280.62C387.119 332.006 449.776 351.701 489.302 316.62L500.156 306.987L505.719 302.05C546.434 265.914 532.129 199.173 480.181 182.898L460.299 176.669Z" fill="#C6C6C6"/>
<path d="M460.299 176.669C411.399 161.349 363.152 202.036 369.999 252.82L372.435 270.89L374.773 280.62C387.119 332.006 449.776 351.701 489.302 316.62L500.156 306.987L505.719 302.05C546.434 265.914 532.129 199.173 480.181 182.898L460.299 176.669Z" fill="#C6C6C6"/>
<path d="M360.187 205.986C311.287 190.666 263.04 231.353 269.887 282.137L272.323 300.207L274.661 309.937C287.007 361.323 349.663 381.019 389.19 345.938L400.044 336.304L405.607 331.367C446.321 295.231 432.017 228.49 380.068 212.215L360.187 205.986Z" fill="#C6C6C6"/>
<path d="M360.187 205.986C311.287 190.666 263.04 231.353 269.887 282.137L272.323 300.207L274.661 309.937C287.007 361.323 349.663 381.019 389.19 345.938L400.044 336.304L405.607 331.367C446.321 295.231 432.017 228.49 380.068 212.215L360.187 205.986Z" fill="#C6C6C6"/>
<path d="M360.187 205.986C311.287 190.666 263.04 231.353 269.887 282.137L272.323 300.207L274.661 309.937C287.007 361.323 349.663 381.019 389.19 345.938L400.044 336.304L405.607 331.367C446.321 295.231 432.017 228.49 380.068 212.215L360.187 205.986Z" fill="#C6C6C6"/>
<path d="M360.187 205.986C311.287 190.666 263.04 231.353 269.887 282.137L272.323 300.207L274.661 309.937C287.007 361.323 349.663 381.019 389.19 345.938L400.044 336.304L405.607 331.367C446.321 295.231 432.017 228.49 380.068 212.215L360.187 205.986Z" fill="#C6C6C6"/>
<path d="M477.089 280.248C447.02 237.235 382.063 241.384 357.71 287.873L350.217 302.177L344.275 316.928C324.739 365.419 363.321 417.435 415.395 412.811L431.156 411.412L440.256 410.604C493.867 405.843 522.273 344.883 491.436 300.771L477.089 280.248Z" fill="#C6C6C6"/>
<path d="M477.089 280.248C447.02 237.235 382.063 241.384 357.71 287.873L350.217 302.177L344.275 316.928C324.739 365.419 363.321 417.435 415.395 412.811L431.156 411.412L440.256 410.604C493.867 405.843 522.273 344.883 491.436 300.771L477.089 280.248Z" fill="#C6C6C6"/>
<path d="M477.089 280.248C447.02 237.235 382.063 241.384 357.71 287.873L350.217 302.177L344.275 316.928C324.739 365.419 363.321 417.435 415.395 412.811L431.156 411.412L440.256 410.604C493.867 405.843 522.273 344.883 491.436 300.771L477.089 280.248Z" fill="#C6C6C6"/>
<path d="M477.089 280.248C447.02 237.235 382.063 241.384 357.71 287.873L350.217 302.177L344.275 316.928C324.739 365.419 363.321 417.435 415.395 412.811L431.156 411.412L440.256 410.604C493.867 405.843 522.273 344.883 491.436 300.771L477.089 280.248Z" fill="#C6C6C6"/>
<ellipse cx="400.552" cy="252.567" rx="22.1699" ry="26.5904" transform="rotate(-6.88664 400.552 252.567)" fill="#B2B2B2"/>
<ellipse cx="419.203" cy="278.215" rx="43.0794" ry="21.7169" transform="rotate(-6.88664 419.203 278.215)" fill="#B2B2B2"/>
<ellipse cx="390.92" cy="278.507" rx="43.0794" ry="21.7169" transform="rotate(-6.88664 390.92 278.507)" fill="#B2B2B2"/>
<ellipse cx="400.701" cy="316.927" rx="34.8801" ry="21.7169" transform="rotate(-6.88664 400.701 316.927)" fill="#B2B2B2"/>
<path d="M641.648 593.537C615.757 569.47 629.364 526.135 664.366 521.188L829.479 497.851C858.984 493.681 883.327 520.709 876.104 549.618L845.431 672.389C839.143 697.555 811.771 711.062 787.973 700.741L736.481 678.411C732.107 676.515 728.088 673.887 724.596 670.641L641.648 593.537Z" fill="#B2B2B2"/>
<path d="M675.055 567.879C651.051 582.796 619.463 570.226 612.27 542.896L591.095 462.442C589.232 455.361 589.251 447.916 591.153 440.846L616.711 345.803C623.835 319.311 654.031 306.649 677.919 320.137L823.59 402.384C851.374 418.071 852.209 457.789 825.109 474.63L675.055 567.879Z" fill="#C3C3C3"/>
<path d="M647.372 595.2C619.485 583.493 612.741 547.037 634.594 526.128L760.449 405.709C781.709 385.367 816.757 392.627 828.186 419.742L896.593 582.023C907.839 608.7 889.357 638.487 860.46 640.258L777.954 645.314C771.516 645.709 765.074 644.615 759.126 642.118L647.372 595.2Z" fill="#C3C3C3"/>
<path d="M690.495 577.909C658.443 586.524 629.533 556.309 639.554 524.668L686.895 375.181C696.528 344.763 735.223 335.771 757.281 358.825L861.371 467.613C883.43 490.667 872.739 528.928 841.926 537.21L690.495 577.909Z" fill="#D9D9D9"/>
<path d="M637.38 558.504L513.216 677.306C497.881 691.978 480.59 704.457 461.834 714.388L322.921 787.94" stroke="black" stroke-width="9"/>
<path d="M402.442 712.763L249.784 858.828C227.024 880.605 208.531 906.44 195.256 935.006L110.735 1116.88" stroke="black" stroke-width="7"/>
<path d="M628.576 581.559C626.19 579.712 625.256 576.543 626.26 573.697L636.296 545.237C638.5 538.989 647.344 539.014 649.512 545.273L666.663 594.784C668.941 601.361 661.266 606.872 655.763 602.61L628.576 581.559Z" fill="#D9D9D9"/>
<path d="M626.279 573.706V573.706C625.801 567.565 626.965 561.407 629.652 555.864L638.263 538.095C638.612 537.374 639.087 536.721 639.666 536.167V536.167C642.352 533.597 642.446 529.337 639.876 526.651L626.228 512.387" stroke="black" stroke-width="5"/>
<path d="M627.693 573.269L641.849 559.725C646.402 555.369 651.693 551.856 657.475 549.353V549.353C663.258 546.849 668.549 543.337 673.102 538.981L684.389 528.181" stroke="black" stroke-width="5"/>
<path d="M624.845 575.079L633.353 576.486C638.527 577.342 643.807 577.34 648.981 576.479L653.124 575.789C656.705 575.194 660.129 573.883 663.193 571.937V571.937C669.332 568.037 676.783 566.772 683.865 568.427L690.487 569.974" stroke="black" stroke-width="5"/>
<path d="M627.3 573.832L633.814 579.485C637.775 582.922 642.275 585.683 647.134 587.656L651.025 589.237C654.389 590.603 657.992 591.279 661.622 591.224V591.224C668.894 591.113 675.905 593.935 681.074 599.051L685.907 603.835" stroke="black" stroke-width="5"/>
<path d="M289.414 1333.47C262.554 1356.45 274.364 1400.3 309.132 1406.69L451.675 1432.86C480.984 1438.25 506.419 1412.24 500.393 1383.06L478.12 1275.2C472.874 1249.79 446.082 1235.17 421.879 1244.5L376.757 1261.9C372.308 1263.61 368.184 1266.07 364.562 1269.17L289.414 1333.47Z" fill="#B2B2B2"/>
<path d="M318.139 1364.76C294.77 1348.87 262.691 1360.13 254.378 1387.14L232.969 1456.71C230.815 1463.7 230.528 1471.14 232.137 1478.29L251.284 1563.31C257.31 1590.07 286.959 1603.97 311.383 1591.48L442.413 1524.46C470.82 1509.93 473.29 1470.28 446.906 1452.33L318.139 1364.76Z" fill="#C3C3C3"/>
<path d="M294.325 1334.54C265.98 1345.09 257.74 1381.24 278.713 1403.03L385.226 1513.7C405.631 1534.9 440.947 1529.09 453.484 1502.47L519.83 1361.59C532.164 1335.4 514.924 1304.87 486.126 1301.91L414.282 1294.53C407.866 1293.87 401.384 1294.7 395.339 1296.95L294.325 1334.54Z" fill="#C3C3C3"/>
<path d="M334.692 1355.4C303.022 1345.47 272.892 1374.47 281.601 1406.5L317.25 1537.6C325.622 1568.39 363.914 1578.97 386.903 1556.84L480.895 1466.38C503.884 1444.25 494.779 1405.58 464.333 1396.04L334.692 1355.4Z" fill="#D9D9D9"/>
<path d="M279.49 1369.84L170.05 1256.13C155.333 1240.84 138.57 1227.66 120.239 1216.96L-4.2854 1144.31" stroke="black" stroke-width="9"/>
<path d="M66.9541 1217.31L-67.2039 1077.92C-89.0475 1055.22 -106.461 1028.64 -118.548 999.556L-188.953 830.127" stroke="black" stroke-width="7"/>
<path d="M272.467 1347.85C270.007 1349.6 268.944 1352.72 269.83 1355.61L277.569 1380.82C279.513 1387.16 288.351 1387.5 290.776 1381.33L307.535 1338.71C310.082 1332.24 302.641 1326.41 296.967 1330.44L272.467 1347.85Z" fill="#D9D9D9"/>
<path d="M269.746 1355.27V1355.27C269.066 1360.96 269.913 1366.74 272.199 1372L279.529 1388.86C279.827 1389.55 280.244 1390.17 280.761 1390.71V1390.71C283.162 1393.2 283.086 1397.17 280.592 1399.57L267.347 1412.32" stroke="black" stroke-width="5"/>
<path d="M271.044 1355.73L283.695 1368.87C287.764 1373.1 292.552 1376.57 297.836 1379.12V1379.12C303.12 1381.68 307.908 1385.15 311.977 1389.37L322.064 1399.85" stroke="black" stroke-width="5"/>
<path d="M268.463 1353.94L276.434 1352.95C281.281 1352.36 286.193 1352.56 290.973 1353.56L294.801 1354.36C298.11 1355.05 301.246 1356.4 304.023 1358.33V1358.33C309.585 1362.2 316.468 1363.66 323.121 1362.39L329.342 1361.2" stroke="black" stroke-width="5"/>
<path d="M270.7 1355.19L276.977 1350.18C280.794 1347.14 285.087 1344.74 289.683 1343.09L293.365 1341.77C296.546 1340.63 299.925 1340.14 303.3 1340.33V1340.33C310.062 1340.71 316.693 1338.35 321.699 1333.79L326.379 1329.52" stroke="black" stroke-width="5"/>
<path d="M581.786 860.573C582.78 895.908 624.318 914.284 651.134 891.253L775.307 784.603C797.912 765.187 793.672 729.061 767.185 715.409L656.753 658.487C633.696 646.603 605.485 658.253 597.533 682.944L580.662 735.328C579.2 739.866 578.522 744.619 578.656 749.385L581.786 860.573Z" fill="#C2C2C2"/>
<path d="M581.786 860.573C582.78 895.908 624.318 914.284 651.134 891.253L775.307 784.603C797.912 765.187 793.672 729.061 767.185 715.409L656.753 658.487C633.696 646.603 605.485 658.253 597.533 682.944L580.662 735.328C579.2 739.866 578.522 744.619 578.656 749.385L581.786 860.573Z" fill="#C2C2C2"/>
<path d="M638.524 906.127C618.285 934.176 638.729 973.297 673.312 972.697L842.474 969.761C872.587 969.238 892.379 938.126 880.09 910.63L825.088 787.56C814.446 763.749 784.904 755.292 763.275 769.865L718.048 800.337C713.941 803.104 710.355 806.576 707.457 810.593L638.524 906.127Z" fill="#C2C2C2"/>
<path d="M638.524 906.127C618.285 934.176 638.729 973.297 673.312 972.697L842.474 969.761C872.587 969.238 892.379 938.126 880.09 910.63L825.088 787.56C814.446 763.749 784.904 755.292 763.275 769.865L718.048 800.337C713.941 803.104 710.355 806.576 707.457 810.593L638.524 906.127Z" fill="#C2C2C2"/>
<path d="M646.833 895.71C612.784 889.629 586.39 925.009 601.921 955.915L677.89 1107.09C691.414 1134 728.03 1138.35 747.482 1115.36L834.55 1012.44C851.395 992.534 846.211 962.246 823.703 949.071L776.639 921.521C772.365 919.019 767.682 917.293 762.806 916.422L646.833 895.71Z" fill="#C2C2C2"/>
<path d="M646.833 895.71C612.784 889.629 586.39 925.009 601.921 955.915L677.89 1107.09C691.414 1134 728.03 1138.35 747.482 1115.36L834.55 1012.44C851.395 992.534 846.211 962.246 823.703 949.071L776.639 921.521C772.365 919.019 767.682 917.293 762.806 916.422L646.833 895.71Z" fill="#C2C2C2"/>
<path d="M572.115 879.146C553.015 902.266 563.603 937.378 592.3 946.086L661.354 967.039C667.969 969.046 674.977 969.389 681.757 968.038L781.256 948.211C807.743 942.933 822.436 914.389 811.341 889.766L751.522 757.017C738.745 728.663 700.657 723.546 680.85 747.523L572.115 879.146Z" fill="#B3B3B3"/>
<path d="M562.224 902.802C558.556 928.574 578.975 951.442 604.997 950.704L714.333 947.6C745.101 946.726 764.509 914.146 750.626 886.674L679.561 746.042C665.327 717.876 626.276 714.882 607.915 740.549L585.679 771.634C581.754 777.121 579.208 783.473 578.257 790.152L562.224 902.802Z" fill="#CECECE"/>
<path d="M610.796 901.799C585.103 919.476 586.958 958.002 614.231 973.128L709.108 1025.75C734.642 1039.91 766.477 1024.34 770.978 995.496L786.767 894.288C791.149 866.203 766.951 841.968 738.859 846.306L687.217 854.28C680.972 855.245 675.025 857.606 669.819 861.187L610.796 901.799Z" fill="#C3C3C3"/>
<path d="M591.376 874.777C571.46 894.183 575.561 927.238 599.615 941.189L685.709 991.122C715.74 1008.54 752.736 984.072 748.461 949.62L733.649 830.229C729.375 795.777 687.522 781.091 662.658 805.319L591.376 874.777Z" fill="#D9D9D9"/>
<path d="M595.045 921.908L426.464 942.822C405.403 945.435 384.805 950.951 365.256 959.211L222.153 1019.68" stroke="black" stroke-width="9"/>
<path d="M329.618 1005.69L122.431 1031.4C91.1705 1035.28 59.4611 1033.28 28.9328 1025.52L-163.108 976.688" stroke="black" stroke-width="7"/>
<path d="M571.841 914.189C571.765 917.206 573.631 919.932 576.471 920.953L604.367 930.978C610.602 933.219 616.172 926.348 612.69 920.712L585.644 876.922C581.986 871 572.865 873.466 572.69 880.425L571.841 914.189Z" fill="#D9D9D9"/>
<path d="M576.429 920.916L577.061 921.518C581.081 925.352 584.181 930.047 586.126 935.251V935.251C591.265 948.997 604.087 958.37 618.744 959.095L623.461 959.328" stroke="black" stroke-width="5"/>
<path d="M574.479 921.158L572.191 910.473C569.548 898.126 571.209 885.246 576.897 873.974V873.974L585.171 859.643" stroke="black" stroke-width="5"/>
<path d="M657.64 1332.04C670.19 1298.99 715.459 1295.28 733.219 1325.85L806.003 1451.11C820.974 1476.88 805.098 1509.6 775.596 1513.8L666.589 1529.28C640.907 1532.93 618.09 1512.66 618.693 1486.72L619.815 1438.39C619.926 1433.63 620.848 1428.92 622.54 1424.46L657.64 1332.04Z" fill="#C2C2C2"/>
<path d="M657.64 1332.04C670.19 1298.99 715.459 1295.28 733.219 1325.85L806.003 1451.11C820.974 1476.88 805.098 1509.6 775.596 1513.8L666.589 1529.28C640.907 1532.93 618.09 1512.66 618.693 1486.72L619.815 1438.39C619.926 1433.63 620.848 1428.92 622.54 1424.46L657.64 1332.04Z" fill="#C2C2C2"/>
<path d="M725.402 1308.99C715.504 1275.85 747.667 1245.62 780.133 1257.55L921.145 1309.37C949.413 1319.76 957.883 1355.64 937.242 1377.58L855.043 1464.91C837.169 1483.91 806.488 1482.19 790.849 1461.31L762.166 1423.04C759.196 1419.08 756.95 1414.62 755.533 1409.87L725.402 1308.99Z" fill="#C2C2C2"/>
<path d="M725.402 1308.99C715.504 1275.85 747.667 1245.62 780.133 1257.55L921.145 1309.37C949.413 1319.76 957.883 1355.64 937.242 1377.58L855.043 1464.91C837.169 1483.91 806.488 1482.19 790.849 1461.31L762.166 1423.04C759.196 1419.08 756.95 1414.62 755.533 1409.87L725.402 1308.99Z" fill="#C2C2C2"/>
<path d="M733.086 1316.79C698.928 1311.34 685.626 1269.25 710.45 1245.17L818.269 1140.55C839.884 1119.58 875.897 1127.5 886.714 1155.61L929.792 1267.54C939.159 1291.88 924.311 1318.78 898.723 1323.83L851.798 1333.09C846.939 1334.05 841.948 1334.14 837.057 1333.36L733.086 1316.79Z" fill="#C2C2C2"/>
<path d="M733.086 1316.79C698.928 1311.34 685.626 1269.25 710.45 1245.17L818.269 1140.55C839.884 1119.58 875.897 1127.5 886.714 1155.61L929.792 1267.54C939.159 1291.88 924.311 1318.78 898.723 1323.83L851.798 1333.09C846.939 1334.05 841.948 1334.14 837.057 1333.36L733.086 1316.79Z" fill="#C2C2C2"/>
<path d="M657.979 1311.16C647.537 1283.05 669.074 1253.37 699.039 1254.57L762.424 1257.12C769.331 1257.4 776.063 1259.38 782.022 1262.88L860.978 1309.3C884.26 1322.99 888.758 1354.78 870.188 1374.39L781.015 1468.55C759.631 1491.14 721.976 1483.45 711.147 1454.3L657.979 1311.16Z" fill="#B3B3B3"/>
<path d="M654.616 1286.49C659.62 1260.94 686.42 1246.05 710.754 1255.3L800.387 1289.37C829.16 1300.3 836.785 1337.45 814.646 1358.84L713.938 1456.12C691.24 1478.04 653.373 1468.04 644.466 1437.76L635.669 1407.87C633.765 1401.39 633.448 1394.56 634.745 1387.94L654.616 1286.49Z" fill="#CECECE"/>
<path d="M700.411 1302.73C681.953 1277.59 696.365 1241.82 727.094 1236.49L820.045 1220.38C848.814 1215.4 873.766 1240.56 868.538 1269.29L852.554 1357.1C847.464 1385.07 816.646 1400.01 791.54 1386.68L751.693 1365.53C746.112 1362.57 741.271 1358.38 737.531 1353.29L700.411 1302.73Z" fill="#C3C3C3"/>
<path d="M673.898 1320.42C661.465 1295.54 676.199 1265.67 703.502 1260.4L787.147 1244.25C821.233 1237.66 848.135 1272.93 832.777 1304.06L787.224 1396.42C771.866 1427.55 727.512 1427.67 711.989 1396.62L673.898 1320.42Z" fill="#D9D9D9"/>
<path d="M690.233 1276.74L548.724 1206.94C529.691 1197.55 512.048 1185.57 496.299 1171.35L389.335 1074.73" stroke="black" stroke-width="9"/>
<path d="M480.438 1120.35L306.969 1034.78C278.719 1020.85 248.115 1012.31 216.731 1009.61L33.9707 993.892" stroke="black" stroke-width="7"/>
<path d="M667.153 1276.71C668.073 1273.84 670.731 1271.87 673.749 1271.84L700.114 1271.57C706.739 1271.51 709.742 1279.83 704.602 1284.01L669.082 1312.89C663.681 1317.28 655.877 1311.95 657.998 1305.32L667.153 1276.71Z" fill="#D9D9D9"/>
<path d="M673.398 1271.87L674.146 1271.53C678.9 1269.37 683.102 1266.15 686.437 1262.13V1262.13C695.246 1251.52 709.527 1247.15 722.766 1251.04L727.026 1252.29" stroke="black" stroke-width="5"/>
<path d="M671.741 1271.05L666.409 1279.83C660.247 1289.98 657.743 1301.93 659.312 1313.69V1313.69L662.231 1328.97" stroke="black" stroke-width="5"/>
<path d="M578.537 1019.88C563.107 973.101 505.47 956.466 467.488 987.831L436.462 1013.45L423.058 1027.12C385.401 1065.53 403.337 1130.3 455.389 1143.87L486.669 1152.02L510.459 1158.22C564.118 1172.2 611.96 1121.22 594.591 1068.55L578.537 1019.88Z" fill="#D9D9D9"/>
<path d="M369.701 1093.75L359.321 1096.91C305.647 1113.28 247.841 1109.46 196.787 1086.17L119.747 1051.04C90.9253 1037.89 59.699 1030.84 28.0253 1030.33L-89.4597 1028.42" stroke="black" stroke-width="9"/>
<path d="M559.024 1124.07C543.595 1077.29 485.957 1060.65 447.975 1092.02L416.949 1117.64L403.545 1131.31C365.888 1169.72 383.825 1234.49 435.876 1248.05L467.157 1256.21L490.947 1262.41C544.606 1276.39 592.447 1225.4 575.078 1172.74L559.024 1124.07Z" fill="#D9D9D9"/>
<path d="M456.011 915.316C413.481 895.331 363.73 922.098 356.97 968.6L351.439 1006.65L351.318 1010.01C349.34 1064.88 408.429 1100.57 456.072 1073.27L477.144 1061.2L490.782 1053.38C539.933 1025.22 537.021 953.381 485.751 929.29L456.011 915.316Z" fill="#D9D9D9"/>
<path d="M549.105 1141.34C534.632 1092.19 473.981 1074.73 435.59 1108.67L421.93 1120.75L415.145 1128.11C379.314 1166.95 397.805 1229.97 448.945 1243.3L462.989 1246.96L470.186 1248.84C522.864 1262.57 570.366 1213.55 554.99 1161.33L549.105 1141.34Z" fill="#C6C6C6"/>
<path d="M549.105 1141.34C534.632 1092.19 473.981 1074.73 435.59 1108.67L421.93 1120.75L415.145 1128.11C379.314 1166.95 397.805 1229.97 448.945 1243.3L462.989 1246.96L470.186 1248.84C522.864 1262.57 570.366 1213.55 554.99 1161.33L549.105 1141.34Z" fill="#C6C6C6"/>
<path d="M549.105 1141.34C534.632 1092.19 473.981 1074.73 435.59 1108.67L421.93 1120.75L415.145 1128.11C379.314 1166.95 397.805 1229.97 448.945 1243.3L462.989 1246.96L470.186 1248.84C522.864 1262.57 570.366 1213.55 554.99 1161.33L549.105 1141.34Z" fill="#C6C6C6"/>
<path d="M549.105 1141.34C534.632 1092.19 473.981 1074.73 435.59 1108.67L421.93 1120.75L415.145 1128.11C379.314 1166.95 397.805 1229.97 448.945 1243.3L462.989 1246.96L470.186 1248.84C522.864 1262.57 570.366 1213.55 554.99 1161.33L549.105 1141.34Z" fill="#D1D1D1"/>
<path d="M501.078 1191.36C486.605 1142.2 425.954 1124.74 387.563 1158.69L373.903 1170.76L367.118 1178.12C331.286 1216.97 349.777 1279.99 400.917 1293.32L414.961 1296.98L422.158 1298.85C474.837 1312.58 522.338 1263.57 506.963 1211.34L501.078 1191.36Z" fill="#C6C6C6"/>
<path d="M501.078 1191.36C486.605 1142.2 425.954 1124.74 387.563 1158.69L373.903 1170.76L367.118 1178.12C331.286 1216.97 349.777 1279.99 400.917 1293.32L414.961 1296.98L422.158 1298.85C474.837 1312.58 522.338 1263.57 506.963 1211.34L501.078 1191.36Z" fill="#C6C6C6"/>
<path d="M501.078 1191.36C486.605 1142.2 425.954 1124.74 387.563 1158.69L373.903 1170.76L367.118 1178.12C331.286 1216.97 349.777 1279.99 400.917 1293.32L414.961 1296.98L422.158 1298.85C474.837 1312.58 522.338 1263.57 506.963 1211.34L501.078 1191.36Z" fill="#C6C6C6"/>
<path d="M501.078 1191.36C486.605 1142.2 425.954 1124.74 387.563 1158.69L373.903 1170.76L367.118 1178.12C331.286 1216.97 349.777 1279.99 400.917 1293.32L414.961 1296.98L422.158 1298.85C474.837 1312.58 522.338 1263.57 506.963 1211.34L501.078 1191.36Z" fill="#D1D1D1"/>
<path d="M520.943 1003.81C506.47 954.652 445.819 937.196 407.428 971.138L393.768 983.215L386.983 990.57C351.151 1029.42 369.642 1092.44 420.783 1105.77L434.827 1109.43L442.024 1111.3C494.702 1125.03 542.204 1076.02 526.828 1023.8L520.943 1003.81Z" fill="#C6C6C6"/>
<path d="M520.943 1003.81C506.47 954.652 445.819 937.196 407.428 971.138L393.768 983.215L386.983 990.57C351.151 1029.42 369.642 1092.44 420.783 1105.77L434.827 1109.43L442.024 1111.3C494.702 1125.03 542.204 1076.02 526.828 1023.8L520.943 1003.81Z" fill="#C6C6C6"/>
<path d="M520.943 1003.81C506.47 954.652 445.819 937.196 407.428 971.138L393.768 983.215L386.983 990.57C351.151 1029.42 369.642 1092.44 420.783 1105.77L434.827 1109.43L442.024 1111.3C494.702 1125.03 542.204 1076.02 526.828 1023.8L520.943 1003.81Z" fill="#C6C6C6"/>
<path d="M520.943 1003.81C506.47 954.652 445.819 937.196 407.428 971.138L393.768 983.215L386.983 990.57C351.151 1029.42 369.642 1092.44 420.783 1105.77L434.827 1109.43L442.024 1111.3C494.702 1125.03 542.204 1076.02 526.828 1023.8L520.943 1003.81Z" fill="#D1D1D1"/>
<path d="M408.714 1016.36C394.24 967.207 333.59 949.75 295.199 983.692L281.539 995.769L274.754 1003.12C238.922 1041.97 257.413 1104.99 308.553 1118.32L322.597 1121.98L329.794 1123.86C382.473 1137.59 429.974 1088.57 414.598 1036.35L408.714 1016.36Z" fill="#C6C6C6"/>
<path d="M408.714 1016.36C394.24 967.207 333.59 949.75 295.199 983.692L281.539 995.769L274.754 1003.12C238.922 1041.97 257.413 1104.99 308.553 1118.32L322.597 1121.98L329.794 1123.86C382.473 1137.59 429.974 1088.57 414.598 1036.35L408.714 1016.36Z" fill="#C6C6C6"/>
<path d="M408.714 1016.36C394.24 967.207 333.59 949.75 295.199 983.692L281.539 995.769L274.754 1003.12C238.922 1041.97 257.413 1104.99 308.553 1118.32L322.597 1121.98L329.794 1123.86C382.473 1137.59 429.974 1088.57 414.598 1036.35L408.714 1016.36Z" fill="#C6C6C6"/>
<path d="M408.714 1016.36C394.24 967.207 333.59 949.75 295.199 983.692L281.539 995.769L274.754 1003.12C238.922 1041.97 257.413 1104.99 308.553 1118.32L322.597 1121.98L329.794 1123.86C382.473 1137.59 429.974 1088.57 414.598 1036.35L408.714 1016.36Z" fill="#D1D1D1"/>
<path d="M378.687 1078.91C364.214 1029.75 303.563 1012.29 265.172 1046.23L251.512 1058.31L244.728 1065.67C208.896 1104.51 227.387 1167.54 278.527 1180.86L292.571 1184.52L299.768 1186.4C352.446 1200.13 399.948 1151.11 384.572 1098.89L378.687 1078.91Z" fill="#C6C6C6"/>
<path d="M378.687 1078.91C364.214 1029.75 303.563 1012.29 265.172 1046.23L251.512 1058.31L244.728 1065.67C208.896 1104.51 227.387 1167.54 278.527 1180.86L292.571 1184.52L299.768 1186.4C352.446 1200.13 399.948 1151.11 384.572 1098.89L378.687 1078.91Z" fill="#C6C6C6"/>
<path d="M378.687 1078.91C364.214 1029.75 303.563 1012.29 265.172 1046.23L251.512 1058.31L244.728 1065.67C208.896 1104.51 227.387 1167.54 278.527 1180.86L292.571 1184.52L299.768 1186.4C352.446 1200.13 399.948 1151.11 384.572 1098.89L378.687 1078.91Z" fill="#C6C6C6"/>
<path d="M378.687 1078.91C364.214 1029.75 303.563 1012.29 265.172 1046.23L251.512 1058.31L244.728 1065.67C208.896 1104.51 227.387 1167.54 278.527 1180.86L292.571 1184.52L299.768 1186.4C352.446 1200.13 399.948 1151.11 384.572 1098.89L378.687 1078.91Z" fill="#D1D1D1"/>
<path d="M508.057 1072.61C493.583 1023.46 432.932 1006 394.541 1039.94L380.881 1052.02L374.097 1059.37C338.265 1098.22 356.756 1161.24 407.896 1174.57L421.94 1178.23L429.137 1180.11C481.815 1193.84 529.317 1144.82 513.941 1092.6L508.057 1072.61Z" fill="#C6C6C6"/>
<path d="M508.057 1072.61C493.583 1023.46 432.932 1006 394.541 1039.94L380.881 1052.02L374.097 1059.37C338.265 1098.22 356.756 1161.24 407.896 1174.57L421.94 1178.23L429.137 1180.11C481.815 1193.84 529.317 1144.82 513.941 1092.6L508.057 1072.61Z" fill="#C6C6C6"/>
<path d="M508.057 1072.61C493.583 1023.46 432.932 1006 394.541 1039.94L380.881 1052.02L374.097 1059.37C338.265 1098.22 356.756 1161.24 407.896 1174.57L421.94 1178.23L429.137 1180.11C481.815 1193.84 529.317 1144.82 513.941 1092.6L508.057 1072.61Z" fill="#C6C6C6"/>
<path d="M508.057 1072.61C493.583 1023.46 432.932 1006 394.541 1039.94L380.881 1052.02L374.097 1059.37C338.265 1098.22 356.756 1161.24 407.896 1174.57L421.94 1178.23L429.137 1180.11C481.815 1193.84 529.317 1144.82 513.941 1092.6L508.057 1072.61Z" fill="#C6C6C6"/>
<path d="M432.8 1045.29C418.326 996.135 357.676 978.679 319.285 1012.62L305.624 1024.7L298.84 1032.05C263.008 1070.9 281.499 1133.92 332.639 1147.25L346.683 1150.91L353.88 1152.79C406.558 1166.52 454.06 1117.5 438.684 1065.28L432.8 1045.29Z" fill="#C6C6C6"/>
<path d="M432.8 1045.29C418.326 996.135 357.676 978.679 319.285 1012.62L305.624 1024.7L298.84 1032.05C263.008 1070.9 281.499 1133.92 332.639 1147.25L346.683 1150.91L353.88 1152.79C406.558 1166.52 454.06 1117.5 438.684 1065.28L432.8 1045.29Z" fill="#C6C6C6"/>
<path d="M432.8 1045.29C418.326 996.135 357.676 978.679 319.285 1012.62L305.624 1024.7L298.84 1032.05C263.008 1070.9 281.499 1133.92 332.639 1147.25L346.683 1150.91L353.88 1152.79C406.558 1166.52 454.06 1117.5 438.684 1065.28L432.8 1045.29Z" fill="#C6C6C6"/>
<path d="M432.8 1045.29C418.326 996.135 357.676 978.679 319.285 1012.62L305.624 1024.7L298.84 1032.05C263.008 1070.9 281.499 1133.92 332.639 1147.25L346.683 1150.91L353.88 1152.79C406.558 1166.52 454.06 1117.5 438.684 1065.28L432.8 1045.29Z" fill="#C6C6C6"/>
<path d="M403.211 1143.52C388.737 1094.37 328.087 1076.91 289.696 1110.85L276.036 1122.93L269.251 1130.28C233.419 1169.13 251.91 1232.15 303.05 1245.48L317.094 1249.14L324.291 1251.02C376.97 1264.75 424.471 1215.73 409.095 1163.51L403.211 1143.52Z" fill="#C6C6C6"/>
<path d="M403.211 1143.52C388.737 1094.37 328.087 1076.91 289.696 1110.85L276.036 1122.93L269.251 1130.28C233.419 1169.13 251.91 1232.15 303.05 1245.48L317.094 1249.14L324.291 1251.02C376.97 1264.75 424.471 1215.73 409.095 1163.51L403.211 1143.52Z" fill="#C6C6C6"/>
<path d="M403.211 1143.52C388.737 1094.37 328.087 1076.91 289.696 1110.85L276.036 1122.93L269.251 1130.28C233.419 1169.13 251.91 1232.15 303.05 1245.48L317.094 1249.14L324.291 1251.02C376.97 1264.75 424.471 1215.73 409.095 1163.51L403.211 1143.52Z" fill="#C6C6C6"/>
<path d="M403.211 1143.52C388.737 1094.37 328.087 1076.91 289.696 1110.85L276.036 1122.93L269.251 1130.28C233.419 1169.13 251.91 1232.15 303.05 1245.48L317.094 1249.14L324.291 1251.02C376.97 1264.75 424.471 1215.73 409.095 1163.51L403.211 1143.52Z" fill="#C6C6C6"/>
<path d="M480.243 1139.64C465.77 1090.48 405.119 1073.02 366.728 1106.97L353.068 1119.04L346.283 1126.4C310.451 1165.25 328.942 1228.27 380.082 1241.6L394.126 1245.26L401.324 1247.13C454.002 1260.86 501.503 1211.85 486.128 1159.62L480.243 1139.64Z" fill="#C6C6C6"/>
<path d="M480.243 1139.64C465.77 1090.48 405.119 1073.02 366.728 1106.97L353.068 1119.04L346.283 1126.4C310.451 1165.25 328.942 1228.27 380.082 1241.6L394.126 1245.26L401.324 1247.13C454.002 1260.86 501.503 1211.85 486.128 1159.62L480.243 1139.64Z" fill="#C6C6C6"/>
<path d="M480.243 1139.64C465.77 1090.48 405.119 1073.02 366.728 1106.97L353.068 1119.04L346.283 1126.4C310.451 1165.25 328.942 1228.27 380.082 1241.6L394.126 1245.26L401.324 1247.13C454.002 1260.86 501.503 1211.85 486.128 1159.62L480.243 1139.64Z" fill="#C6C6C6"/>
<path d="M480.243 1139.64C465.77 1090.48 405.119 1073.02 366.728 1106.97L353.068 1119.04L346.283 1126.4C310.451 1165.25 328.942 1228.27 380.082 1241.6L394.126 1245.26L401.324 1247.13C454.002 1260.86 501.503 1211.85 486.128 1159.62L480.243 1139.64Z" fill="#C6C6C6"/>
<ellipse cx="425.621" cy="1103.47" rx="43.0794" ry="26.5904" transform="rotate(49.3117 425.621 1103.47)" fill="#B2B2B2"/>
<ellipse cx="405.611" cy="1134.52" rx="43.0794" ry="21.7169" transform="rotate(49.3117 405.611 1134.52)" fill="#B2B2B2"/>
<ellipse cx="382.813" cy="1098.71" rx="43.0794" ry="21.7169" transform="rotate(49.3117 382.813 1098.71)" fill="#B2B2B2"/>
<ellipse cx="378.829" cy="1141.71" rx="43.0794" ry="21.7169" transform="rotate(49.3117 378.829 1141.71)" fill="#B2B2B2"/>
<path d="M434.55 526.897C394.367 492.844 332.387 513.697 320.961 565.114L312.421 603.544L307.633 643.436C301.413 695.256 352.048 735.413 401.088 717.552L437.952 704.126L468.587 692.969C519.071 674.583 530.878 608.528 489.888 573.792L434.55 526.897Z" fill="#D9D9D9"/>
<path d="M307.922 700.729L271.071 743.876C242.998 776.745 206.231 801.038 164.985 813.969L-16.5639 870.889C-39.2614 878.005 -60.7176 888.599 -80.1672 902.294L-229.737 1007.6" stroke="black" stroke-width="9"/>
<path d="M473.364 603.819C431.721 577.508 376.649 601.296 367.257 649.651L359.586 689.149L357.926 708.224C353.264 761.812 408.273 800.416 457.082 777.809L486.414 764.224L508.722 753.891C559.039 730.587 563.571 660.815 516.693 631.196L473.364 603.819Z" fill="#D9D9D9"/>
<path d="M225.249 527.9C179.712 539.5 158.312 591.784 182.647 631.984L202.557 664.875L204.6 667.547C237.947 711.171 306.246 701.167 325.681 649.812L334.277 627.098L339.84 612.398C359.891 559.418 311.986 505.804 257.092 519.788L225.249 527.9Z" fill="#D9D9D9"/>
<path d="M476.686 623.46C434.27 594.706 376.349 619.774 368.28 670.379L365.409 688.384L364.845 698.375C361.869 751.14 416.198 788.046 464.153 765.835L477.322 759.736L484.071 756.61C533.468 733.731 538.991 665.698 493.931 635.151L476.686 623.46Z" fill="#C6C6C6"/>
<path d="M476.686 623.46C434.27 594.706 376.349 619.774 368.28 670.379L365.409 688.384L364.845 698.375C361.869 751.14 416.198 788.046 464.153 765.835L477.322 759.736L484.071 756.61C533.468 733.731 538.991 665.698 493.931 635.151L476.686 623.46Z" fill="#C6C6C6"/>
<path d="M476.686 623.46C434.27 594.706 376.349 619.774 368.28 670.379L365.409 688.384L364.845 698.375C361.869 751.14 416.198 788.046 464.153 765.835L477.322 759.736L484.071 756.61C533.468 733.731 538.991 665.698 493.931 635.151L476.686 623.46Z" fill="#C6C6C6"/>
<path d="M476.686 623.46C434.27 594.706 376.349 619.774 368.28 670.379L365.409 688.384L364.845 698.375C361.869 751.14 416.198 788.046 464.153 765.835L477.322 759.736L484.071 756.61C533.468 733.731 538.991 665.698 493.931 635.151L476.686 623.46Z" fill="#D1D1D1"/>
<path d="M471.39 692.598C428.974 663.843 371.053 688.912 362.984 739.516L360.113 757.522L359.549 767.513C356.573 820.277 410.902 857.184 458.857 834.973L472.026 828.873L478.775 825.747C528.172 802.869 533.695 734.836 488.635 704.289L471.39 692.598Z" fill="#C6C6C6"/>
<path d="M471.39 692.598C428.974 663.843 371.053 688.912 362.984 739.516L360.113 757.522L359.549 767.513C356.573 820.277 410.902 857.184 458.857 834.973L472.026 828.873L478.775 825.747C528.172 802.869 533.695 734.836 488.635 704.289L471.39 692.598Z" fill="#C6C6C6"/>
<path d="M471.39 692.598C428.974 663.843 371.053 688.912 362.984 739.516L360.113 757.522L359.549 767.513C356.573 820.277 410.902 857.184 458.857 834.973L472.026 828.873L478.775 825.747C528.172 802.869 533.695 734.836 488.635 704.289L471.39 692.598Z" fill="#C6C6C6"/>
<path d="M471.39 692.598C428.974 663.843 371.053 688.912 362.984 739.516L360.113 757.522L359.549 767.513C356.573 820.277 410.902 857.184 458.857 834.973L472.026 828.873L478.775 825.747C528.172 802.869 533.695 734.836 488.635 704.289L471.39 692.598Z" fill="#D1D1D1"/>
<path d="M367.533 535.172C325.118 506.418 267.197 531.486 259.127 582.09L256.256 600.096L255.693 610.087C252.716 662.852 307.046 699.758 355.001 677.547L368.17 671.448L374.919 668.322C424.316 645.443 429.838 577.41 384.779 546.863L367.533 535.172Z" fill="#C6C6C6"/>
<path d="M367.533 535.172C325.118 506.418 267.197 531.486 259.127 582.09L256.256 600.096L255.693 610.087C252.716 662.852 307.046 699.758 355.001 677.547L368.17 671.448L374.919 668.322C424.316 645.443 429.838 577.41 384.779 546.863L367.533 535.172Z" fill="#C6C6C6"/>
<path d="M367.533 535.172C325.118 506.418 267.197 531.486 259.127 582.09L256.256 600.096L255.693 610.087C252.716 662.852 307.046 699.758 355.001 677.547L368.17 671.448L374.919 668.322C424.316 645.443 429.838 577.41 384.779 546.863L367.533 535.172Z" fill="#C6C6C6"/>
<path d="M367.533 535.172C325.118 506.418 267.197 531.486 259.127 582.09L256.256 600.096L255.693 610.087C252.716 662.852 307.046 699.758 355.001 677.547L368.17 671.448L374.919 668.322C424.316 645.443 429.838 577.41 384.779 546.863L367.533 535.172Z" fill="#D1D1D1"/>
<path d="M288.863 616.191C246.448 587.437 188.527 612.505 180.457 663.109L177.586 681.115L177.023 691.106C174.046 743.871 228.376 780.777 276.331 758.566L289.5 752.467L296.249 749.341C345.646 726.462 351.169 658.429 306.109 627.882L288.863 616.191Z" fill="#C6C6C6"/>
<path d="M288.863 616.191C246.448 587.437 188.527 612.505 180.457 663.109L177.586 681.115L177.023 691.106C174.046 743.871 228.376 780.777 276.331 758.566L289.5 752.467L296.249 749.341C345.646 726.462 351.169 658.429 306.109 627.882L288.863 616.191Z" fill="#C6C6C6"/>
<path d="M288.863 616.191C246.448 587.437 188.527 612.505 180.457 663.109L177.586 681.115L177.023 691.106C174.046 743.871 228.376 780.777 276.331 758.566L289.5 752.467L296.249 749.341C345.646 726.462 351.169 658.429 306.109 627.882L288.863 616.191Z" fill="#C6C6C6"/>
<path d="M288.863 616.191C246.448 587.437 188.527 612.505 180.457 663.109L177.586 681.115L177.023 691.106C174.046 743.871 228.376 780.777 276.331 758.566L289.5 752.467L296.249 749.341C345.646 726.462 351.169 658.429 306.109 627.882L288.863 616.191Z" fill="#D1D1D1"/>
<path d="M360.228 733.29C317.812 704.536 259.891 729.604 251.822 780.208L248.951 798.214L248.387 808.205C245.411 860.97 299.74 897.876 347.695 875.665L360.864 869.566L367.613 866.44C417.01 843.561 422.533 775.528 377.473 744.981L360.228 733.29Z" fill="#C6C6C6"/>
<path d="M360.228 733.29C317.812 704.536 259.891 729.604 251.822 780.208L248.951 798.214L248.387 808.205C245.411 860.97 299.74 897.876 347.695 875.665L360.864 869.566L367.613 866.44C417.01 843.561 422.533 775.528 377.473 744.981L360.228 733.29Z" fill="#C6C6C6"/>
<path d="M360.228 733.29C317.812 704.536 259.891 729.604 251.822 780.208L248.951 798.214L248.387 808.205C245.411 860.97 299.74 897.876 347.695 875.665L360.864 869.566L367.613 866.44C417.01 843.561 422.533 775.528 377.473 744.981L360.228 733.29Z" fill="#C6C6C6"/>
<path d="M360.228 733.29C317.812 704.536 259.891 729.604 251.822 780.208L248.951 798.214L248.387 808.205C245.411 860.97 299.74 897.876 347.695 875.665L360.864 869.566L367.613 866.44C417.01 843.561 422.533 775.528 377.473 744.981L360.228 733.29Z" fill="#D1D1D1"/>
<path d="M430.158 623.976C387.743 595.221 329.822 620.29 321.752 670.894L318.881 688.9L318.318 698.891C315.341 751.655 369.671 788.562 417.626 766.351L430.795 760.251L437.544 757.125C486.941 734.247 492.463 666.214 447.404 635.667L430.158 623.976Z" fill="#C6C6C6"/>
<path d="M430.158 623.976C387.743 595.221 329.822 620.29 321.752 670.894L318.881 688.9L318.318 698.891C315.341 751.655 369.671 788.562 417.626 766.351L430.795 760.251L437.544 757.125C486.941 734.247 492.463 666.214 447.404 635.667L430.158 623.976Z" fill="#C6C6C6"/>
<path d="M430.158 623.976C387.743 595.221 329.822 620.29 321.752 670.894L318.881 688.9L318.318 698.891C315.341 751.655 369.671 788.562 417.626 766.351L430.795 760.251L437.544 757.125C486.941 734.247 492.463 666.214 447.404 635.667L430.158 623.976Z" fill="#C6C6C6"/>
<path d="M430.158 623.976C387.743 595.221 329.822 620.29 321.752 670.894L318.881 688.9L318.318 698.891C315.341 751.655 369.671 788.562 417.626 766.351L430.795 760.251L437.544 757.125C486.941 734.247 492.463 666.214 447.404 635.667L430.158 623.976Z" fill="#C6C6C6"/>
<path d="M325.845 623.218C283.429 594.464 225.508 619.532 217.439 670.136L214.568 688.142L214.004 698.133C211.028 750.898 265.357 787.804 313.312 765.593L326.481 759.494L333.23 756.368C382.627 733.489 388.15 665.456 343.09 634.909L325.845 623.218Z" fill="#C6C6C6"/>
<path d="M325.845 623.218C283.429 594.464 225.508 619.532 217.439 670.136L214.568 688.142L214.004 698.133C211.028 750.898 265.357 787.804 313.312 765.593L326.481 759.494L333.23 756.368C382.627 733.489 388.15 665.456 343.09 634.909L325.845 623.218Z" fill="#C6C6C6"/>
<path d="M325.845 623.218C283.429 594.464 225.508 619.532 217.439 670.136L214.568 688.142L214.004 698.133C211.028 750.898 265.357 787.804 313.312 765.593L326.481 759.494L333.23 756.368C382.627 733.489 388.15 665.456 343.09 634.909L325.845 623.218Z" fill="#C6C6C6"/>
<path d="M325.845 623.218C283.429 594.464 225.508 619.532 217.439 670.136L214.568 688.142L214.004 698.133C211.028 750.898 265.357 787.804 313.312 765.593L326.481 759.494L333.23 756.368C382.627 733.489 388.15 665.456 343.09 634.909L325.845 623.218Z" fill="#C6C6C6"/>
<path d="M416.405 728.002C399.998 678.152 336.599 663.417 299.889 700.922L288.594 712.462L278.655 724.877C245.981 765.687 267.948 826.611 319.147 837.18L334.643 840.379L343.591 842.226C396.301 853.108 441.06 802.912 424.234 751.788L416.405 728.002Z" fill="#C6C6C6"/>
<path d="M416.405 728.002C399.998 678.152 336.599 663.417 299.889 700.922L288.594 712.462L278.655 724.877C245.981 765.687 267.948 826.611 319.147 837.18L334.643 840.379L343.591 842.226C396.301 853.108 441.06 802.912 424.234 751.788L416.405 728.002Z" fill="#C6C6C6"/>
<path d="M416.405 728.002C399.998 678.152 336.599 663.417 299.889 700.922L288.594 712.462L278.655 724.877C245.981 765.687 267.948 826.611 319.147 837.18L334.643 840.379L343.591 842.226C396.301 853.108 441.06 802.912 424.234 751.788L416.405 728.002Z" fill="#C6C6C6"/>
<path d="M416.405 728.002C399.998 678.152 336.599 663.417 299.889 700.922L288.594 712.462L278.655 724.877C245.981 765.687 267.948 826.611 319.147 837.18L334.643 840.379L343.591 842.226C396.301 853.108 441.06 802.912 424.234 751.788L416.405 728.002Z" fill="#C6C6C6"/>
<ellipse cx="351.084" cy="679.451" rx="22.1699" ry="26.5904" transform="rotate(9.85182 351.084 679.451)" fill="#B2B2B2"/>
<ellipse cx="361.557" cy="709.384" rx="43.0794" ry="21.7169" transform="rotate(9.85182 361.557 709.384)" fill="#B2B2B2"/>
<ellipse cx="334.389" cy="701.518" rx="43.0794" ry="21.7169" transform="rotate(9.85182 334.389 701.518)" fill="#B2B2B2"/>
<ellipse cx="332.691" cy="741.127" rx="34.8801" ry="21.7169" transform="rotate(9.85182 332.691 741.127)" fill="#B2B2B2"/>
</g>
<defs>
<clipPath id="clip0_200_36">
<rect width="1440" height="1736" fill="white"/>
</clipPath>
</defs>
</svg>
