<svg width="1440" height="619" viewBox="0 0 1440 619" fill="none" xmlns="http://www.w3.org/2000/svg">
<g clip-path="url(#clip0_211_755)">
<path d="M486.845 349.914C472.724 317.507 502.509 283.216 536.573 292.663L676.18 331.381C704.894 339.344 716.414 373.846 698.243 397.464L631.106 484.727C615.288 505.287 584.8 506.734 567.106 487.766L534.131 452.417C530.879 448.931 528.244 444.917 526.34 440.546L486.845 349.914Z" fill="#C2C2C2"/>
<path d="M486.845 349.914C472.724 317.507 502.509 283.216 536.573 292.663L676.18 331.381C704.894 339.344 716.414 373.846 698.243 397.464L631.106 484.727C615.288 505.287 584.8 506.734 567.106 487.766L534.131 452.417C530.879 448.931 528.244 444.917 526.34 440.546L486.845 349.914Z" fill="#C2C2C2"/>
<path d="M519.203 286.071C488.959 269.287 490.833 225.187 522.391 211.028L659.459 149.531C686.937 137.203 718.078 156.95 718.644 187.061L720.899 306.976C721.389 333.052 698.244 353.265 672.472 349.27L625.207 341.942C620.312 341.183 615.591 339.565 611.26 337.161L519.203 286.071Z" fill="#C2C2C2"/>
<path d="M519.203 286.071C488.959 269.287 490.833 225.187 522.391 211.028L659.459 149.531C686.937 137.203 718.078 156.95 718.644 187.061L720.899 306.976C721.389 333.052 698.244 353.265 672.472 349.27L625.207 341.942C620.312 341.183 615.591 339.565 611.26 337.161L519.203 286.071Z" fill="#C2C2C2"/>
<path d="M530.145 286.277C501.91 306.256 462.98 285.452 463.899 250.876L467.892 100.698C468.692 70.591 499.986 51.087 527.367 63.6287L636.409 113.574C660.12 124.434 668.304 154.053 653.532 175.547L626.442 214.965C623.637 219.047 620.131 222.601 616.088 225.462L530.145 286.277Z" fill="#C2C2C2"/>
<path d="M530.145 286.277C501.91 306.256 462.98 285.452 463.899 250.876L467.892 100.698C468.692 70.591 499.986 51.087 527.367 63.6287L636.409 113.574C660.12 124.434 668.304 154.053 653.532 175.547L626.442 214.965C623.637 219.047 620.131 222.601 616.088 225.462L530.145 286.277Z" fill="#C2C2C2"/>
<path d="M472.498 334.748C445.381 321.94 440.037 285.659 462.311 265.577L509.425 223.099C514.559 218.47 520.757 215.18 527.468 213.521L616.381 191.536C642.599 185.053 668.032 204.643 668.457 231.647L670.497 361.32C670.986 392.416 638.686 413.239 610.565 399.958L472.498 334.748Z" fill="#B3B3B3"/>
<path d="M452.849 319.452C438.572 297.684 447.333 268.305 471.2 257.911L559.114 219.627C587.335 207.337 618.753 228.576 617.866 259.344L613.832 399.306C612.923 430.852 578.849 450.163 551.318 434.736L524.132 419.502C518.246 416.204 513.242 411.537 509.542 405.896L452.849 319.452Z" fill="#CECECE"/>
<path d="M496.952 299.061C466.181 293.982 451.483 258.323 469.739 233.037L524.958 156.55C542.049 132.877 577.483 133.434 593.821 157.633L643.767 231.611C659.672 255.169 648.073 287.392 620.802 295.408L577.52 308.13C571.458 309.912 565.071 310.303 558.837 309.274L496.952 299.061Z" fill="#C3C3C3"/>
<path d="M490.353 330.24C464.076 321.141 453.736 289.479 469.578 266.625L518.109 196.611C537.887 168.079 581.775 174.499 592.552 207.5L624.52 305.388C635.298 338.389 603.658 369.474 570.853 358.115L490.353 330.24Z" fill="#D9D9D9"/>
<path d="M471.506 287.582L321.514 336.566C301.34 343.155 280.351 346.919 259.144 347.753L115.117 353.413" stroke="black" stroke-width="9"/>
<path d="M212.156 322.367L28.2898 382.414C-1.65364 392.193 -29.5076 407.478 -53.8399 427.482L-195.536 543.976" stroke="black" stroke-width="7"/>
<path d="M454.98 303.695C453.629 300.997 454.159 297.736 456.296 295.605L474.964 276.985C479.655 272.307 487.617 276.157 486.862 282.739L481.645 328.221C480.851 335.136 471.548 336.781 468.431 330.558L454.98 303.695Z" fill="#D9D9D9"/>
<path d="M456.061 295.866L456.358 295.1C458.247 290.231 459.008 284.997 458.584 279.792V279.792C457.463 266.041 464.628 252.94 476.811 246.465L480.731 244.381" stroke="black" stroke-width="5"/>
<path d="M454.304 296.441L456.628 306.447C459.314 318.01 465.874 328.307 475.22 335.625V335.625L487.988 344.514" stroke="black" stroke-width="5"/>
</g>
<defs>
<clipPath id="clip0_211_755">
<rect width="1440" height="619" fill="white"/>
</clipPath>
</defs>
</svg>
