<svg width="1440" height="1250" viewBox="0 0 1440 1250" fill="none" xmlns="http://www.w3.org/2000/svg">
<g clip-path="url(#clip0_211_612)">
<path d="M996.792 642.973C1011.23 610.705 981.776 576.126 947.622 585.243L786.483 628.253C757.692 635.937 745.839 670.326 763.779 694.118L839.978 795.174C855.595 815.886 886.068 817.629 903.945 798.834L942.632 758.16C945.918 754.706 948.592 750.717 950.538 746.365L996.792 642.973Z" fill="#C2C2C2"/>
<path d="M996.792 642.973C1011.23 610.705 981.776 576.126 947.622 585.243L786.483 628.253C757.692 635.937 745.839 670.326 763.779 694.118L839.978 795.174C855.595 815.886 886.068 817.629 903.945 798.834L942.632 758.16C945.918 754.706 948.592 750.717 950.538 746.365L996.792 642.973Z" fill="#C2C2C2"/>
<path d="M965.502 577.064C995.907 560.574 994.461 516.457 963.042 501.993L806.525 429.938C779.168 417.343 747.837 436.787 746.978 466.892L743.067 604.084C742.323 630.154 765.271 650.591 791.081 646.846L846.141 638.856C851.043 638.145 855.78 636.572 860.133 634.211L965.502 577.064Z" fill="#C2C2C2"/>
<path d="M965.502 577.064C995.907 560.574 994.461 516.457 963.042 501.993L806.525 429.938C779.168 417.343 747.837 436.787 746.978 466.892L743.067 604.084C742.323 630.154 765.271 650.591 791.081 646.846L846.141 638.856C851.043 638.145 855.78 636.572 860.133 634.211L965.502 577.064Z" fill="#C2C2C2"/>
<path d="M953.32 583.779C981.359 604.031 1020.49 583.606 1019.91 549.022L1017 376.741C1016.49 346.628 985.387 326.821 957.885 339.096L832.556 395.037C808.74 405.667 800.269 435.205 814.831 456.841L845.897 502.997C848.663 507.106 852.133 510.693 856.148 513.593L953.32 583.779Z" fill="#C2C2C2"/>
<path d="M953.32 583.779C981.359 604.031 1020.49 583.606 1019.91 549.022L1017 376.741C1016.49 346.628 985.387 326.821 957.885 339.096L832.556 395.037C808.74 405.667 800.269 435.205 814.831 456.841L845.897 502.997C848.663 507.106 852.133 510.693 856.148 513.593L953.32 583.779Z" fill="#C2C2C2"/>
<path d="M1013.94 630.844C1041.18 618.3 1046.87 582.072 1024.8 561.775L970.615 511.964C965.526 507.285 959.361 503.935 952.666 502.211L852.846 476.499C826.692 469.762 801.07 489.104 800.383 516.103L796.614 664.278C795.823 695.368 827.919 716.504 856.168 703.495L1013.94 630.844Z" fill="#B3B3B3"/>
<path d="M1033.01 613.507C1047.5 591.879 1039.02 562.416 1015.26 551.791L913.376 506.243C885.276 493.68 853.654 514.613 854.242 545.388L857.308 705.813C857.911 737.366 891.796 757.007 919.475 741.848L954.015 722.932C959.932 719.691 964.981 715.073 968.736 709.468L1033.01 613.507Z" fill="#CECECE"/>
<path d="M988.765 593.443C1019.58 588.663 1034.63 553.148 1016.62 527.686L952.624 437.208C935.764 413.371 900.326 413.584 883.755 437.623L824.387 523.742C808.254 547.144 819.54 579.478 846.731 587.759L897.844 603.323C903.889 605.163 910.271 605.617 916.515 604.648L988.765 593.443Z" fill="#C3C3C3"/>
<path d="M994.453 626.467C1020.82 617.623 1031.46 586.063 1015.84 563.056L958.617 478.762C939.117 450.039 895.169 456.033 884.072 488.928L844.704 605.623C833.607 638.518 864.943 669.909 897.858 658.868L994.453 626.467Z" fill="#D9D9D9"/>
<path d="M1011.25 582.15L1174.09 637.086C1194.2 643.87 1215.15 647.838 1236.35 648.877L1393.36 656.575" stroke="black" stroke-width="9"/>
<path d="M1289.46 622.216L1489.67 689.759C1519.52 699.828 1547.22 715.382 1571.36 735.622L1725.05 864.497" stroke="black" stroke-width="7"/>
<path d="M1029 599.296C1030.38 596.61 1029.88 593.345 1027.76 591.193L1006.6 569.672C1001.96 564.948 993.958 568.721 994.649 575.31L1000.12 627.429C1000.84 634.352 1010.13 636.087 1013.31 629.894L1029 599.296Z" fill="#D9D9D9"/>
<path d="M1027.75 591.209L1027.44 590.383C1025.46 585.134 1024.7 579.504 1025.21 573.917V573.917C1026.56 559.159 1019 545.013 1005.98 537.931L1001.79 535.652" stroke="black" stroke-width="5"/>
<path d="M1029.63 591.844L1027.03 602.568C1024.03 614.959 1016.87 625.95 1006.76 633.714V633.714L992.95 643.128" stroke="black" stroke-width="5"/>
<path d="M625.11 406.758C649.804 449.787 710.124 454.284 740.793 415.381L765.63 383.876L776.855 366.086C805.459 320.756 774.502 261.335 720.927 258.734L687.95 257.133L662.595 255.903C607.373 253.222 571.082 312.614 598.621 360.601L625.11 406.758Z" fill="#D9D9D9"/>
<path d="M814.416 290.504L823.356 285.527C872.836 257.979 930.773 249.689 986.053 262.246L1067.29 280.699C1098.54 287.797 1130.91 288.291 1162.34 282.149L1277.19 259.704" stroke="black" stroke-width="9"/>
<path d="M622.738 299.554C647.432 342.583 707.752 347.08 738.421 308.177L763.258 276.672L774.483 258.882C803.087 213.551 772.13 154.131 718.555 151.53L685.578 149.929L660.223 148.698C605 146.018 568.71 205.41 596.249 253.397L622.738 299.554Z" fill="#D9D9D9"/>
<path d="M767.113 485.19C812.619 496.077 855.635 459.36 852.684 412.15L850.232 372.933L849.504 368.682C840.196 314.31 775.444 291.506 734.666 328.24L715.985 345.068L703.654 356.175C661.586 394.071 679.033 464.117 733.803 477.221L767.113 485.19Z" fill="#D9D9D9"/>
<path d="M628.899 280.393C653.132 325.942 716.574 330.624 747.091 289.116L757.743 274.629L763.717 264.494C790.461 219.121 759.327 161.503 706.687 158.948L691.561 158.214L683.402 157.817C629.185 155.186 592.827 212.594 618.34 260.549L628.899 280.393Z" fill="#C6C6C6"/>
<path d="M628.899 280.393C653.132 325.942 716.574 330.624 747.091 289.116L757.743 274.629L763.717 264.494C790.461 219.121 759.327 161.503 706.687 158.948L691.561 158.214L683.402 157.817C629.185 155.186 592.827 212.594 618.34 260.549L628.899 280.393Z" fill="#C6C6C6"/>
<path d="M628.899 280.393C653.132 325.942 716.574 330.624 747.091 289.116L757.743 274.629L763.717 264.494C790.461 219.121 759.327 161.503 706.687 158.948L691.561 158.214L683.402 157.817C629.185 155.186 592.827 212.594 618.34 260.549L628.899 280.393Z" fill="#C6C6C6"/>
<path d="M628.899 280.393C653.132 325.942 716.574 330.624 747.091 289.116L757.743 274.629L763.717 264.494C790.461 219.121 759.327 161.503 706.687 158.948L691.561 158.214L683.402 157.817C629.185 155.186 592.827 212.594 618.34 260.549L628.899 280.393Z" fill="#D1D1D1"/>
<path d="M665.592 220.894C689.825 266.443 753.267 271.125 783.785 229.617L794.436 215.13L800.41 204.995C827.154 159.622 796.021 102.004 743.38 99.4487L728.254 98.7145L720.095 98.3184C665.878 95.6867 629.52 153.095 655.034 201.05L665.592 220.894Z" fill="#C6C6C6"/>
<path d="M665.592 220.894C689.825 266.443 753.267 271.125 783.785 229.617L794.436 215.13L800.41 204.995C827.154 159.622 796.021 102.004 743.38 99.4487L728.254 98.7145L720.095 98.3184C665.878 95.6867 629.52 153.095 655.034 201.05L665.592 220.894Z" fill="#C6C6C6"/>
<path d="M665.592 220.894C689.825 266.443 753.267 271.125 783.785 229.617L794.436 215.13L800.41 204.995C827.154 159.622 796.021 102.004 743.38 99.4487L728.254 98.7145L720.095 98.3184C665.878 95.6867 629.52 153.095 655.034 201.05L665.592 220.894Z" fill="#C6C6C6"/>
<path d="M665.592 220.894C689.825 266.443 753.267 271.125 783.785 229.617L794.436 215.13L800.41 204.995C827.154 159.622 796.021 102.004 743.38 99.4487L728.254 98.7145L720.095 98.3184C665.878 95.6867 629.52 153.095 655.034 201.05L665.592 220.894Z" fill="#D1D1D1"/>
<path d="M684.794 410.698C709.028 456.246 772.469 460.928 802.987 419.421L813.638 404.934L819.612 394.798C846.356 349.426 815.223 291.808 762.582 289.252L747.456 288.518L739.297 288.122C685.08 285.49 648.722 342.899 674.236 390.853L684.794 410.698Z" fill="#C6C6C6"/>
<path d="M684.794 410.698C709.028 456.246 772.469 460.928 802.987 419.421L813.638 404.934L819.612 394.798C846.356 349.426 815.223 291.808 762.582 289.252L747.456 288.518L739.297 288.122C685.08 285.49 648.722 342.899 674.236 390.853L684.794 410.698Z" fill="#C6C6C6"/>
<path d="M684.794 410.698C709.028 456.246 772.469 460.928 802.987 419.421L813.638 404.934L819.612 394.798C846.356 349.426 815.223 291.808 762.582 289.252L747.456 288.518L739.297 288.122C685.08 285.49 648.722 342.899 674.236 390.853L684.794 410.698Z" fill="#C6C6C6"/>
<path d="M684.794 410.698C709.028 456.246 772.469 460.928 802.987 419.421L813.638 404.934L819.612 394.798C846.356 349.426 815.223 291.808 762.582 289.252L747.456 288.518L739.297 288.122C685.08 285.49 648.722 342.899 674.236 390.853L684.794 410.698Z" fill="#D1D1D1"/>
<path d="M792.03 374.935C816.263 420.484 879.705 425.166 910.222 383.658L920.874 369.171L926.848 359.036C953.591 313.663 922.458 256.045 869.817 253.49L854.691 252.755L846.532 252.359C792.315 249.728 755.958 307.136 781.471 355.091L792.03 374.935Z" fill="#C6C6C6"/>
<path d="M792.03 374.935C816.263 420.484 879.705 425.166 910.222 383.658L920.874 369.171L926.848 359.036C953.591 313.663 922.458 256.045 869.817 253.49L854.691 252.755L846.532 252.359C792.315 249.728 755.958 307.136 781.471 355.091L792.03 374.935Z" fill="#C6C6C6"/>
<path d="M792.03 374.935C816.263 420.484 879.705 425.166 910.222 383.658L920.874 369.171L926.848 359.036C953.591 313.663 922.458 256.045 869.817 253.49L854.691 252.755L846.532 252.359C792.315 249.728 755.958 307.136 781.471 355.091L792.03 374.935Z" fill="#C6C6C6"/>
<path d="M792.03 374.935C816.263 420.484 879.705 425.166 910.222 383.658L920.874 369.171L926.848 359.036C953.591 313.663 922.458 256.045 869.817 253.49L854.691 252.755L846.532 252.359C792.315 249.728 755.958 307.136 781.471 355.091L792.03 374.935Z" fill="#D1D1D1"/>
<path d="M808.527 306.775C832.76 352.324 896.202 357.006 926.719 315.498L937.371 301.011L943.345 290.876C970.088 245.503 938.955 187.885 886.314 185.33L871.189 184.595L863.03 184.199C808.813 181.568 772.455 238.976 797.968 286.931L808.527 306.775Z" fill="#C6C6C6"/>
<path d="M808.527 306.775C832.76 352.324 896.202 357.006 926.719 315.498L937.371 301.011L943.345 290.876C970.088 245.503 938.955 187.885 886.314 185.33L871.189 184.595L863.03 184.199C808.813 181.568 772.455 238.976 797.968 286.931L808.527 306.775Z" fill="#C6C6C6"/>
<path d="M808.527 306.775C832.76 352.324 896.202 357.006 926.719 315.498L937.371 301.011L943.345 290.876C970.088 245.503 938.955 187.885 886.314 185.33L871.189 184.595L863.03 184.199C808.813 181.568 772.455 238.976 797.968 286.931L808.527 306.775Z" fill="#C6C6C6"/>
<path d="M808.527 306.775C832.76 352.324 896.202 357.006 926.719 315.498L937.371 301.011L943.345 290.876C970.088 245.503 938.955 187.885 886.314 185.33L871.189 184.595L863.03 184.199C808.813 181.568 772.455 238.976 797.968 286.931L808.527 306.775Z" fill="#D1D1D1"/>
<path d="M683.228 339.903C707.461 385.452 770.903 390.133 801.42 348.626L812.072 334.139L818.046 324.004C844.79 278.631 813.657 221.013 761.016 218.457L745.89 217.723L737.731 217.327C683.514 214.695 647.156 272.104 672.67 320.058L683.228 339.903Z" fill="#C6C6C6"/>
<path d="M683.228 339.903C707.461 385.452 770.903 390.133 801.42 348.626L812.072 334.139L818.046 324.004C844.79 278.631 813.657 221.013 761.016 218.457L745.89 217.723L737.731 217.327C683.514 214.695 647.156 272.104 672.67 320.058L683.228 339.903Z" fill="#C6C6C6"/>
<path d="M683.228 339.903C707.461 385.452 770.903 390.133 801.42 348.626L812.072 334.139L818.046 324.004C844.79 278.631 813.657 221.013 761.016 218.457L745.89 217.723L737.731 217.327C683.514 214.695 647.156 272.104 672.67 320.058L683.228 339.903Z" fill="#C6C6C6"/>
<path d="M683.228 339.903C707.461 385.452 770.903 390.133 801.42 348.626L812.072 334.139L818.046 324.004C844.79 278.631 813.657 221.013 761.016 218.457L745.89 217.723L737.731 217.327C683.514 214.695 647.156 272.104 672.67 320.058L683.228 339.903Z" fill="#C6C6C6"/>
<path d="M762.5 351.304C786.734 396.852 850.175 401.534 880.693 360.026L891.344 345.539L897.318 335.404C924.062 290.031 892.929 232.413 840.288 229.858L825.162 229.124L817.003 228.728C762.786 226.096 726.428 283.505 751.942 331.459L762.5 351.304Z" fill="#C6C6C6"/>
<path d="M762.5 351.304C786.734 396.852 850.175 401.534 880.693 360.026L891.344 345.539L897.318 335.404C924.062 290.031 892.929 232.413 840.288 229.858L825.162 229.124L817.003 228.728C762.786 226.096 726.428 283.505 751.942 331.459L762.5 351.304Z" fill="#C6C6C6"/>
<path d="M762.5 351.304C786.734 396.852 850.175 401.534 880.693 360.026L891.344 345.539L897.318 335.404C924.062 290.031 892.929 232.413 840.288 229.858L825.162 229.124L817.003 228.728C762.786 226.096 726.428 283.505 751.942 331.459L762.5 351.304Z" fill="#C6C6C6"/>
<path d="M762.5 351.304C786.734 396.852 850.175 401.534 880.693 360.026L891.344 345.539L897.318 335.404C924.062 290.031 892.929 232.413 840.288 229.858L825.162 229.124L817.003 228.728C762.786 226.096 726.428 283.505 751.942 331.459L762.5 351.304Z" fill="#C6C6C6"/>
<path d="M771.215 247.901C795.448 293.45 858.89 298.132 889.408 256.624L900.059 242.137L906.033 232.002C932.777 186.629 901.644 129.011 849.003 126.456L833.877 125.721L825.718 125.325C771.501 122.694 735.143 180.102 760.657 228.057L771.215 247.901Z" fill="#C6C6C6"/>
<path d="M771.215 247.901C795.448 293.45 858.89 298.132 889.408 256.624L900.059 242.137L906.033 232.002C932.777 186.629 901.644 129.011 849.003 126.456L833.877 125.721L825.718 125.325C771.501 122.694 735.143 180.102 760.657 228.057L771.215 247.901Z" fill="#C6C6C6"/>
<path d="M771.215 247.901C795.448 293.45 858.89 298.132 889.408 256.624L900.059 242.137L906.033 232.002C932.777 186.629 901.644 129.011 849.003 126.456L833.877 125.721L825.718 125.325C771.501 122.694 735.143 180.102 760.657 228.057L771.215 247.901Z" fill="#C6C6C6"/>
<path d="M771.215 247.901C795.448 293.45 858.89 298.132 889.408 256.624L900.059 242.137L906.033 232.002C932.777 186.629 901.644 129.011 849.003 126.456L833.877 125.721L825.718 125.325C771.501 122.694 735.143 180.102 760.657 228.057L771.215 247.901Z" fill="#C6C6C6"/>
<path d="M696.636 267.766C720.869 313.314 784.311 317.996 814.829 276.488L825.48 262.001L831.454 251.866C858.198 206.493 827.065 148.875 774.424 146.32L759.298 145.586L751.139 145.19C696.922 142.558 660.564 199.966 686.078 247.921L696.636 267.766Z" fill="#C6C6C6"/>
<path d="M696.636 267.766C720.869 313.314 784.311 317.996 814.829 276.488L825.48 262.001L831.454 251.866C858.198 206.493 827.065 148.875 774.424 146.32L759.298 145.586L751.139 145.19C696.922 142.558 660.564 199.966 686.078 247.921L696.636 267.766Z" fill="#C6C6C6"/>
<path d="M696.636 267.766C720.869 313.314 784.311 317.996 814.829 276.488L825.48 262.001L831.454 251.866C858.198 206.493 827.065 148.875 774.424 146.32L759.298 145.586L751.139 145.19C696.922 142.558 660.564 199.966 686.078 247.921L696.636 267.766Z" fill="#C6C6C6"/>
<path d="M696.636 267.766C720.869 313.314 784.311 317.996 814.829 276.488L825.48 262.001L831.454 251.866C858.198 206.493 827.065 148.875 774.424 146.32L759.298 145.586L751.139 145.19C696.922 142.558 660.564 199.966 686.078 247.921L696.636 267.766Z" fill="#C6C6C6"/>
<ellipse cx="43.2756" cy="26.7788" rx="43.2756" ry="26.7788" transform="matrix(-0.790588 -0.612348 0.603404 -0.797435 775.746 340.355)" fill="#B2B2B2"/>
<ellipse cx="43.2756" cy="21.8708" rx="43.2756" ry="21.8708" transform="matrix(-0.790588 -0.612348 0.603404 -0.797435 791.892 301.548)" fill="#B2B2B2"/>
<ellipse cx="43.2756" cy="21.8708" rx="43.2756" ry="21.8708" transform="matrix(-0.790588 -0.612348 0.603404 -0.797435 821.578 332.259)" fill="#B2B2B2"/>
<ellipse cx="43.2756" cy="21.8708" rx="43.2756" ry="21.8708" transform="matrix(-0.790588 -0.612348 0.603404 -0.797435 816.617 288.859)" fill="#B2B2B2"/>
<path d="M1226.32 259.06L1358.4 260.381C1390.29 260.7 1421.83 267.044 1451.37 279.081L1636.97 354.703" stroke="black" stroke-width="7"/>
<path d="M1082.78 246.844C1048.85 287.13 1069.89 349.047 1121.35 360.317L1159.8 368.74L1199.71 373.408C1251.55 379.47 1291.55 328.714 1273.54 279.728L1260 242.905L1248.75 212.304C1230.21 161.876 1164.12 150.27 1129.51 191.364L1082.78 246.844Z" fill="#D9D9D9"/>
<path d="M1257 372.945L1300.26 409.665C1333.21 437.638 1357.62 474.331 1370.67 515.538L1428.14 696.914C1435.33 719.59 1445.99 741.014 1459.74 760.422L1565.5 909.671" stroke="black" stroke-width="9"/>
<path d="M1159.59 207.807C1133.4 249.529 1157.36 304.528 1205.74 313.773L1245.26 321.325L1264.34 322.927C1317.95 327.426 1356.38 272.301 1333.63 223.561L1319.95 194.27L1309.55 171.993C1286.1 121.748 1216.31 117.426 1186.83 164.394L1159.59 207.807Z" fill="#D9D9D9"/>
<path d="M1084.42 456.141C1096.16 501.643 1148.51 522.884 1188.63 498.428L1221.46 478.417L1224.13 476.367C1267.65 442.887 1257.44 374.619 1206.03 355.34L1183.29 346.813L1168.57 341.294C1115.53 321.404 1062.06 369.471 1076.21 424.323L1084.42 456.141Z" fill="#D9D9D9"/>
<path d="M1179.22 204.416C1150.59 246.919 1175.84 304.763 1226.47 312.679L1244.48 315.496L1254.47 316.029C1307.25 318.846 1343.99 264.404 1321.63 216.517L1315.49 203.367L1312.35 196.627C1289.32 147.3 1221.27 141.983 1190.86 187.135L1179.22 204.416Z" fill="#C6C6C6"/>
<path d="M1179.22 204.416C1150.59 246.919 1175.84 304.763 1226.47 312.679L1244.48 315.496L1254.47 316.029C1307.25 318.846 1343.99 264.404 1321.63 216.517L1315.49 203.367L1312.35 196.627C1289.32 147.3 1221.27 141.983 1190.86 187.135L1179.22 204.416Z" fill="#C6C6C6"/>
<path d="M1179.22 204.416C1150.59 246.919 1175.84 304.763 1226.47 312.679L1244.48 315.496L1254.47 316.029C1307.25 318.846 1343.99 264.404 1321.63 216.517L1315.49 203.367L1312.35 196.627C1289.32 147.3 1221.27 141.983 1190.86 187.135L1179.22 204.416Z" fill="#C6C6C6"/>
<path d="M1179.22 204.416C1150.59 246.919 1175.84 304.763 1226.47 312.679L1244.48 315.496L1254.47 316.029C1307.25 318.846 1343.99 264.404 1321.63 216.517L1315.49 203.367L1312.35 196.627C1289.32 147.3 1221.27 141.983 1190.86 187.135L1179.22 204.416Z" fill="#D1D1D1"/>
<path d="M1248.37 209.502C1219.75 252.005 1244.99 309.849 1295.62 317.765L1313.63 320.582L1323.63 321.115C1376.4 323.931 1413.14 269.49 1390.78 221.603L1384.65 208.453L1381.5 201.713C1358.47 152.386 1290.42 147.069 1260.01 192.221L1248.37 209.502Z" fill="#C6C6C6"/>
<path d="M1248.37 209.502C1219.75 252.005 1244.99 309.849 1295.62 317.765L1313.63 320.582L1323.63 321.115C1376.4 323.931 1413.14 269.49 1390.78 221.603L1384.65 208.453L1381.5 201.713C1358.47 152.386 1290.42 147.069 1260.01 192.221L1248.37 209.502Z" fill="#C6C6C6"/>
<path d="M1248.37 209.502C1219.75 252.005 1244.99 309.849 1295.62 317.765L1313.63 320.582L1323.63 321.115C1376.4 323.931 1413.14 269.49 1390.78 221.603L1384.65 208.453L1381.5 201.713C1358.47 152.386 1290.42 147.069 1260.01 192.221L1248.37 209.502Z" fill="#C6C6C6"/>
<path d="M1248.37 209.502C1219.75 252.005 1244.99 309.849 1295.62 317.765L1313.63 320.582L1323.63 321.115C1376.4 323.931 1413.14 269.49 1390.78 221.603L1384.65 208.453L1381.5 201.713C1358.47 152.386 1290.42 147.069 1260.01 192.221L1248.37 209.502Z" fill="#D1D1D1"/>
<path d="M1091.26 313.836C1062.64 356.339 1087.88 414.183 1138.51 422.099L1156.52 424.916L1166.52 425.449C1219.29 428.265 1256.03 373.824 1233.68 325.937L1227.54 312.787L1224.39 306.047C1201.36 256.72 1133.31 251.403 1102.9 296.555L1091.26 313.836Z" fill="#C6C6C6"/>
<path d="M1091.26 313.836C1062.64 356.339 1087.88 414.183 1138.51 422.099L1156.52 424.916L1166.52 425.449C1219.29 428.265 1256.03 373.824 1233.68 325.937L1227.54 312.787L1224.39 306.047C1201.36 256.72 1133.31 251.403 1102.9 296.555L1091.26 313.836Z" fill="#C6C6C6"/>
<path d="M1091.26 313.836C1062.64 356.339 1087.88 414.183 1138.51 422.099L1156.52 424.916L1166.52 425.449C1219.29 428.265 1256.03 373.824 1233.68 325.937L1227.54 312.787L1224.39 306.047C1201.36 256.72 1133.31 251.403 1102.9 296.555L1091.26 313.836Z" fill="#C6C6C6"/>
<path d="M1091.26 313.836C1062.64 356.339 1087.88 414.183 1138.51 422.099L1156.52 424.916L1166.52 425.449C1219.29 428.265 1256.03 373.824 1233.68 325.937L1227.54 312.787L1224.39 306.047C1201.36 256.72 1133.31 251.403 1102.9 296.555L1091.26 313.836Z" fill="#D1D1D1"/>
<path d="M1172.52 392.26C1143.89 434.763 1169.14 492.607 1219.77 500.523L1237.78 503.34L1247.77 503.873C1300.55 506.689 1337.29 452.248 1314.93 404.361L1308.79 391.21L1305.65 384.471C1282.62 335.144 1214.57 329.827 1184.16 374.979L1172.52 392.26Z" fill="#C6C6C6"/>
<path d="M1172.52 392.26C1143.89 434.763 1169.14 492.607 1219.77 500.523L1237.78 503.34L1247.77 503.873C1300.55 506.689 1337.29 452.248 1314.93 404.361L1308.79 391.21L1305.65 384.471C1282.62 335.144 1214.57 329.827 1184.16 374.979L1172.52 392.26Z" fill="#C6C6C6"/>
<path d="M1172.52 392.26C1143.89 434.763 1169.14 492.607 1219.77 500.523L1237.78 503.34L1247.77 503.873C1300.55 506.689 1337.29 452.248 1314.93 404.361L1308.79 391.21L1305.65 384.471C1282.62 335.144 1214.57 329.827 1184.16 374.979L1172.52 392.26Z" fill="#C6C6C6"/>
<path d="M1172.52 392.26C1143.89 434.763 1169.14 492.607 1219.77 500.523L1237.78 503.34L1247.77 503.873C1300.55 506.689 1337.29 452.248 1314.93 404.361L1308.79 391.21L1305.65 384.471C1282.62 335.144 1214.57 329.827 1184.16 374.979L1172.52 392.26Z" fill="#D1D1D1"/>
<path d="M1289.4 320.541C1260.78 363.044 1286.02 420.888 1336.65 428.804L1354.66 431.621L1364.66 432.154C1417.43 434.971 1454.17 380.529 1431.81 332.642L1425.67 319.492L1422.53 312.752C1399.5 263.425 1331.45 258.108 1301.04 303.26L1289.4 320.541Z" fill="#C6C6C6"/>
<path d="M1289.4 320.541C1260.78 363.044 1286.02 420.888 1336.65 428.804L1354.66 431.621L1364.66 432.154C1417.43 434.971 1454.17 380.529 1431.81 332.642L1425.67 319.492L1422.53 312.752C1399.5 263.425 1331.45 258.108 1301.04 303.26L1289.4 320.541Z" fill="#C6C6C6"/>
<path d="M1289.4 320.541C1260.78 363.044 1286.02 420.888 1336.65 428.804L1354.66 431.621L1364.66 432.154C1417.43 434.971 1454.17 380.529 1431.81 332.642L1425.67 319.492L1422.53 312.752C1399.5 263.425 1331.45 258.108 1301.04 303.26L1289.4 320.541Z" fill="#C6C6C6"/>
<path d="M1289.4 320.541C1260.78 363.044 1286.02 420.888 1336.65 428.804L1354.66 431.621L1364.66 432.154C1417.43 434.971 1454.17 380.529 1431.81 332.642L1425.67 319.492L1422.53 312.752C1399.5 263.425 1331.45 258.108 1301.04 303.26L1289.4 320.541Z" fill="#D1D1D1"/>
<path d="M1179.88 250.941C1151.25 293.444 1176.49 351.289 1227.12 359.205L1245.14 362.021L1255.13 362.555C1307.9 365.371 1344.64 310.93 1322.29 263.043L1316.15 249.892L1313 243.153C1289.97 193.825 1221.93 188.509 1191.51 233.661L1179.88 250.941Z" fill="#C6C6C6"/>
<path d="M1179.88 250.941C1151.25 293.444 1176.49 351.289 1227.12 359.205L1245.14 362.021L1255.13 362.555C1307.9 365.371 1344.64 310.93 1322.29 263.043L1316.15 249.892L1313 243.153C1289.97 193.825 1221.93 188.509 1191.51 233.661L1179.88 250.941Z" fill="#C6C6C6"/>
<path d="M1179.88 250.941C1151.25 293.444 1176.49 351.289 1227.12 359.205L1245.14 362.021L1255.13 362.555C1307.9 365.371 1344.64 310.93 1322.29 263.043L1316.15 249.892L1313 243.153C1289.97 193.825 1221.93 188.509 1191.51 233.661L1179.88 250.941Z" fill="#C6C6C6"/>
<path d="M1179.88 250.941C1151.25 293.444 1176.49 351.289 1227.12 359.205L1245.14 362.021L1255.13 362.555C1307.9 365.371 1344.64 310.93 1322.29 263.043L1316.15 249.892L1313 243.153C1289.97 193.825 1221.93 188.509 1191.51 233.661L1179.88 250.941Z" fill="#C6C6C6"/>
<path d="M1179.43 355.257C1150.81 397.76 1176.05 455.604 1226.68 463.52L1244.7 466.337L1254.69 466.87C1307.46 469.686 1344.2 415.245 1321.85 367.358L1315.71 354.207L1312.56 347.468C1289.53 298.141 1221.48 292.824 1191.07 337.976L1179.43 355.257Z" fill="#C6C6C6"/>
<path d="M1179.43 355.257C1150.81 397.76 1176.05 455.604 1226.68 463.52L1244.7 466.337L1254.69 466.87C1307.46 469.686 1344.2 415.245 1321.85 367.358L1315.71 354.207L1312.56 347.468C1289.53 298.141 1221.48 292.824 1191.07 337.976L1179.43 355.257Z" fill="#C6C6C6"/>
<path d="M1179.43 355.257C1150.81 397.76 1176.05 455.604 1226.68 463.52L1244.7 466.337L1254.69 466.87C1307.46 469.686 1344.2 415.245 1321.85 367.358L1315.71 354.207L1312.56 347.468C1289.53 298.141 1221.48 292.824 1191.07 337.976L1179.43 355.257Z" fill="#C6C6C6"/>
<path d="M1179.43 355.257C1150.81 397.76 1176.05 455.604 1226.68 463.52L1244.7 466.337L1254.69 466.87C1307.46 469.686 1344.2 415.245 1321.85 367.358L1315.71 354.207L1312.56 347.468C1289.53 298.141 1221.48 292.824 1191.07 337.976L1179.43 355.257Z" fill="#C6C6C6"/>
<path d="M1283.94 264.38C1234.14 280.938 1219.6 344.381 1257.22 380.977L1268.79 392.238L1281.24 402.139C1322.14 434.689 1383 412.537 1393.42 361.307L1396.57 345.801L1398.39 336.848C1409.11 284.105 1358.78 239.498 1307.71 256.479L1283.94 264.38Z" fill="#C6C6C6"/>
<path d="M1283.94 264.38C1234.14 280.938 1219.6 344.381 1257.22 380.977L1268.79 392.238L1281.24 402.139C1322.14 434.689 1383 412.537 1393.42 361.307L1396.57 345.801L1398.39 336.848C1409.11 284.105 1358.78 239.498 1307.71 256.479L1283.94 264.38Z" fill="#C6C6C6"/>
<path d="M1283.94 264.38C1234.14 280.938 1219.6 344.381 1257.22 380.977L1268.79 392.238L1281.24 402.139C1322.14 434.689 1383 412.537 1393.42 361.307L1396.57 345.801L1398.39 336.848C1409.11 284.105 1358.78 239.498 1307.71 256.479L1283.94 264.38Z" fill="#C6C6C6"/>
<path d="M1283.94 264.38C1234.14 280.938 1219.6 344.381 1257.22 380.977L1268.79 392.238L1281.24 402.139C1322.14 434.689 1383 412.537 1393.42 361.307L1396.57 345.801L1398.39 336.848C1409.11 284.105 1358.78 239.498 1307.71 256.479L1283.94 264.38Z" fill="#C6C6C6"/>
<ellipse cx="1235.59" cy="329.847" rx="22.1699" ry="26.5904" transform="rotate(-80.3218 1235.59 329.847)" fill="#B2B2B2"/>
<ellipse cx="1265.49" cy="319.282" rx="43.0794" ry="21.7169" transform="rotate(-80.3218 1265.49 319.282)" fill="#B2B2B2"/>
<ellipse cx="1257.71" cy="346.476" rx="43.0794" ry="21.7169" transform="rotate(-80.3218 1257.71 346.476)" fill="#B2B2B2"/>
<ellipse cx="1297.32" cy="348.054" rx="34.8801" ry="21.7169" transform="rotate(-80.3218 1297.32 348.054)" fill="#B2B2B2"/>
<path d="M63.2107 358.146C98.2095 363.111 123.313 325.257 105.122 294.948L20.8869 154.6C5.55219 129.05 -30.7722 127.152 -48.687 150.964L-123.379 250.243C-138.974 270.971 -132.236 300.741 -109.235 312.734L-60.4376 338.179C-56.2103 340.383 -51.6386 341.852 -46.9183 342.521L63.2107 358.146Z" fill="#C2C2C2"/>
<path d="M63.2107 358.146C98.2095 363.111 123.313 325.257 105.122 294.948L20.8869 154.6C5.55219 129.05 -30.7722 127.152 -48.687 150.964L-123.379 250.243C-138.974 270.971 -132.236 300.741 -109.235 312.734L-60.4376 338.179C-56.2103 340.383 -51.6386 341.852 -46.9183 342.521L63.2107 358.146Z" fill="#C2C2C2"/>
<path d="M117.662 309.883C141.906 334.553 183.909 320.983 189.136 286.792L214.707 119.548C219.258 89.7765 191.92 65.0317 162.748 72.5185L32.1781 106.028C6.91644 112.512 -6.39076 140.21 4.33474 163.982L26.7617 213.691C28.7986 218.206 31.6179 222.325 35.0894 225.857L117.662 309.883Z" fill="#C2C2C2"/>
<path d="M117.662 309.883C141.906 334.553 183.909 320.983 189.136 286.792L214.707 119.548C219.258 89.7765 191.92 65.0317 162.748 72.5185L32.1781 106.028C6.91644 112.512 -6.39076 140.21 4.33474 163.982L26.7617 213.691C28.7986 218.206 31.6179 222.325 35.0894 225.857L117.662 309.883Z" fill="#C2C2C2"/>
<path d="M108.793 299.938C97.0689 332.479 127.503 364.449 160.582 354.34L322.382 304.892C351.184 296.089 361.634 260.727 342.243 237.683L255.449 134.541C238.657 114.586 207.928 114.599 191.153 134.569L156.077 176.326C152.892 180.119 150.402 184.445 148.723 189.104L108.793 299.938Z" fill="#C2C2C2"/>
<path d="M108.793 299.938C97.0689 332.479 127.503 364.449 160.582 354.34L322.382 304.892C351.184 296.089 361.634 260.727 342.243 237.683L255.449 134.541C238.657 114.586 207.928 114.599 191.153 134.569L156.077 176.326C152.892 180.119 150.402 184.445 148.723 189.104L108.793 299.938Z" fill="#C2C2C2"/>
<path d="M79.8913 370.803C99.4682 393.521 135.861 388.993 149.273 362.17L181.547 297.626C184.639 291.443 186.157 284.593 185.966 277.683L183.164 176.266C182.418 149.268 156.753 129.982 130.614 136.776L-10.3077 173.405C-40.4072 181.228 -51.8603 217.912 -31.5586 241.471L79.8913 370.803Z" fill="#B3B3B3"/>
<path d="M101.546 384.534C126.334 392.487 152.311 376.206 155.962 350.431L171.299 242.132C175.616 211.656 146.766 187.042 117.349 196.104L-33.235 242.493C-63.395 251.784 -72.9173 289.774 -50.7054 312.192L-23.8052 339.343C-19.0569 344.135 -13.2241 347.713 -6.80023 349.774L101.546 384.534Z" fill="#CECECE"/>
<path d="M108.73 336.486C121.832 364.787 160.12 369.44 179.62 345.102L247.457 260.432C265.713 237.646 255.724 203.645 228.044 194.354L130.936 161.76C103.989 152.715 76.0279 172.49 75.577 200.911L74.7481 253.159C74.6478 259.477 75.9745 265.736 78.6293 271.47L108.73 336.486Z" fill="#C3C3C3"/>
<path d="M78.825 351.082C94.6035 373.98 127.877 375.5 145.677 354.136L209.385 277.671C231.607 250.999 213.713 210.414 179.033 208.83L58.8522 203.342C24.1719 201.758 2.6533 240.543 22.3521 269.13L78.825 351.082Z" fill="#D9D9D9"/>
<path d="M125.902 355.396L118.152 525.093C117.184 546.293 119.155 567.526 124.008 588.186L159.538 739.424" stroke="black" stroke-width="9"/>
<path d="M163.831 631.136L157.274 774.707C154.001 846.38 120.45 913.292 64.9733 958.79L-125.5 1115" stroke="black" stroke-width="7"/>
<path d="M114.389 376.971C117.35 377.553 120.351 376.172 121.835 373.545L136.412 347.733C139.67 341.964 133.835 335.318 127.693 337.801L79.9764 357.094C73.5234 359.703 74.4197 369.109 81.2493 370.452L114.389 376.971Z" fill="#D9D9D9"/>
<path d="M121.791 373.579L122.492 373.057C126.948 369.739 132.097 367.474 137.554 366.432V366.432C151.969 363.68 163.366 352.618 166.547 338.291L167.571 333.681" stroke="black" stroke-width="5"/>
<path d="M121.702 375.544L110.785 376.001C98.1689 376.529 85.7524 372.725 75.5978 365.22V365.22L62.8633 354.653" stroke="black" stroke-width="5"/>
<path d="M371.66 327.57C322.466 325.053 286.128 372.785 301.648 419.535L314.326 457.722L322.231 475.161C344.439 524.153 411.309 530.831 442.768 487.199L461.672 460.978L476.05 441.036C508.48 396.056 478.225 333.023 422.846 330.189L371.66 327.57Z" fill="#D9D9D9"/>
<path d="M365.071 548.986L364.272 559.809C360.139 615.771 335.69 668.291 295.529 707.481L234.926 766.618C212.254 788.742 194.397 815.311 182.473 844.659L138.246 953.518" stroke="black" stroke-width="9"/>
<path d="M461.757 383.413C412.563 380.896 376.225 428.628 391.746 475.377L404.424 513.564L412.329 531.004C434.537 579.996 501.407 586.674 532.865 543.042L551.77 516.821L566.148 496.879C598.578 451.899 568.323 388.865 512.944 386.032L461.757 383.413Z" fill="#D9D9D9"/>
<path d="M229.885 404.032C195.883 436.467 202.863 492.529 243.781 515.636L277.26 534.542L280.35 535.87C330.801 557.543 385.425 515.34 377.188 461.052L373.544 437.041L371.186 421.501C362.688 365.495 294.652 342.251 253.662 381.352L229.885 404.032Z" fill="#D9D9D9"/>
<path d="M474.281 398.903C423.216 394.636 385.023 444.881 402.798 492.942L409.123 510.044L413.53 519.028C436.804 566.476 502.25 572.007 533.157 529.139L541.645 517.367L545.995 511.334C577.832 467.176 549.293 405.172 495.044 400.639L474.281 398.903Z" fill="#C6C6C6"/>
<path d="M474.281 398.903C423.216 394.636 385.023 444.881 402.798 492.942L409.123 510.044L413.53 519.028C436.804 566.476 502.25 572.007 533.157 529.139L541.645 517.367L545.995 511.334C577.832 467.176 549.293 405.172 495.044 400.639L474.281 398.903Z" fill="#C6C6C6"/>
<path d="M474.281 398.903C423.216 394.636 385.023 444.881 402.798 492.942L409.123 510.044L413.53 519.028C436.804 566.476 502.25 572.007 533.157 529.139L541.645 517.367L545.995 511.334C577.832 467.176 549.293 405.172 495.044 400.639L474.281 398.903Z" fill="#C6C6C6"/>
<path d="M474.281 398.903C423.216 394.636 385.023 444.881 402.798 492.942L409.123 510.044L413.53 519.028C436.804 566.476 502.25 572.007 533.157 529.139L541.645 517.367L545.995 511.334C577.832 467.176 549.293 405.172 495.044 400.639L474.281 398.903Z" fill="#D1D1D1"/>
<path d="M503.561 461.759C452.495 457.491 414.302 507.736 432.078 555.798L438.403 572.899L442.809 581.883C466.083 629.331 531.529 634.863 562.437 591.994L570.924 580.222L575.274 574.189C607.111 530.031 578.572 468.028 524.323 463.494L503.561 461.759Z" fill="#C6C6C6"/>
<path d="M503.561 461.759C452.495 457.491 414.302 507.736 432.078 555.798L438.403 572.899L442.809 581.883C466.083 629.331 531.529 634.863 562.437 591.994L570.924 580.222L575.274 574.189C607.111 530.031 578.572 468.028 524.323 463.494L503.561 461.759Z" fill="#C6C6C6"/>
<path d="M503.561 461.759C452.495 457.491 414.302 507.736 432.078 555.798L438.403 572.899L442.809 581.883C466.083 629.331 531.529 634.863 562.437 591.994L570.924 580.222L575.274 574.189C607.111 530.031 578.572 468.028 524.323 463.494L503.561 461.759Z" fill="#C6C6C6"/>
<path d="M503.561 461.759C452.495 457.491 414.302 507.736 432.078 555.798L438.403 572.899L442.809 581.883C466.083 629.331 531.529 634.863 562.437 591.994L570.924 580.222L575.274 574.189C607.111 530.031 578.572 468.028 524.323 463.494L503.561 461.759Z" fill="#D1D1D1"/>
<path d="M335.863 375.465C284.798 371.198 246.605 421.442 264.38 469.504L270.705 486.605L275.112 495.589C298.386 543.037 363.832 548.569 394.739 505.7L403.227 493.928L407.577 487.895C439.414 443.737 410.875 381.734 356.626 377.2L335.863 375.465Z" fill="#C6C6C6"/>
<path d="M335.863 375.465C284.798 371.198 246.605 421.442 264.38 469.504L270.705 486.605L275.112 495.589C298.386 543.037 363.832 548.569 394.739 505.7L403.227 493.928L407.577 487.895C439.414 443.737 410.875 381.734 356.626 377.2L335.863 375.465Z" fill="#C6C6C6"/>
<path d="M335.863 375.465C284.798 371.198 246.605 421.442 264.38 469.504L270.705 486.605L275.112 495.589C298.386 543.037 363.832 548.569 394.739 505.7L403.227 493.928L407.577 487.895C439.414 443.737 410.875 381.734 356.626 377.2L335.863 375.465Z" fill="#C6C6C6"/>
<path d="M335.863 375.465C284.798 371.198 246.605 421.442 264.38 469.504L270.705 486.605L275.112 495.589C298.386 543.037 363.832 548.569 394.739 505.7L403.227 493.928L407.577 487.895C439.414 443.737 410.875 381.734 356.626 377.2L335.863 375.465Z" fill="#D1D1D1"/>
<path d="M307.016 484.648C255.95 480.38 217.757 530.625 235.533 578.687L241.858 595.788L246.264 604.772C269.538 652.22 334.984 657.751 365.892 614.883L374.38 603.111L378.729 597.078C410.566 552.92 382.027 490.916 327.778 486.383L307.016 484.648Z" fill="#C6C6C6"/>
<path d="M307.016 484.648C255.95 480.38 217.757 530.625 235.533 578.687L241.858 595.788L246.264 604.772C269.538 652.22 334.984 657.751 365.892 614.883L374.38 603.111L378.729 597.078C410.566 552.92 382.027 490.916 327.778 486.383L307.016 484.648Z" fill="#C6C6C6"/>
<path d="M307.016 484.648C255.95 480.38 217.757 530.625 235.533 578.687L241.858 595.788L246.264 604.772C269.538 652.22 334.984 657.751 365.892 614.883L374.38 603.111L378.729 597.078C410.566 552.92 382.027 490.916 327.778 486.383L307.016 484.648Z" fill="#C6C6C6"/>
<path d="M307.016 484.648C255.95 480.38 217.757 530.625 235.533 578.687L241.858 595.788L246.264 604.772C269.538 652.22 334.984 657.751 365.892 614.883L374.38 603.111L378.729 597.078C410.566 552.92 382.027 490.916 327.778 486.383L307.016 484.648Z" fill="#D1D1D1"/>
<path d="M354.481 535.244C303.415 530.977 265.222 581.221 282.998 629.283L289.322 646.384L293.729 655.369C317.003 702.816 382.449 708.348 413.357 665.48L421.844 653.707L426.194 647.674C458.031 603.517 429.492 541.513 375.243 536.979L354.481 535.244Z" fill="#C6C6C6"/>
<path d="M354.481 535.244C303.415 530.977 265.222 581.221 282.998 629.283L289.322 646.384L293.729 655.369C317.003 702.816 382.449 708.348 413.357 665.48L421.844 653.707L426.194 647.674C458.031 603.517 429.492 541.513 375.243 536.979L354.481 535.244Z" fill="#C6C6C6"/>
<path d="M354.481 535.244C303.415 530.977 265.222 581.221 282.998 629.283L289.322 646.384L293.729 655.369C317.003 702.816 382.449 708.348 413.357 665.48L421.844 653.707L426.194 647.674C458.031 603.517 429.492 541.513 375.243 536.979L354.481 535.244Z" fill="#C6C6C6"/>
<path d="M354.481 535.244C303.415 530.977 265.222 581.221 282.998 629.283L289.322 646.384L293.729 655.369C317.003 702.816 382.449 708.348 413.357 665.48L421.844 653.707L426.194 647.674C458.031 603.517 429.492 541.513 375.243 536.979L354.481 535.244Z" fill="#D1D1D1"/>
<path d="M395.361 412.343C344.296 408.075 306.103 458.32 323.878 506.382L330.203 523.483L334.61 532.467C357.884 579.915 423.33 585.447 454.238 542.578L462.725 530.806L467.075 524.773C498.912 480.615 470.373 418.611 416.124 414.078L395.361 412.343Z" fill="#C6C6C6"/>
<path d="M395.361 412.343C344.296 408.075 306.103 458.32 323.878 506.382L330.203 523.483L334.61 532.467C357.884 579.915 423.33 585.447 454.238 542.578L462.725 530.806L467.075 524.773C498.912 480.615 470.373 418.611 416.124 414.078L395.361 412.343Z" fill="#C6C6C6"/>
<path d="M395.361 412.343C344.296 408.075 306.103 458.32 323.878 506.382L330.203 523.483L334.61 532.467C357.884 579.915 423.33 585.447 454.238 542.578L462.725 530.806L467.075 524.773C498.912 480.615 470.373 418.611 416.124 414.078L395.361 412.343Z" fill="#C6C6C6"/>
<path d="M395.361 412.343C344.296 408.075 306.103 458.32 323.878 506.382L330.203 523.483L334.61 532.467C357.884 579.915 423.33 585.447 454.238 542.578L462.725 530.806L467.075 524.773C498.912 480.615 470.373 418.611 416.124 414.078L395.361 412.343Z" fill="#C6C6C6"/>
<path d="M342.693 472.642C291.627 468.374 253.434 518.619 271.209 566.681L277.534 583.782L281.941 592.766C305.215 640.214 370.661 645.746 401.569 602.877L410.056 591.105L414.406 585.072C446.243 540.914 417.704 478.91 363.455 474.377L342.693 472.642Z" fill="#C6C6C6"/>
<path d="M342.693 472.642C291.627 468.374 253.434 518.619 271.209 566.681L277.534 583.782L281.941 592.766C305.215 640.214 370.661 645.746 401.569 602.877L410.056 591.105L414.406 585.072C446.243 540.914 417.704 478.91 363.455 474.377L342.693 472.642Z" fill="#C6C6C6"/>
<path d="M342.693 472.642C291.627 468.374 253.434 518.619 271.209 566.681L277.534 583.782L281.941 592.766C305.215 640.214 370.661 645.746 401.569 602.877L410.056 591.105L414.406 585.072C446.243 540.914 417.704 478.91 363.455 474.377L342.693 472.642Z" fill="#C6C6C6"/>
<path d="M342.693 472.642C291.627 468.374 253.434 518.619 271.209 566.681L277.534 583.782L281.941 592.766C305.215 640.214 370.661 645.746 401.569 602.877L410.056 591.105L414.406 585.072C446.243 540.914 417.704 478.91 363.455 474.377L342.693 472.642Z" fill="#C6C6C6"/>
<path d="M423.595 535.728C372.529 531.46 334.336 581.705 352.112 629.767L358.437 646.868L362.844 655.852C386.117 703.3 451.563 708.832 482.471 665.963L490.959 654.191L495.308 648.158C527.146 604 498.606 541.996 444.357 537.463L423.595 535.728Z" fill="#C6C6C6"/>
<path d="M423.595 535.728C372.529 531.46 334.336 581.705 352.112 629.767L358.437 646.868L362.844 655.852C386.117 703.3 451.563 708.832 482.471 665.963L490.959 654.191L495.308 648.158C527.146 604 498.606 541.996 444.357 537.463L423.595 535.728Z" fill="#C6C6C6"/>
<path d="M423.595 535.728C372.529 531.46 334.336 581.705 352.112 629.767L358.437 646.868L362.844 655.852C386.117 703.3 451.563 708.832 482.471 665.963L490.959 654.191L495.308 648.158C527.146 604 498.606 541.996 444.357 537.463L423.595 535.728Z" fill="#C6C6C6"/>
<path d="M423.595 535.728C372.529 531.46 334.336 581.705 352.112 629.767L358.437 646.868L362.844 655.852C386.117 703.3 451.563 708.832 482.471 665.963L490.959 654.191L495.308 648.158C527.146 604 498.606 541.996 444.357 537.463L423.595 535.728Z" fill="#C6C6C6"/>
<path d="M447.808 462.497C396.742 458.23 358.549 508.474 376.325 556.536L382.65 573.637L387.056 582.621C410.33 630.069 475.776 635.601 506.684 592.733L515.172 580.96L519.521 574.927C551.358 530.77 522.819 468.766 468.57 464.232L447.808 462.497Z" fill="#C6C6C6"/>
<path d="M447.808 462.497C396.742 458.23 358.549 508.474 376.325 556.536L382.65 573.637L387.056 582.621C410.33 630.069 475.776 635.601 506.684 592.733L515.172 580.96L519.521 574.927C551.358 530.77 522.819 468.766 468.57 464.232L447.808 462.497Z" fill="#C6C6C6"/>
<path d="M447.808 462.497C396.742 458.23 358.549 508.474 376.325 556.536L382.65 573.637L387.056 582.621C410.33 630.069 475.776 635.601 506.684 592.733L515.172 580.96L519.521 574.927C551.358 530.77 522.819 468.766 468.57 464.232L447.808 462.497Z" fill="#C6C6C6"/>
<path d="M447.808 462.497C396.742 458.23 358.549 508.474 376.325 556.536L382.65 573.637L387.056 582.621C410.33 630.069 475.776 635.601 506.684 592.733L515.172 580.96L519.521 574.927C551.358 530.77 522.819 468.766 468.57 464.232L447.808 462.497Z" fill="#C6C6C6"/>
<ellipse cx="394.347" cy="500.359" rx="43.0794" ry="26.5904" transform="rotate(-19.5052 394.347 500.359)" fill="#B2B2B2"/>
<ellipse cx="416.063" cy="530.234" rx="43.0794" ry="21.7169" transform="rotate(-19.5052 416.063 530.234)" fill="#B2B2B2"/>
<ellipse cx="374.435" cy="538.552" rx="43.0794" ry="21.7169" transform="rotate(-19.5052 374.435 538.552)" fill="#B2B2B2"/>
<ellipse cx="413.092" cy="557.805" rx="43.0794" ry="21.7169" transform="rotate(-19.5052 413.092 557.805)" fill="#B2B2B2"/>
<path d="M159 912.138L-7.93817 1039.67C-22.2716 1050.62 -37.735 1060 -54.0644 1067.66L-443 1250.14" stroke="black" stroke-width="7"/>
<path d="M-3.30766 469.035C-54.8395 479.932 -76.3296 541.694 -42.6921 582.225L-17.5513 612.518L11.0445 640.743C48.1903 677.406 110.949 661.989 126.878 612.286L138.851 574.926L148.802 543.878C165.199 492.713 120.226 442.914 67.6596 454.029L-3.30766 469.035Z" fill="#D9D9D9"/>
<path d="M56.5039 675.615L68.0286 731.174C76.8082 773.499 73.4829 817.441 58.4341 857.962L-7.80486 1036.32C-16.0861 1058.62 -20.8582 1082.07 -21.9507 1105.83L-30.3526 1288.56" stroke="black" stroke-width="9"/>
<path d="M81.2676 485.485C34.9601 502.278 20.0211 560.378 52.4849 597.425L79.0029 627.687L93.0624 640.685C132.56 677.2 196.771 657.374 208.807 604.948L216.04 573.442L221.54 549.481C233.948 495.435 181.58 449.107 129.451 468.012L81.2676 485.485Z" fill="#D9D9D9"/>
<path d="M-130.742 635.072C-149.472 678.169 -121.26 727.115 -74.5794 732.51L-36.3854 736.924L-33.0218 736.947C21.8863 737.317 55.8227 677.207 27.1412 630.384L14.4557 609.675L6.24569 596.272C-23.3439 547.967 -95.0663 552.982 -117.645 604.935L-130.742 635.072Z" fill="#D9D9D9"/>
<path d="M98.8265 494.893C50.1143 510.8 34.442 571.936 69.4937 609.316L81.9657 622.617L89.5168 629.183C129.396 663.862 191.85 643.532 203.675 592.024L206.922 577.879L208.587 570.63C220.767 517.572 170.381 471.526 118.632 488.425L98.8265 494.893Z" fill="#C6C6C6"/>
<path d="M98.8265 494.893C50.1143 510.8 34.442 571.936 69.4937 609.316L81.9657 622.617L89.5168 629.183C129.396 663.862 191.85 643.532 203.675 592.024L206.922 577.879L208.587 570.63C220.767 517.572 170.381 471.526 118.632 488.425L98.8265 494.893Z" fill="#C6C6C6"/>
<path d="M98.8265 494.893C50.1143 510.8 34.442 571.936 69.4937 609.316L81.9657 622.617L89.5168 629.183C129.396 663.862 191.85 643.532 203.675 592.024L206.922 577.879L208.587 570.63C220.767 517.572 170.381 471.526 118.632 488.425L98.8265 494.893Z" fill="#C6C6C6"/>
<path d="M98.8265 494.893C50.1143 510.8 34.442 571.936 69.4937 609.316L81.9657 622.617L89.5168 629.183C129.396 663.862 191.85 643.532 203.675 592.024L206.922 577.879L208.587 570.63C220.767 517.572 170.381 471.526 118.632 488.425L98.8265 494.893Z" fill="#D1D1D1"/>
<path d="M150.226 541.435C101.514 557.342 85.8414 618.478 120.893 655.858L133.365 669.159L140.916 675.725C180.796 710.404 243.25 690.074 255.075 638.566L258.322 624.421L259.986 617.172C272.167 564.114 221.78 518.068 170.031 534.967L150.226 541.435Z" fill="#C6C6C6"/>
<path d="M150.226 541.435C101.514 557.342 85.8414 618.478 120.893 655.858L133.365 669.159L140.916 675.725C180.796 710.404 243.25 690.074 255.075 638.566L258.322 624.421L259.986 617.172C272.167 564.114 221.78 518.068 170.031 534.967L150.226 541.435Z" fill="#C6C6C6"/>
<path d="M150.226 541.435C101.514 557.342 85.8414 618.478 120.893 655.858L133.365 669.159L140.916 675.725C180.796 710.404 243.25 690.074 255.075 638.566L258.322 624.421L259.986 617.172C272.167 564.114 221.78 518.068 170.031 534.967L150.226 541.435Z" fill="#C6C6C6"/>
<path d="M150.226 541.435C101.514 557.342 85.8414 618.478 120.893 655.858L133.365 669.159L140.916 675.725C180.796 710.404 243.25 690.074 255.075 638.566L258.322 624.421L259.986 617.172C272.167 564.114 221.78 518.068 170.031 534.967L150.226 541.435Z" fill="#D1D1D1"/>
<path d="M-37.8239 527.072C-86.5361 542.98 -102.208 604.116 -67.1566 641.496L-54.6846 654.796L-47.1336 661.363C-7.25408 696.041 55.1999 675.712 67.0248 624.203L70.2721 610.058L71.9362 602.809C84.1168 549.751 33.7301 503.706 -18.0186 520.605L-37.8239 527.072Z" fill="#C6C6C6"/>
<path d="M-37.8239 527.072C-86.5361 542.98 -102.208 604.116 -67.1566 641.496L-54.6846 654.796L-47.1336 661.363C-7.25408 696.041 55.1999 675.712 67.0248 624.203L70.2721 610.058L71.9362 602.809C84.1168 549.751 33.7301 503.706 -18.0186 520.605L-37.8239 527.072Z" fill="#C6C6C6"/>
<path d="M-37.8239 527.072C-86.5361 542.98 -102.208 604.116 -67.1566 641.496L-54.6846 654.796L-47.1336 661.363C-7.25408 696.041 55.1999 675.712 67.0248 624.203L70.2721 610.058L71.9362 602.809C84.1168 549.751 33.7301 503.706 -18.0186 520.605L-37.8239 527.072Z" fill="#C6C6C6"/>
<path d="M-37.8239 527.072C-86.5361 542.98 -102.208 604.116 -67.1566 641.496L-54.6846 654.796L-47.1336 661.363C-7.25408 696.041 55.1999 675.712 67.0248 624.203L70.2721 610.058L71.9362 602.809C84.1168 549.751 33.7301 503.706 -18.0186 520.605L-37.8239 527.072Z" fill="#D1D1D1"/>
<path d="M-21.987 638.886C-70.6991 654.793 -86.3715 715.929 -51.3197 753.309L-38.8477 766.61L-31.2967 773.176C8.58283 807.855 71.0368 787.526 82.8617 736.017L86.109 721.872L87.7731 714.623C99.9537 661.565 49.5671 615.52 -2.18172 632.418L-21.987 638.886Z" fill="#C6C6C6"/>
<path d="M-21.987 638.886C-70.6991 654.793 -86.3715 715.929 -51.3197 753.309L-38.8477 766.61L-31.2967 773.176C8.58283 807.855 71.0368 787.526 82.8617 736.017L86.109 721.872L87.7731 714.623C99.9537 661.565 49.5671 615.52 -2.18172 632.418L-21.987 638.886Z" fill="#C6C6C6"/>
<path d="M-21.987 638.886C-70.6991 654.793 -86.3715 715.929 -51.3197 753.309L-38.8477 766.61L-31.2967 773.176C8.58283 807.855 71.0368 787.526 82.8617 736.017L86.109 721.872L87.7731 714.623C99.9537 661.565 49.5671 615.52 -2.18172 632.418L-21.987 638.886Z" fill="#C6C6C6"/>
<path d="M-21.987 638.886C-70.6991 654.793 -86.3715 715.929 -51.3197 753.309L-38.8477 766.61L-31.2967 773.176C8.58283 807.855 71.0368 787.526 82.8617 736.017L86.109 721.872L87.7731 714.623C99.9537 661.565 49.5671 615.52 -2.18172 632.418L-21.987 638.886Z" fill="#D1D1D1"/>
<path d="M114.283 654.223C65.5714 670.13 49.899 731.266 84.9508 768.646L97.4228 781.947L104.974 788.513C144.853 823.192 207.307 802.863 219.132 751.354L222.379 737.209L224.044 729.96C236.224 676.902 185.838 630.856 134.089 647.755L114.283 654.223Z" fill="#C6C6C6"/>
<path d="M114.283 654.223C65.5714 670.13 49.899 731.266 84.9508 768.646L97.4228 781.947L104.974 788.513C144.853 823.192 207.307 802.863 219.132 751.354L222.379 737.209L224.044 729.96C236.224 676.902 185.838 630.856 134.089 647.755L114.283 654.223Z" fill="#C6C6C6"/>
<path d="M114.283 654.223C65.5714 670.13 49.899 731.266 84.9508 768.646L97.4228 781.947L104.974 788.513C144.853 823.192 207.307 802.863 219.132 751.354L222.379 737.209L224.044 729.96C236.224 676.902 185.838 630.856 134.089 647.755L114.283 654.223Z" fill="#C6C6C6"/>
<path d="M114.283 654.223C65.5714 670.13 49.899 731.266 84.9508 768.646L97.4228 781.947L104.974 788.513C144.853 823.192 207.307 802.863 219.132 751.354L222.379 737.209L224.044 729.96C236.224 676.902 185.838 630.856 134.089 647.755L114.283 654.223Z" fill="#D1D1D1"/>
<path d="M70.7298 531.982C22.0177 547.889 6.34527 609.025 41.3971 646.405L53.8691 659.706L61.4201 666.272C101.3 700.951 163.754 680.621 175.578 629.113L178.826 614.968L180.49 607.719C192.67 554.661 142.284 508.615 90.5351 525.514L70.7298 531.982Z" fill="#C6C6C6"/>
<path d="M70.7298 531.982C22.0177 547.889 6.34527 609.025 41.3971 646.405L53.8691 659.706L61.4201 666.272C101.3 700.951 163.754 680.621 175.578 629.113L178.826 614.968L180.49 607.719C192.67 554.661 142.284 508.615 90.5351 525.514L70.7298 531.982Z" fill="#C6C6C6"/>
<path d="M70.7298 531.982C22.0177 547.889 6.34527 609.025 41.3971 646.405L53.8691 659.706L61.4201 666.272C101.3 700.951 163.754 680.621 175.578 629.113L178.826 614.968L180.49 607.719C192.67 554.661 142.284 508.615 90.5351 525.514L70.7298 531.982Z" fill="#C6C6C6"/>
<path d="M70.7298 531.982C22.0177 547.889 6.34527 609.025 41.3971 646.405L53.8691 659.706L61.4201 666.272C101.3 700.951 163.754 680.621 175.578 629.113L178.826 614.968L180.49 607.719C192.67 554.661 142.284 508.615 90.5351 525.514L70.7298 531.982Z" fill="#C6C6C6"/>
<path d="M6.22295 613.962C-42.4892 629.869 -58.1616 691.005 -23.1098 728.386L-10.6378 741.686L-3.08671 748.252C36.7928 782.931 99.2468 762.602 111.072 711.093L114.319 696.948L115.983 689.699C128.164 636.641 77.777 590.596 26.0282 607.495L6.22295 613.962Z" fill="#C6C6C6"/>
<path d="M6.22295 613.962C-42.4892 629.869 -58.1616 691.005 -23.1098 728.386L-10.6378 741.686L-3.08671 748.252C36.7928 782.931 99.2468 762.602 111.072 711.093L114.319 696.948L115.983 689.699C128.164 636.641 77.777 590.596 26.0282 607.495L6.22295 613.962Z" fill="#C6C6C6"/>
<path d="M6.22295 613.962C-42.4892 629.869 -58.1616 691.005 -23.1098 728.386L-10.6378 741.686L-3.08671 748.252C36.7928 782.931 99.2468 762.602 111.072 711.093L114.319 696.948L115.983 689.699C128.164 636.641 77.777 590.596 26.0282 607.495L6.22295 613.962Z" fill="#C6C6C6"/>
<path d="M6.22295 613.962C-42.4892 629.869 -58.1616 691.005 -23.1098 728.386L-10.6378 741.686L-3.08671 748.252C36.7928 782.931 99.2468 762.602 111.072 711.093L114.319 696.948L115.983 689.699C128.164 636.641 77.777 590.596 26.0282 607.495L6.22295 613.962Z" fill="#C6C6C6"/>
<path d="M144.522 606.582C95.0705 589.009 44.5836 630.089 51.7357 682.081L53.9364 698.079L57.6588 713.539C69.8961 764.366 131.506 784.329 171.226 750.339L183.248 740.051L190.19 734.111C231.083 699.117 218.832 632.989 168.117 614.967L144.522 606.582Z" fill="#C6C6C6"/>
<path d="M144.522 606.582C95.0705 589.009 44.5836 630.089 51.7357 682.081L53.9364 698.079L57.6588 713.539C69.8961 764.366 131.506 784.329 171.226 750.339L183.248 740.051L190.19 734.111C231.083 699.117 218.832 632.989 168.117 614.967L144.522 606.582Z" fill="#C6C6C6"/>
<path d="M144.522 606.582C95.0705 589.009 44.5836 630.089 51.7357 682.081L53.9364 698.079L57.6588 713.539C69.8961 764.366 131.506 784.329 171.226 750.339L183.248 740.051L190.19 734.111C231.083 699.117 218.832 632.989 168.117 614.967L144.522 606.582Z" fill="#C6C6C6"/>
<path d="M144.522 606.582C95.0705 589.009 44.5836 630.089 51.7357 682.081L53.9364 698.079L57.6588 713.539C69.8961 764.366 131.506 784.329 171.226 750.339L183.248 740.051L190.19 734.111C231.083 699.117 218.832 632.989 168.117 614.967L144.522 606.582Z" fill="#C6C6C6"/>
<ellipse cx="66.1298" cy="628.465" rx="22.1699" ry="26.5904" transform="rotate(-42.3669 66.1298 628.465)" fill="#B2B2B2"/>
<ellipse cx="96.2047" cy="638.526" rx="43.0794" ry="21.7169" transform="rotate(-42.3669 96.2047 638.526)" fill="#B2B2B2"/>
<ellipse cx="73.3424" cy="655.179" rx="43.0794" ry="21.7169" transform="rotate(-42.3669 73.3424 655.179)" fill="#B2B2B2"/>
<ellipse cx="103.608" cy="680.789" rx="34.8801" ry="21.7169" transform="rotate(-42.3669 103.608 680.789)" fill="#B2B2B2"/>
</g>
<defs>
<clipPath id="clip0_211_612">
<rect width="1440" height="1250" fill="white"/>
</clipPath>
</defs>
</svg>
