<svg width="1440" height="534" viewBox="0 0 1440 534" fill="none" xmlns="http://www.w3.org/2000/svg">
<g clip-path="url(#clip0_203_2)">
<path d="M976.694 384.109C1009.75 425.119 1074.54 416.31 1095.45 367.965L1111.07 331.831L1123.29 293.554C1139.15 243.832 1096.99 194.859 1045.46 203.165L1006.73 209.409L974.539 214.598C921.495 223.148 897.462 285.798 931.177 327.631L976.694 384.109Z" fill="#D9D9D9"/>
<path d="M1133.79 237.231L1178.11 201.796C1211.87 174.801 1252.55 157.866 1295.49 152.933L1484.51 131.219C1508.15 128.504 1531.21 122.14 1552.89 112.354L1719.62 37.0938" stroke="black" stroke-width="9"/>
<path d="M953.06 301.253C989.003 334.935 1047.57 321.944 1065.9 276.223L1080.87 238.875L1086.09 220.454C1100.76 168.703 1054.01 120.431 1001.81 133.442L970.449 141.261L946.594 147.208C892.789 160.62 875.199 228.29 915.661 266.207L953.06 301.253Z" fill="#D9D9D9"/>
<path d="M1182.44 422.537C1229.35 419.719 1260.21 372.4 1243.88 328.337L1230.52 292.285L1229.02 289.276C1204.48 240.154 1135.52 237.117 1106.76 283.893L1094.04 304.582L1085.81 317.971C1056.14 366.228 1093.09 427.904 1149.64 424.507L1182.44 422.537Z" fill="#D9D9D9"/>
<path d="M953.496 281.338C989.738 317.565 1051.34 303.852 1068.8 255.673L1075.01 238.53L1077.44 228.824C1090.3 177.563 1043.89 131.087 992.615 143.87L978.533 147.38L971.316 149.179C918.495 162.347 900.259 228.123 938.761 266.608L953.496 281.338Z" fill="#C6C6C6"/>
<path d="M953.496 281.338C989.738 317.565 1051.34 303.852 1068.8 255.673L1075.01 238.53L1077.44 228.824C1090.3 177.563 1043.89 131.087 992.615 143.87L978.533 147.38L971.316 149.179C918.495 162.347 900.259 228.123 938.761 266.608L953.496 281.338Z" fill="#C6C6C6"/>
<path d="M953.496 281.338C989.738 317.565 1051.34 303.852 1068.8 255.673L1075.01 238.53L1077.44 228.824C1090.3 177.563 1043.89 131.087 992.615 143.87L978.533 147.38L971.316 149.179C918.495 162.347 900.259 228.123 938.761 266.608L953.496 281.338Z" fill="#C6C6C6"/>
<path d="M953.496 281.338C989.738 317.565 1051.34 303.852 1068.8 255.673L1075.01 238.53L1077.44 228.824C1090.3 177.563 1043.89 131.087 992.615 143.87L978.533 147.38L971.316 149.179C918.495 162.347 900.259 228.123 938.761 266.608L953.496 281.338Z" fill="#D1D1D1"/>
<path d="M971.716 214.435C1007.96 250.662 1069.56 236.949 1087.02 188.77L1093.23 171.627L1095.66 161.921C1108.52 110.66 1062.11 64.1837 1010.83 76.9669L996.753 80.4773L989.536 82.2763C936.714 95.444 918.479 161.22 956.98 199.705L971.716 214.435Z" fill="#C6C6C6"/>
<path d="M971.716 214.435C1007.96 250.662 1069.56 236.949 1087.02 188.77L1093.23 171.627L1095.66 161.921C1108.52 110.66 1062.11 64.1837 1010.83 76.9669L996.753 80.4773L989.536 82.2763C936.714 95.444 918.479 161.22 956.98 199.705L971.716 214.435Z" fill="#C6C6C6"/>
<path d="M971.716 214.435C1007.96 250.662 1069.56 236.949 1087.02 188.77L1093.23 171.627L1095.66 161.921C1108.52 110.66 1062.11 64.1837 1010.83 76.9669L996.753 80.4773L989.536 82.2763C936.714 95.444 918.479 161.22 956.98 199.705L971.716 214.435Z" fill="#C6C6C6"/>
<path d="M971.716 214.435C1007.96 250.662 1069.56 236.949 1087.02 188.77L1093.23 171.627L1095.66 161.921C1108.52 110.66 1062.11 64.1837 1010.83 76.9669L996.753 80.4773L989.536 82.2763C936.714 95.444 918.479 161.22 956.98 199.705L971.716 214.435Z" fill="#D1D1D1"/>
<path d="M1044.07 388.601C1080.31 424.828 1141.92 411.115 1159.37 362.936L1165.58 345.793L1168.02 336.087C1180.88 284.827 1134.47 238.35 1083.19 251.133L1069.11 254.644L1061.89 256.443C1009.07 269.61 990.832 335.386 1029.33 373.872L1044.07 388.601Z" fill="#C6C6C6"/>
<path d="M1044.07 388.601C1080.31 424.828 1141.92 411.115 1159.37 362.936L1165.58 345.793L1168.02 336.087C1180.88 284.827 1134.47 238.35 1083.19 251.133L1069.11 254.644L1061.89 256.443C1009.07 269.61 990.832 335.386 1029.33 373.872L1044.07 388.601Z" fill="#C6C6C6"/>
<path d="M1044.07 388.601C1080.31 424.828 1141.92 411.115 1159.37 362.936L1165.58 345.793L1168.02 336.087C1180.88 284.827 1134.47 238.35 1083.19 251.133L1069.11 254.644L1061.89 256.443C1009.07 269.61 990.832 335.386 1029.33 373.872L1044.07 388.601Z" fill="#C6C6C6"/>
<path d="M1044.07 388.601C1080.31 424.828 1141.92 411.115 1159.37 362.936L1165.58 345.793L1168.02 336.087C1180.88 284.827 1134.47 238.35 1083.19 251.133L1069.11 254.644L1061.89 256.443C1009.07 269.61 990.832 335.386 1029.33 373.872L1044.07 388.601Z" fill="#D1D1D1"/>
<path d="M1136.59 323.846C1172.83 360.073 1234.44 346.36 1251.89 298.181L1258.1 281.038L1260.54 271.332C1273.39 220.072 1226.99 173.595 1175.71 186.378L1161.63 189.888L1154.41 191.687C1101.59 204.855 1083.35 270.631 1121.85 309.117L1136.59 323.846Z" fill="#C6C6C6"/>
<path d="M1136.59 323.846C1172.83 360.073 1234.44 346.36 1251.89 298.181L1258.1 281.038L1260.54 271.332C1273.39 220.072 1226.99 173.595 1175.71 186.378L1161.63 189.888L1154.41 191.687C1101.59 204.855 1083.35 270.631 1121.85 309.117L1136.59 323.846Z" fill="#C6C6C6"/>
<path d="M1136.59 323.846C1172.83 360.073 1234.44 346.36 1251.89 298.181L1258.1 281.038L1260.54 271.332C1273.39 220.072 1226.99 173.595 1175.71 186.378L1161.63 189.888L1154.41 191.687C1101.59 204.855 1083.35 270.631 1121.85 309.117L1136.59 323.846Z" fill="#C6C6C6"/>
<path d="M1136.59 323.846C1172.83 360.073 1234.44 346.36 1251.89 298.181L1258.1 281.038L1260.54 271.332C1273.39 220.072 1226.99 173.595 1175.71 186.378L1161.63 189.888L1154.41 191.687C1101.59 204.855 1083.35 270.631 1121.85 309.117L1136.59 323.846Z" fill="#D1D1D1"/>
<path d="M1088.55 195.403C1124.79 231.631 1186.4 217.918 1203.85 169.738L1210.06 152.595L1212.5 142.889C1225.36 91.6291 1178.95 45.1524 1127.67 57.9356L1113.59 61.4461L1106.37 63.2451C1053.55 76.4128 1035.32 142.189 1073.82 180.674L1088.55 195.403Z" fill="#C6C6C6"/>
<path d="M1088.55 195.403C1124.79 231.631 1186.4 217.918 1203.85 169.738L1210.06 152.595L1212.5 142.889C1225.36 91.6291 1178.95 45.1524 1127.67 57.9356L1113.59 61.4461L1106.37 63.2451C1053.55 76.4128 1035.32 142.189 1073.82 180.674L1088.55 195.403Z" fill="#C6C6C6"/>
<path d="M1088.55 195.403C1124.79 231.631 1186.4 217.918 1203.85 169.738L1210.06 152.595L1212.5 142.889C1225.36 91.6291 1178.95 45.1524 1127.67 57.9356L1113.59 61.4461L1106.37 63.2451C1053.55 76.4128 1035.32 142.189 1073.82 180.674L1088.55 195.403Z" fill="#C6C6C6"/>
<path d="M1088.55 195.403C1124.79 231.631 1186.4 217.918 1203.85 169.738L1210.06 152.595L1212.5 142.889C1225.36 91.6291 1178.95 45.1524 1127.67 57.9356L1113.59 61.4461L1106.37 63.2451C1053.55 76.4128 1035.32 142.189 1073.82 180.674L1088.55 195.403Z" fill="#D1D1D1"/>
<path d="M999.287 289.593C1035.53 325.82 1097.13 312.108 1114.59 263.928L1120.8 246.785L1123.23 237.079C1136.09 185.819 1089.69 139.342 1038.41 152.125L1024.32 155.636L1017.11 157.435C964.286 170.602 946.05 236.378 984.552 274.864L999.287 289.593Z" fill="#C6C6C6"/>
<path d="M999.287 289.593C1035.53 325.82 1097.13 312.108 1114.59 263.928L1120.8 246.785L1123.23 237.079C1136.09 185.819 1089.69 139.342 1038.41 152.125L1024.32 155.636L1017.11 157.435C964.286 170.602 946.05 236.378 984.552 274.864L999.287 289.593Z" fill="#C6C6C6"/>
<path d="M999.287 289.593C1035.53 325.82 1097.13 312.108 1114.59 263.928L1120.8 246.785L1123.23 237.079C1136.09 185.819 1089.69 139.342 1038.41 152.125L1024.32 155.636L1017.11 157.435C964.286 170.602 946.05 236.378 984.552 274.864L999.287 289.593Z" fill="#C6C6C6"/>
<path d="M999.287 289.593C1035.53 325.82 1097.13 312.108 1114.59 263.928L1120.8 246.785L1123.23 237.079C1136.09 185.819 1089.69 139.342 1038.41 152.125L1024.32 155.636L1017.11 157.435C964.286 170.602 946.05 236.378 984.552 274.864L999.287 289.593Z" fill="#C6C6C6"/>
<path d="M1101.59 309.981C1137.83 346.208 1199.44 332.495 1216.89 284.316L1223.1 267.173L1225.54 257.467C1238.4 206.206 1191.99 159.73 1140.71 172.513L1126.63 176.023L1119.41 177.822C1066.59 190.99 1048.36 256.766 1086.86 295.251L1101.59 309.981Z" fill="#C6C6C6"/>
<path d="M1101.59 309.981C1137.83 346.208 1199.44 332.495 1216.89 284.316L1223.1 267.173L1225.54 257.467C1238.4 206.206 1191.99 159.73 1140.71 172.513L1126.63 176.023L1119.41 177.822C1066.59 190.99 1048.36 256.766 1086.86 295.251L1101.59 309.981Z" fill="#C6C6C6"/>
<path d="M1101.59 309.981C1137.83 346.208 1199.44 332.495 1216.89 284.316L1223.1 267.173L1225.54 257.467C1238.4 206.206 1191.99 159.73 1140.71 172.513L1126.63 176.023L1119.41 177.822C1066.59 190.99 1048.36 256.766 1086.86 295.251L1101.59 309.981Z" fill="#C6C6C6"/>
<path d="M1101.59 309.981C1137.83 346.208 1199.44 332.495 1216.89 284.316L1223.1 267.173L1225.54 257.467C1238.4 206.206 1191.99 159.73 1140.71 172.513L1126.63 176.023L1119.41 177.822C1066.59 190.99 1048.36 256.766 1086.86 295.251L1101.59 309.981Z" fill="#C6C6C6"/>
<path d="M1032.38 190.018C1039.11 242.066 1098.6 268.476 1141.72 238.554L1154.98 229.348L1167.08 219.027C1206.85 185.1 1196.75 121.129 1148.46 101.108L1133.84 95.0478L1125.4 91.5489C1075.69 70.9364 1022.28 111.806 1029.17 165.184L1032.38 190.018Z" fill="#C6C6C6"/>
<path d="M1032.38 190.018C1039.11 242.066 1098.6 268.476 1141.72 238.554L1154.98 229.348L1167.08 219.027C1206.85 185.1 1196.75 121.129 1148.46 101.108L1133.84 95.0478L1125.4 91.5489C1075.69 70.9364 1022.28 111.806 1029.17 165.184L1032.38 190.018Z" fill="#C6C6C6"/>
<path d="M1032.38 190.018C1039.11 242.066 1098.6 268.476 1141.72 238.554L1154.98 229.348L1167.08 219.027C1206.85 185.1 1196.75 121.129 1148.46 101.108L1133.84 95.0478L1125.4 91.5489C1075.69 70.9364 1022.28 111.806 1029.17 165.184L1032.38 190.018Z" fill="#C6C6C6"/>
<path d="M1032.38 190.018C1039.11 242.066 1098.6 268.476 1141.72 238.554L1154.98 229.348L1167.08 219.027C1206.85 185.1 1196.75 121.129 1148.46 101.108L1133.84 95.0478L1125.4 91.5489C1075.69 70.9364 1022.28 111.806 1029.17 165.184L1032.38 190.018Z" fill="#C6C6C6"/>
<ellipse cx="1087.39" cy="250.001" rx="22.1699" ry="26.5904" transform="rotate(-159.294 1087.39 250.001)" fill="#B2B2B2"/>
<ellipse cx="1082.74" cy="218.631" rx="43.0794" ry="21.7169" transform="rotate(-159.294 1082.74 218.631)" fill="#B2B2B2"/>
<ellipse cx="1107.95" cy="231.473" rx="43.0794" ry="21.7169" transform="rotate(-159.294 1107.95 231.473)" fill="#B2B2B2"/>
<ellipse cx="1117.07" cy="192.892" rx="34.8801" ry="21.7169" transform="rotate(-159.294 1117.07 192.892)" fill="#B2B2B2"/>
</g>
<defs>
<clipPath id="clip0_203_2">
<rect width="1440" height="534" fill="white"/>
</clipPath>
</defs>
</svg>
