<svg width="1440" height="778" viewBox="0 0 1440 778" fill="none" xmlns="http://www.w3.org/2000/svg">
<g clip-path="url(#clip0_203_203)">
<path d="M957.693 508.887C979.729 527.732 976.054 568.194 954.696 593.168C933.338 618.142 898.161 623.11 876.125 604.265C854.089 585.42 846.17 555.438 867.528 530.464C888.886 505.49 935.657 490.042 957.693 508.887Z" fill="#EDEDED"/>
<path d="M771.68 491.572C764.312 486.168 763.094 475.64 769.032 468.696V468.696C774.374 462.45 783.629 461.377 790.257 466.237L860.863 517.997C865.448 521.358 870.869 523.393 876.533 523.88L879.986 524.177C892.572 525.259 902.681 535.008 904.219 547.546V547.546C908.021 578.552 864.632 589.774 852.925 560.813L850.324 554.379C848.4 549.619 845.188 545.489 841.048 542.453L771.68 491.572Z" fill="#EDEDED"/>
<path d="M1069.61 419.536C1089.45 436.506 1105.67 480.814 1089.28 499.969C1072.9 519.125 1043.54 520.897 1023.69 503.927C1003.85 486.957 995.188 461.747 1011.57 442.592C1031.47 398.737 1049.77 402.566 1069.61 419.536Z" fill="#EDEDED"/>
<path d="M943.304 412.659C936.844 407.921 935.776 398.69 940.982 392.602V392.602C945.666 387.125 953.78 386.185 959.593 390.446L1021.5 435.829C1025.52 438.776 1030.27 440.561 1035.24 440.987L1038.27 441.248C1049.3 442.196 1058.17 450.744 1059.51 461.738V461.738C1062.85 488.924 1024.8 498.764 1014.54 473.37L1012.26 467.729C1010.57 463.555 1007.76 459.934 1004.13 457.272L943.304 412.659Z" fill="#EDEDED"/>
<path d="M1044.77 415.193C1047 413.54 1050.03 413.46 1052.34 414.993L1064.51 423.06C1067.88 425.29 1068.64 429.935 1066.2 433.155V433.155C1063.87 436.238 1059.45 436.884 1056.37 434.552L1044.72 425.746C1041.21 423.093 1041.24 417.813 1044.77 415.193V415.193Z" fill="#CBCBCB"/>
<path d="M951.602 404.63L943.706 396.031C924.986 375.643 897.541 365.598 870.082 369.086L863.325 369.944C839.587 372.959 815.892 364.058 800.01 346.161V346.161C782.749 326.71 777.238 299.5 785.569 274.865L799.161 234.678C803.989 220.402 811.005 206.963 819.958 194.841L834.11 175.681C858.546 142.598 891.259 116.529 928.962 100.094L957.057 87.8466C990.33 73.3425 1027.7 71.2501 1062.39 81.9495V81.9495C1107.15 95.7586 1143.02 129.476 1159.58 173.301L1162.1 179.977C1170.98 203.502 1173.04 229.06 1168.02 253.702L1166.16 262.859C1159.87 293.736 1166.87 325.831 1185.42 351.297V351.297C1207.41 381.475 1242.98 398.732 1280.3 397.329L1302.79 396.484C1327.22 395.566 1351.08 388.864 1372.41 376.93L1432.94 343.064C1454.83 330.819 1475.63 316.737 1495.13 300.969L1547.05 258.986" stroke="#EDEDED" stroke-width="10"/>
<path d="M777.451 477.596L756.962 452.753L738.635 435.481C698.335 397.501 687.858 337.518 712.897 288.126V288.126C720.992 272.159 732.424 258.12 746.419 246.958L782.897 217.865L878.715 156.266C905.84 138.829 936.449 127.534 968.399 123.172L1006.74 117.938C1027.68 115.08 1048.99 118.865 1067.66 128.758V128.758C1096.74 144.165 1116.48 172.779 1120.56 205.432L1125.35 243.741L1124.8 279.985C1124.56 295.329 1126.86 310.606 1131.61 325.198V325.198C1144.19 363.868 1173.04 395.11 1210.58 410.725L1213.2 411.813C1236.56 421.528 1262.05 424.982 1287.15 421.834L1299.6 420.273C1314.65 418.385 1329.43 414.727 1343.62 409.374L1402.35 387.228C1433.97 375.305 1462.33 356.098 1485.14 331.165V331.165C1493.13 322.425 1501.83 314.36 1511.16 307.053L1551.57 275.38" stroke="#EDEDED" stroke-width="10"/>
</g>
<defs>
<clipPath id="clip0_203_203">
<rect width="1440" height="778" fill="white"/>
</clipPath>
</defs>
</svg>
