<svg width="948" height="610" viewBox="0 0 948 610" fill="none" xmlns="http://www.w3.org/2000/svg">
<path d="M287.415 324.057C297.05 290.047 262.924 260.072 230.44 274.014L123.655 319.846C96.2717 331.598 89.4965 367.336 110.678 388.295L173.623 450.582C192.062 468.828 222.468 466.162 237.451 444.987L259.481 413.851C262.235 409.959 264.306 405.627 265.605 401.04L287.415 324.057Z" fill="#C2C2C2"/>
<path d="M287.415 324.057C297.05 290.047 262.924 260.072 230.44 274.014L123.655 319.846C96.2717 331.598 89.4965 367.336 110.678 388.295L173.623 450.582C192.062 468.828 222.468 466.162 237.451 444.987L259.481 413.851C262.235 409.959 264.306 405.627 265.605 401.04L287.415 324.057Z" fill="#C2C2C2"/>
<path d="M246.52 267.506C274.232 246.807 266.445 203.359 233.27 193.572L116.89 159.242C88.0033 150.72 59.8009 174.475 63.2892 204.39L74.556 301.011C77.5767 326.916 103.229 343.833 128.23 336.408L164.286 325.701C169.034 324.291 173.495 322.052 177.463 319.088L246.52 267.506Z" fill="#C2C2C2"/>
<path d="M246.52 267.506C274.232 246.807 266.445 203.359 233.27 193.572L116.89 159.242C88.0033 150.72 59.8009 174.475 63.2892 204.39L74.556 301.011C77.5767 326.916 103.229 343.833 128.23 336.408L164.286 325.701C169.034 324.291 173.495 322.052 177.463 319.088L246.52 267.506Z" fill="#C2C2C2"/>
<path d="M236.059 260.379C266.724 276.38 302.503 250.53 296.942 216.391L277.436 96.6315C272.594 66.906 238.962 51.7873 213.516 67.8972L131.327 119.931C109.291 133.881 105.165 164.332 122.692 183.644L147.97 211.495C151.299 215.162 155.25 218.212 159.641 220.504L236.059 260.379Z" fill="#C2C2C2"/>
<path d="M236.059 260.379C266.724 276.38 302.503 250.53 296.942 216.391L277.436 96.6315C272.594 66.906 238.962 51.7873 213.516 67.8972L131.327 119.931C109.291 133.881 105.165 164.332 122.692 183.644L147.97 211.495C151.299 215.162 155.25 218.212 159.641 220.504L236.059 260.379Z" fill="#C2C2C2"/>
<path d="M295.608 303.85C320.756 287.513 321.172 250.842 296.4 233.938L254.989 205.679C249.279 201.783 242.695 199.356 235.822 198.614L159.71 190.399C132.858 187.501 110.29 210.333 113.501 237.149L126.033 341.83C129.73 372.71 164.537 389.001 190.617 372.058L295.608 303.85Z" fill="#B3B3B3"/>
<path d="M314.383 288.806C325.602 265.316 312.97 237.382 287.922 230.292L215.445 209.778C185.827 201.395 157.552 226.666 162.568 257.035L181.028 368.795C186.171 399.932 222.532 414.486 247.738 395.497L264.039 383.217C269.428 379.157 273.759 373.86 276.666 367.772L314.383 288.806Z" fill="#CECECE"/>
<path d="M268.238 273.489C298.046 264.319 307.815 227.007 286.326 204.405L236.19 151.676C216.071 130.516 181.034 135.833 168.099 162.009L137.449 224.033C124.856 249.516 140.683 279.886 168.784 284.162L202.622 289.311C208.869 290.261 215.25 289.79 221.29 287.932L268.238 273.489Z" fill="#C3C3C3"/>
<path d="M279.424 301.074C304.239 288.525 310.228 255.759 291.456 235.243L248.702 188.514C225.267 162.901 182.641 175.164 176.399 209.315L162.634 284.628C156.392 318.779 191.925 345.327 222.904 329.659L279.424 301.074Z" fill="#D9D9D9"/>
<path d="M295.903 258.194L433 283.251C453.877 287.067 475.181 287.975 496.307 285.949L622.77 273.822" stroke="black" stroke-width="9"/>
<path d="M532.176 257.826L699.427 288.395C730.414 294.058 760.07 305.458 786.871 322.009L923.86 406.604" stroke="black" stroke-width="7"/>
<path d="M312.486 271.069C313.462 268.213 312.498 265.053 310.094 263.229L293.069 250.308C287.792 246.302 280.42 251.189 282.053 257.609L291.202 293.573C292.918 300.319 302.358 300.698 304.609 294.112L312.486 271.069Z" fill="#D9D9D9"/>
<path d="M310.726 263.731L310.367 263.082C308.086 258.955 306.77 254.364 306.517 249.655V249.655C305.851 237.215 297.849 226.364 286.163 222.05L282.402 220.661" stroke="black" stroke-width="5"/>
<path d="M312.369 264.031L311.505 273.266C310.506 283.938 305.887 293.947 298.413 301.63V301.63L288.068 311.133" stroke="black" stroke-width="5"/>
</svg>
