<svg width="665" height="1047" viewBox="0 0 665 1047" fill="none" xmlns="http://www.w3.org/2000/svg">
<path d="M370.609 406.705C403.557 393.899 406.914 348.602 376.213 331.08L231.363 248.41C205.483 233.64 172.88 249.768 168.917 279.302L152.086 404.742C148.637 430.452 169.087 453.111 195.014 452.307L251.121 450.569C255.887 450.421 260.592 449.464 265.036 447.737L370.609 406.705Z" fill="#B2B2B2"/>
<path d="M334.644 387.075C357.968 403.033 390.079 391.866 398.468 364.879L423.166 285.423C425.339 278.431 425.647 270.992 424.058 263.845L402.705 167.756C396.753 140.976 367.144 126.998 342.685 139.421L193.515 215.189C165.067 229.639 162.485 269.281 188.818 287.298L334.644 387.075Z" fill="#C3C3C3"/>
<path d="M341.724 405.842C375.249 400.599 389.04 359.822 365.578 335.307L252.907 217.577C233.58 197.383 200.289 201.349 186.247 225.518L120.695 338.353C106.254 363.209 120.49 394.9 148.663 400.613L239.882 419.114C244.769 420.105 249.793 420.218 254.72 419.448L341.724 405.842Z" fill="#C3C3C3"/>
<path d="M318.778 396.416C350.42 406.432 380.631 377.519 372.013 345.468L331.289 194.018C323.004 163.205 284.742 152.519 261.69 174.58L152.897 278.699C129.845 300.76 138.842 339.455 169.261 349.084L318.778 396.416Z" fill="#D9D9D9"/>
<path d="M372.693 379.364L491.521 503.527C506.195 518.859 522.92 532.087 541.221 542.833L676.776 622.435" stroke="black" stroke-width="9"/>
<path d="M649.778 594.224L766.394 716.075C782.535 732.941 800.933 747.492 821.064 759.313L953.861 837.295" stroke="black" stroke-width="7"/>
<path d="M534.676 330.185L546.307 382.243C554.457 418.719 554.425 456.548 546.211 493.01L534.792 543.705" stroke="black" stroke-width="7"/>
<path d="M377.531 400.279C383.083 401.768 387.964 396.3 385.857 390.952L372.703 357.566C370.792 352.716 364.44 351.581 360.968 355.47L339.463 379.562C335.991 383.451 337.837 389.634 342.872 390.985L377.531 400.279Z" fill="#D9D9D9"/>
<path d="M383.116 395.04V395.04C383.864 388.926 382.972 382.722 380.532 377.066L372.711 358.933C372.393 358.198 371.947 357.524 371.393 356.946V356.946C368.823 354.26 368.916 350 371.602 347.429L385.866 333.779" stroke="black" stroke-width="5"/>
<path d="M381.723 394.542L368.176 380.386C363.818 375.834 358.686 372.092 353.019 369.336V369.336C347.352 366.58 342.22 362.838 337.863 358.285L327.062 346.999" stroke="black" stroke-width="5"/>
<path d="M384.489 396.475L375.926 397.507C370.718 398.134 365.443 397.9 360.313 396.812L356.203 395.941C352.652 395.188 349.288 393.728 346.312 391.648V391.648C340.35 387.482 332.962 385.89 325.813 387.232L319.129 388.486" stroke="black" stroke-width="5"/>
<path d="M539.042 315.655C544.78 328.073 532.261 341.062 519.64 335.786L470.761 315.351C461.026 311.281 458.425 298.699 465.747 291.102L492.403 263.444C499.725 255.847 512.395 257.984 516.82 267.562L539.042 315.655Z" fill="#D9D9D9"/>
<path d="M545.511 321.63C545.37 335.31 528.491 341.677 519.351 331.498L483.954 292.08C476.905 284.229 479.949 271.747 489.821 268.023L525.762 254.466C535.634 250.742 546.163 258.104 546.055 268.655L545.511 321.63Z" fill="#E9E9E9"/>
</svg>
