<svg width="348" height="348" viewBox="0 0 348 348" fill="none" xmlns="http://www.w3.org/2000/svg">
<path d="M324.79 177.625L324.276 182.548L311.948 186.645L311.92 186.913L323.135 193.469L322.658 198.034L299.563 195.621L299.923 192.175L314.38 193.685L318.483 194.25L318.511 193.981L304.568 185.828L319.895 180.733L319.923 180.465L315.792 180.169L301.336 178.659L301.696 175.212L324.79 177.625Z" fill="black"/>
<path d="M294.597 212.627C295.128 211.033 295.877 209.685 296.844 208.584C297.802 207.512 298.93 206.686 300.23 206.107C301.548 205.566 302.985 205.285 304.541 205.266C306.125 205.256 307.786 205.539 309.522 206.117C311.287 206.705 312.8 207.478 314.062 208.435C315.315 209.421 316.293 210.521 316.995 211.735C317.726 212.959 318.158 214.273 318.292 215.677C318.415 217.109 318.226 218.58 317.724 220.088C317.231 221.569 316.516 222.816 315.577 223.832C314.629 224.876 313.528 225.664 312.276 226.195C311.053 226.737 309.71 227.017 308.249 227.036C306.789 227.056 305.275 226.805 303.71 226.284L302.087 225.744L307.517 209.434L306.492 209.093C305.524 208.771 304.576 208.629 303.646 208.667C302.716 208.705 301.858 208.91 301.07 209.28C300.274 209.679 299.567 210.234 298.951 210.946C298.353 211.695 297.884 212.583 297.543 213.607C297.05 215.087 296.966 216.482 297.289 217.791C297.612 219.1 298.276 220.238 299.282 221.206L296.736 223.156C295.473 222.009 294.614 220.505 294.158 218.646C293.721 216.825 293.867 214.818 294.597 212.627ZM314.906 219.15C315.219 218.211 315.337 217.286 315.261 216.375C315.185 215.465 314.947 214.611 314.548 213.814C314.14 213.046 313.58 212.353 312.868 211.737C312.176 211.159 311.345 210.708 310.377 210.386L310.079 210.287L305.871 222.925L306.341 223.081C307.309 223.403 308.243 223.541 309.145 223.493C310.036 223.473 310.857 223.288 311.606 222.937C312.375 222.623 313.043 222.135 313.612 221.47C314.172 220.834 314.603 220.061 314.906 219.15Z" fill="black"/>
<path d="M293.235 228.308L291.899 230.55C292.722 232.158 293.885 233.724 295.387 235.247C296.899 236.811 298.867 238.315 301.289 239.758L307.63 243.535L299.961 256.409L282.641 246.092L280.683 249.378L272.642 244.587L274.323 241.765L279.736 244.989L288.925 229.564L283.512 226.34L285.194 223.518L293.235 228.308ZM284.483 242.999L299.174 251.75L303.204 244.985L299.338 242.682C296.942 241.254 294.995 239.832 293.498 238.417C292.028 237.017 290.827 235.516 289.895 233.914L284.483 242.999Z" fill="black"/>
<path d="M291.26 268.83L288.799 271.458L280.161 263.367L276.072 259.044L275.949 259.175L280.955 279.833L278.648 282.296L261.701 266.422L264.162 263.795L272.799 271.886L276.889 276.209L277.012 276.078L272.006 255.42L274.313 252.957L291.26 268.83Z" fill="black"/>
<path d="M260.406 293.486L267.447 288.635L269.183 291.155L252.137 302.899L250.401 300.379L257.441 295.528L246.003 278.927L248.968 276.885L260.406 293.486Z" fill="black"/>
<path d="M215.464 294.632C216.769 294.098 217.835 294.05 218.663 294.488C219.491 294.927 220.18 295.618 220.728 296.56L220.936 296.475C220.896 295.032 221.256 293.734 222.015 292.58C222.758 291.465 224.003 290.549 225.752 289.832C228.001 288.911 230.03 288.76 231.84 289.38C233.651 290 234.971 291.323 235.801 293.349C236.62 295.348 236.53 297.185 235.53 298.859C234.503 300.544 232.365 302.053 229.117 303.384L224.537 305.261L225.407 307.384C226.055 308.967 226.983 309.964 228.19 310.377C229.408 310.818 230.836 310.703 232.474 310.032C233.917 309.441 234.978 308.666 235.655 307.707C236.343 306.777 236.766 305.712 236.923 304.513L239.854 305.257C239.804 305.926 239.651 306.621 239.396 307.342C239.14 308.062 238.745 308.759 238.21 309.432C237.687 310.133 237.026 310.777 236.229 311.363C235.443 311.977 234.509 312.505 233.426 312.949C230.9 313.984 228.64 314.165 226.645 313.491C224.623 312.828 223.145 311.359 222.212 309.082L217.366 297.257L214.368 298.486L213.174 295.571L215.464 294.632ZM226.313 292.861C225.452 293.214 224.715 293.63 224.1 294.108C223.469 294.626 222.959 295.16 222.568 295.709C222.188 296.286 221.956 296.867 221.872 297.453C221.771 298.078 221.835 298.668 222.062 299.223L223.513 302.762L228.093 300.885C230.092 300.066 231.436 299.191 232.124 298.261C232.813 297.33 232.941 296.337 232.508 295.283L232.15 294.408C231.695 293.298 230.959 292.61 229.943 292.346C228.911 292.121 227.7 292.292 226.313 292.861Z" fill="black"/>
<path d="M188.629 300.782L206.936 297.58L210.937 320.453L207.391 321.073L203.917 301.215L193.235 303.083L196.708 322.942L193.162 323.562L189.688 303.704L185.921 304.363L184.308 295.143L187.544 294.577L188.629 300.782Z" fill="black"/>
<path d="M177.684 325.021L174.088 324.854L174.636 313.032L175.271 307.115L175.091 307.106L162.626 324.323L159.254 324.167L160.329 300.971L163.925 301.138L163.377 312.96L162.743 318.877L162.923 318.886L175.388 301.669L178.759 301.826L177.684 325.021Z" fill="black"/>
<path d="M145.327 322.429L141.849 321.501L144.901 310.066L146.781 304.42L146.607 304.373L130.762 318.541L127.502 317.671L133.49 295.236L136.968 296.165L133.916 307.599L132.036 313.246L132.21 313.292L148.055 299.124L151.316 299.995L145.327 322.429Z" fill="black"/>
<path d="M72.3545 285.729L69.5968 283.415L96.616 269.137C97.2471 268.805 97.8433 268.561 98.4046 268.406C98.9852 268.227 99.5443 268.168 100.082 268.227C100.639 268.264 101.207 268.427 101.786 268.717C102.384 268.984 103.016 269.397 103.683 269.957L106.303 272.155L104.336 274.499L100.199 271.028L94.0922 274.245L86.6256 297.704L83.799 295.332L87.048 285.37L90.0633 276.386L89.9254 276.27L81.6015 280.8L72.3545 285.729Z" fill="black"/>
<path d="M78.9143 264.918L77.1528 262.639C76.4267 262.632 75.6541 262.736 74.8352 262.952C73.9979 263.144 73.0878 263.487 72.1049 263.982C71.1036 264.452 70.0086 265.071 68.8196 265.839C67.607 266.625 66.253 267.596 64.7577 268.751L59.5241 272.797L50.084 260.586L68.4549 246.384L70.6566 249.232L54.7068 261.562L59.7984 268.149L62.6821 265.919C66.005 263.351 68.8085 261.582 71.0926 260.612C73.3347 259.637 75.1711 259.242 76.6019 259.425C77.4015 259.527 78.1072 259.778 78.7191 260.177C79.3073 260.594 79.8949 261.183 80.482 261.942L81.3352 263.046L78.9143 264.918Z" fill="black"/>
<path d="M34.8943 233.219L33.3573 229.963L63.8712 228.296C64.5833 228.258 65.2269 228.286 65.8018 228.379C66.4039 228.46 66.9366 228.64 67.4 228.919C67.8906 229.185 68.3382 229.57 68.7428 230.076C69.1745 230.569 69.5761 231.209 69.9476 231.995L71.4078 235.088L68.6407 236.395L66.3351 231.511L59.4425 231.88L42.8486 250.065L41.2731 246.729L48.3911 239.038L54.8873 232.139L54.8105 231.977L45.3554 232.609L34.8943 233.219Z" fill="black"/>
<path d="M38.3044 202.166L38.355 202.385C39.4499 202.995 40.3526 203.772 41.063 204.717C41.7374 205.639 42.26 206.904 42.6308 208.511C43.197 210.967 43.0584 212.969 42.2149 214.518C41.3354 216.045 39.7264 217.078 37.3877 217.617L29.4072 219.458L28.5983 215.95L36.2719 214.18C37.6751 213.857 38.6218 213.223 39.1122 212.278C39.6026 211.334 39.6421 209.97 39.2309 208.187C38.8265 206.433 38.2803 205.066 37.5924 204.085C36.8685 203.082 36.0389 202.689 35.1034 202.904L26.0705 204.987L25.2616 201.479L47.8878 196.262L48.6967 199.77L38.3044 202.166Z" fill="black"/>
<path d="M23.0628 188.793L23.0243 185.463L43.2729 185.229L43.2026 179.154L22.9539 179.389L22.9154 176.059L43.164 175.825L43.0937 169.75L22.845 169.984L22.8064 166.655L46.0249 166.386L46.2813 188.524L23.0628 188.793Z" fill="black"/>
<path d="M49.054 149.226C48.7078 150.87 48.1167 152.294 47.2807 153.497C46.451 154.672 45.4234 155.62 44.1981 156.343C42.9496 157.031 41.5536 157.472 40.0101 157.669C38.4372 157.859 36.7554 157.765 34.9646 157.388C33.1446 157.004 31.5532 156.409 30.1905 155.601C28.834 154.763 27.7378 153.781 26.902 152.655C26.0368 151.522 25.4583 150.266 25.1664 148.886C24.8806 147.477 24.9016 145.994 25.2293 144.439C25.5508 142.912 26.1202 141.591 26.9376 140.476C27.7612 139.331 28.7648 138.423 29.9484 137.753C31.1026 137.076 32.4044 136.645 33.8537 136.46C35.303 136.274 36.8349 136.352 38.4495 136.692L40.1228 137.044L36.5803 153.865L37.6371 154.088C38.6352 154.298 39.5939 154.331 40.5133 154.188C41.4326 154.044 42.2623 153.743 43.0024 153.286C43.7487 152.8 44.3877 152.168 44.9192 151.391C45.4276 150.578 45.7931 149.643 46.0157 148.586C46.3372 147.06 46.2631 145.665 45.7935 144.401C45.3239 143.137 44.5344 142.081 43.4251 141.235L45.7336 139.008C47.1179 140.004 48.1422 141.4 48.8065 143.196C49.4476 144.956 49.5301 146.966 49.054 149.226ZM28.1355 145.051C27.9315 146.019 27.9191 146.952 28.0982 147.848C28.2774 148.744 28.6103 149.565 29.0969 150.312C29.5898 151.029 30.2248 151.653 31.0019 152.184C31.7559 152.68 32.6319 153.034 33.63 153.244L33.9382 153.309L36.6832 140.275L36.1989 140.173C35.2007 139.962 34.2567 139.932 33.3667 140.082C32.4829 140.202 31.6887 140.48 30.9842 140.914C30.2564 141.312 29.6476 141.874 29.1578 142.599C28.6741 143.294 28.3334 144.111 28.1355 145.051Z" fill="black"/>
<path d="M31.4174 122.596L32.8936 119.313L41.7588 123.299L46.372 113.038L37.5068 109.052L38.983 105.769L60.161 115.291L58.6848 118.574L49.1629 114.293L44.5497 124.554L54.0716 128.835L52.5953 132.118L31.4174 122.596Z" fill="black"/>
<path d="M45.8888 93.1153L48.0383 90.2274L57.5322 97.2938L62.0822 101.129L62.1897 100.985L54.8897 81.0223L56.9048 78.3149L75.5316 92.1789L73.3821 95.0668L63.8882 88.0005L59.3382 84.1651L59.2307 84.3095L66.5307 104.272L64.5156 106.979L45.8888 93.1153Z" fill="black"/>
<path d="M89.0596 79.2318C87.7925 80.335 86.4628 81.1148 85.0703 81.5713C83.7005 82.0082 82.3088 82.1458 80.8953 81.9843C79.4847 81.7804 78.1045 81.2916 76.7546 80.5177C75.385 79.7213 74.0994 78.633 72.8977 77.2528C71.6764 75.8499 70.7656 74.4154 70.1653 72.9492C69.5876 71.4633 69.3048 70.0191 69.3167 68.6165C69.309 67.1913 69.6044 65.8402 70.2031 64.5632C70.8244 63.2666 71.7346 62.0962 72.9338 61.0522C74.1104 60.0279 75.3609 59.317 76.6855 58.9195C78.0327 58.5023 79.3806 58.3829 80.7292 58.5613C82.058 58.717 83.3565 59.1576 84.6247 59.8833C85.8929 60.6089 87.0687 61.5939 88.1521 62.8384L89.275 64.1281L76.3101 75.4156L77.0192 76.2301C77.689 76.9994 78.434 77.6038 79.2541 78.0433C80.0743 78.4828 80.9175 78.7431 81.7837 78.8243C82.6725 78.8857 83.5632 78.7666 84.4557 78.4668C85.3512 78.1248 86.2062 77.5991 87.0208 76.89C88.1973 75.8656 88.9791 74.7077 89.3662 73.4161C89.7532 72.1245 89.7593 70.8065 89.3845 69.4623L92.5688 69.0765C93.0728 70.7061 93.0487 72.4375 92.4967 74.2705C91.9475 76.0612 90.8018 77.715 89.0596 79.2318ZM74.884 63.2922C74.1373 63.9423 73.5654 64.6788 73.1683 65.5019C72.7711 66.325 72.5418 67.181 72.4803 68.0698C72.4415 68.9389 72.5719 69.8198 72.8717 70.7123C73.1743 71.5626 73.6606 72.3723 74.3303 73.1416L74.5372 73.3792L84.5833 64.6329L84.2582 64.2595C83.5885 63.4902 82.8534 62.8972 82.0529 62.4803C81.2751 62.0438 80.4742 61.7864 79.6503 61.7081C78.8294 61.5876 78.0051 61.6688 77.1775 61.9517C76.3725 62.215 75.608 62.6618 74.884 63.2922Z" fill="black"/>
<path d="M121.052 58.2925C118.842 59.2275 116.853 59.6454 115.084 59.5464C113.344 59.4358 111.737 58.9101 110.264 57.9695L111.868 54.9459C112.975 55.7154 114.19 56.1623 115.513 56.2868C116.825 56.3836 118.268 56.099 119.843 55.4328C121.832 54.5914 123.135 53.6659 123.75 52.6565C124.365 51.647 124.463 50.6449 124.042 49.6503L123.796 49.07C123.341 47.9925 122.637 47.3293 121.685 47.0805C120.748 46.7925 119.617 46.9289 118.291 47.4899L112.53 49.9265L111.356 47.1497L116.702 44.8883C119.41 43.7431 120.337 42.1619 119.484 40.1449L119.274 39.6476C118.888 38.7358 118.191 38.1672 117.184 37.9418C116.193 37.6771 114.758 37.9421 112.879 38.7368C111.221 39.438 109.998 40.2811 109.209 41.2661C108.448 42.2394 107.96 43.3578 107.745 44.6213L104.758 44.028C105.129 42.2099 105.842 40.6218 106.896 39.2638C107.951 37.9059 109.597 36.7536 111.835 35.807C114.681 34.6032 117.011 34.2204 118.825 34.6584C120.666 35.0847 121.967 36.1958 122.726 37.9918C123.287 39.318 123.386 40.514 123.023 41.5798C122.659 42.6456 121.92 43.5935 120.805 44.4233L120.875 44.5891C122.405 44.2024 123.731 44.2934 124.85 44.862C125.959 45.403 126.799 46.3505 127.372 47.7043C128.248 49.7766 128.142 51.7595 127.054 53.653C125.982 55.5073 123.981 57.0538 121.052 58.2925Z" fill="black"/>
<path d="M135.544 48.1595L138.111 47.6901C138.781 46.0124 139.195 44.1069 139.354 41.9735C139.537 39.8052 139.375 37.3341 138.867 34.5601L137.54 27.3004L152.281 24.6055L155.906 44.4368L159.669 43.7489L161.352 52.9563L158.121 53.5471L156.988 47.3498L139.326 50.5788L140.459 56.7761L137.227 57.3669L135.544 48.1595ZM152.365 45.0842L149.29 28.263L141.543 29.6793L142.353 34.1059C142.854 36.8504 143.065 39.2517 142.983 41.3099C142.897 43.3385 142.557 45.2306 141.963 46.986L152.365 45.0842Z" fill="black"/>
<path d="M175.691 46.9808C174.072 46.9245 172.613 46.5886 171.313 45.9731C170.044 45.3587 168.963 44.5106 168.07 43.4289C167.208 42.3183 166.563 41.0201 166.134 39.5344C165.706 38.0186 165.525 36.3313 165.589 34.4724C165.653 32.6435 165.951 30.9878 166.482 29.5054C167.014 28.023 167.748 26.7727 168.684 25.7546C169.651 24.7076 170.789 23.9216 172.098 23.3967C173.437 22.8729 174.916 22.6392 176.535 22.6954C178.154 22.7517 179.598 23.087 180.868 23.7015C182.167 24.317 183.248 25.18 184.11 26.2906C185.003 27.3723 185.663 28.671 186.091 30.1868C186.518 31.7025 186.7 33.3749 186.637 35.2038C186.572 37.0627 186.274 38.7333 185.742 40.2157C185.211 41.6682 184.462 42.9179 183.495 43.965C182.56 44.9831 181.422 45.754 180.083 46.2779C178.774 46.8027 177.31 47.037 175.691 46.9808ZM175.799 43.8776C177.808 43.9474 179.448 43.4041 180.718 42.2475C181.989 41.0909 182.669 39.2534 182.756 36.7349L182.872 33.4069C182.959 30.8885 182.409 29.0082 181.222 27.7662C180.034 26.5242 178.436 25.8683 176.427 25.7985C174.418 25.7287 172.778 26.2721 171.508 27.4287C170.237 28.5852 169.557 30.4228 169.47 32.9412L169.354 36.2692C169.267 38.7877 169.817 40.6679 171.004 41.9099C172.192 43.1519 173.79 43.8078 175.799 43.8776Z" fill="black"/>
<path d="M199.597 24.9945L203.086 25.8833L202.152 29.5463L202.327 29.5907C204.491 27.1702 207.158 26.3635 210.327 27.1708C213.089 27.8744 214.977 29.4545 215.992 31.9111C217.036 34.3751 217.084 37.4677 216.136 41.1888C215.188 44.91 213.666 47.6026 211.57 49.2668C209.504 50.9383 207.09 51.4223 204.328 50.7187C201.159 49.9114 199.203 47.9272 198.461 44.766L198.286 44.7216L195.131 57.106L191.643 56.2173L199.597 24.9945ZM203.765 47.2782C205.8 47.7966 207.525 47.5861 208.941 46.6465C210.393 45.6853 211.379 44.1871 211.897 42.1521L212.875 38.3147C213.393 36.2797 213.241 34.5073 212.418 32.9975C211.632 31.4659 210.221 30.441 208.186 29.9225C207.401 29.7226 206.634 29.6355 205.885 29.6612C205.135 29.687 204.447 29.8367 203.82 30.1104C203.2 30.355 202.656 30.7273 202.189 31.2272C201.757 31.7055 201.445 32.3226 201.253 33.0785L199.186 41.1894C198.994 41.9453 198.969 42.6509 199.111 43.3064C199.29 43.9402 199.59 44.5273 200.009 45.0676C200.436 45.5789 200.973 46.0251 201.619 46.4064C202.264 46.7876 202.98 47.0782 203.765 47.2782Z" fill="black"/>
<path d="M228.631 59.4626C227.184 58.7331 226 57.8167 225.078 56.7134C224.183 55.6235 223.557 54.4005 223.199 53.0442C222.882 51.6746 222.84 50.2254 223.073 48.6968C223.32 47.1413 223.862 45.5332 224.7 43.8725C225.524 42.2385 226.488 40.8599 227.592 39.7368C228.696 38.6136 229.886 37.7859 231.163 37.2537C232.48 36.7081 233.842 36.4714 235.251 36.5433C236.686 36.6288 238.127 37.0363 239.573 37.7658C241.02 38.4953 242.19 39.4049 243.086 40.4947C244.008 41.5981 244.627 42.8345 244.944 44.2041C245.302 45.5604 245.357 47.0163 245.11 48.5718C244.863 50.1272 244.328 51.7219 243.504 53.3559C242.666 55.0166 241.696 56.4086 240.592 57.5318C239.501 58.6281 238.297 59.4491 236.981 59.9946C235.704 60.5269 234.348 60.7502 232.913 60.6648C231.505 60.5928 230.077 60.1921 228.631 59.4626ZM230.029 56.6902C231.824 57.5953 233.54 57.7891 235.179 57.2715C236.817 56.754 238.204 55.3702 239.339 53.1201L240.838 50.1468C241.973 47.8968 242.262 45.9591 241.704 44.3338C241.146 42.7085 239.97 41.4432 238.175 40.5381C236.38 39.633 234.664 39.4392 233.025 39.9568C231.386 40.4744 230 41.8582 228.865 44.1082L227.366 47.0815C226.231 49.3316 225.942 51.2692 226.5 52.8946C227.058 54.5199 228.234 55.7851 230.029 56.6902Z" fill="black"/>
<path d="M260.372 50.2099L269.548 57.6847C271.013 58.8784 271.823 60.235 271.979 61.7544C272.153 63.2506 271.672 64.6965 270.535 66.092C268.697 68.3482 266.49 68.659 263.913 67.0244L263.799 67.1639C265.1 68.4171 265.775 69.7022 265.824 71.0192C265.916 72.3319 265.507 73.5465 264.597 74.6629C264.01 75.384 263.335 75.9754 262.572 76.4372C261.809 76.899 261.007 77.1941 260.167 77.3225C259.327 77.451 258.459 77.4011 257.561 77.1729C256.683 76.9215 255.825 76.4548 254.987 75.7727L245.707 68.2126L260.372 50.2099ZM256.108 72.9713C257.062 73.7482 257.984 74.1124 258.875 74.0641C259.765 74.0158 260.542 73.5846 261.206 72.7705L261.859 71.968C262.522 71.154 262.778 70.3175 262.626 69.4588C262.517 68.5957 262.043 67.8231 261.206 67.141L255.205 62.2525L250.317 68.2534L256.108 72.9713ZM262.648 64.6588C263.415 65.284 264.181 65.579 264.945 65.5436C265.709 65.5081 266.385 65.1299 266.972 64.4089L267.598 63.6413C268.185 62.9203 268.419 62.1821 268.299 61.4267C268.198 60.648 267.764 59.946 266.996 59.3208L261.344 54.7165L256.996 60.0545L262.648 64.6588Z" fill="black"/>
<path d="M284.994 71.85L287.237 74.6658L280.655 79.9089L285.141 85.5405C286.599 87.3708 287.242 89.2368 287.069 91.1387C286.896 93.0405 285.907 94.7111 284.1 96.1504C282.27 97.6084 280.429 98.2113 278.579 97.9591C276.729 97.707 275.066 96.654 273.589 94.8003L266.832 86.3177L284.994 71.85ZM275.646 92.4713C276.487 93.5273 277.353 94.1803 278.242 94.4305C279.151 94.7041 280.074 94.4671 281.013 93.7194L282.491 92.5418C283.43 91.7941 283.855 90.9563 283.768 90.0285C283.723 89.1054 283.28 88.1159 282.439 87.06L278.261 81.8155L271.468 87.2269L275.646 92.4713Z" fill="black"/>
<path d="M285.109 104.8L286.267 107.139L290.593 107.257C291.371 107.273 292.015 107.39 292.524 107.607C293.033 107.823 293.46 108.18 293.807 108.678L293.969 108.598C293.211 106.865 293.063 105.214 293.525 103.646C294.028 102.092 295.247 100.835 297.183 99.8769C299.172 98.892 301.031 98.7249 302.759 99.3757C304.514 100.013 305.918 101.394 306.969 103.518L311.601 112.874L290.792 123.176L289.194 119.95L297.22 115.977L294.724 110.936L287.943 110.728C286.816 110.683 285.884 110.492 285.148 110.153C284.451 109.829 283.89 109.236 283.464 108.376L282.366 106.158L285.109 104.8ZM307.262 111.006L304.466 105.36C303.868 104.15 303.153 103.315 302.323 102.856C301.506 102.423 300.56 102.473 299.485 103.005L298.235 103.624C297.159 104.157 296.546 104.879 296.395 105.79C296.257 106.729 296.487 107.803 297.086 109.013L299.882 114.659L307.262 111.006Z" fill="black"/>
</svg>
