<svg width="349" height="349" viewBox="0 0 349 349" fill="none" xmlns="http://www.w3.org/2000/svg">
<path d="M325.266 179.55L324.879 183.129L315.215 182.082L314.682 187.003L323.672 194.269L323.269 197.982L315.111 191.395C314.391 190.804 313.887 190.296 313.601 189.873C313.345 189.453 313.172 188.966 313.081 188.413L312.902 188.394C312.748 188.981 312.484 189.465 312.111 189.847C311.767 190.233 311.183 190.607 310.359 190.97L303.42 194.02L303.139 196.615L300.097 196.286L300.378 193.691C300.462 192.915 300.744 192.267 301.223 191.745C301.702 191.224 302.449 190.732 303.465 190.268L311.64 186.673L312.173 181.752L301.794 180.627L302.182 177.048L325.266 179.55Z" fill="black"/>
<path d="M295.071 213.367C295.6 211.836 296.349 210.54 297.319 209.478C298.279 208.445 299.407 207.66 300.703 207.124C302.018 206.626 303.448 206.39 304.994 206.417C306.569 206.453 308.235 206.775 309.993 207.382C311.723 207.98 313.218 208.75 314.479 209.694C315.74 210.637 316.72 211.706 317.419 212.899C318.136 214.131 318.553 215.45 318.67 216.855C318.778 218.289 318.568 219.771 318.039 221.302C317.509 222.834 316.765 224.116 315.805 225.149C314.835 226.21 313.693 226.99 312.378 227.488C311.082 228.024 309.647 228.274 308.072 228.238C306.498 228.202 304.846 227.885 303.116 227.288C301.358 226.68 299.848 225.905 298.587 224.961C297.355 224.027 296.38 222.945 295.663 221.713C294.964 220.519 294.561 219.206 294.453 217.772C294.336 216.367 294.542 214.898 295.071 213.367ZM298.005 214.381C297.349 216.281 297.387 218.008 298.12 219.562C298.852 221.117 300.409 222.306 302.791 223.129L305.939 224.216C308.321 225.039 310.279 225.065 311.815 224.294C313.351 223.524 314.447 222.188 315.104 220.289C315.76 218.389 315.722 216.662 314.989 215.107C314.257 213.553 312.7 212.364 310.318 211.541L307.17 210.454C304.789 209.631 302.83 209.605 301.294 210.375C299.758 211.146 298.662 212.481 298.005 214.381Z" fill="black"/>
<path d="M309.063 242.832L306.452 247.037L293.573 245.343L293.43 245.573L300.66 256.365L298.239 260.264L278.512 248.016L280.34 245.072L292.688 252.739L296.134 255.038L296.277 254.809L287.288 241.388L303.303 243.492L303.445 243.263L299.857 241.194L287.508 233.527L289.336 230.583L309.063 242.832Z" fill="black"/>
<path d="M271.994 260.153C271.302 260.861 270.97 261.607 271 262.392C271.03 263.176 271.452 263.967 272.267 264.765L280.437 272.758C281.252 273.556 282.052 273.961 282.837 273.973C283.622 273.986 284.361 273.638 285.053 272.931C285.431 272.545 285.691 272.128 285.835 271.681C285.979 271.234 285.952 270.725 285.755 270.155C285.557 269.584 285.179 268.92 284.619 268.162C284.081 267.426 283.308 266.564 282.3 265.578L279.405 262.746C278.397 261.76 277.508 260.995 276.739 260.452C275.991 259.93 275.329 259.576 274.754 259.391C274.179 259.207 273.67 259.191 273.226 259.344C272.783 259.498 272.372 259.767 271.994 260.153ZM269.758 262.31L269.853 262.213C269.459 261.115 269.342 260.161 269.503 259.353C269.643 258.567 270.017 257.863 270.626 257.241C271.255 256.597 271.95 256.144 272.711 255.882C273.473 255.661 274.353 255.705 275.354 256.012C276.354 256.319 277.496 256.933 278.779 257.852C280.062 258.771 281.55 260.06 283.244 261.717C284.938 263.375 286.259 264.835 287.206 266.097C288.153 267.36 288.791 268.488 289.12 269.481C289.449 270.475 289.501 271.344 289.276 272.089C289.051 272.877 288.624 273.592 287.995 274.235C287.386 274.857 286.691 275.246 285.907 275.403C285.103 275.582 284.147 275.486 283.04 275.117L282.946 275.213L290.891 282.986L288.562 285.367L280.617 277.593L280.523 277.69C280.916 278.789 281.043 279.731 280.903 280.518C280.743 281.326 280.358 282.04 279.749 282.662C279.12 283.306 278.425 283.737 277.663 283.958C276.902 284.221 276.022 284.199 275.021 283.891C274.021 283.584 272.879 282.971 271.596 282.051C270.313 281.132 268.825 279.843 267.131 278.186C265.437 276.528 264.116 275.068 263.169 273.806C262.222 272.543 261.584 271.415 261.255 270.422C260.926 269.428 260.874 268.538 261.098 267.75C261.324 267.005 261.751 266.311 262.38 265.668C262.989 265.046 263.695 264.646 264.499 264.467C265.283 264.31 266.228 264.417 267.335 264.787L267.429 264.69L259.292 256.728L261.621 254.348L269.758 262.31ZM265.322 266.972C264.945 267.358 264.684 267.775 264.54 268.222C264.397 268.669 264.423 269.178 264.621 269.749C264.818 270.319 265.186 270.973 265.724 271.709C266.284 272.467 267.068 273.339 268.075 274.325L270.97 277.157C271.978 278.143 272.856 278.898 273.604 279.42C274.374 279.963 275.046 280.327 275.621 280.512C276.196 280.696 276.705 280.712 277.149 280.559C277.593 280.405 278.003 280.136 278.381 279.75C279.073 279.042 279.405 278.296 279.375 277.511C279.345 276.727 278.923 275.936 278.108 275.138L269.938 267.145C269.123 266.348 268.323 265.943 267.538 265.93C266.753 265.917 266.015 266.265 265.322 266.972Z" fill="black"/>
<path d="M244.944 279.709C246.305 278.829 247.694 278.271 249.112 278.032C250.505 277.811 251.877 277.888 253.228 278.265C254.57 278.683 255.842 279.379 257.043 280.353C258.26 281.352 259.374 282.632 260.384 284.194C261.378 285.731 262.08 287.259 262.492 288.78C262.903 290.3 263.016 291.745 262.831 293.116C262.636 294.527 262.152 295.823 261.378 297.002C260.579 298.197 259.5 299.235 258.139 300.115C256.779 300.994 255.402 301.545 254.009 301.767C252.591 302.005 251.211 301.915 249.869 301.497C248.518 301.12 247.234 300.432 246.016 299.433C244.799 298.434 243.693 297.166 242.699 295.63C241.689 294.068 240.979 292.527 240.567 291.006C240.172 289.511 240.072 288.058 240.266 286.646C240.452 285.275 240.944 283.993 241.743 282.797C242.517 281.618 243.584 280.589 244.944 279.709ZM246.63 282.316C244.943 283.408 243.908 284.791 243.527 286.467C243.145 288.142 243.639 290.038 245.007 292.154L246.815 294.951C248.184 297.067 249.71 298.295 251.395 298.635C253.079 298.974 254.765 298.599 256.453 297.507C258.141 296.416 259.176 295.032 259.557 293.357C259.938 291.681 259.445 289.785 258.076 287.669L256.268 284.873C254.9 282.757 253.373 281.529 251.689 281.189C250.004 280.849 248.318 281.225 246.63 282.316Z" fill="black"/>
<path d="M236.792 311.858L233.412 313.098L232.111 309.549L231.942 309.611C231.525 312.831 229.782 315.004 226.712 316.13C224.036 317.111 221.585 316.875 219.359 315.423C217.105 313.981 215.316 311.457 213.995 307.852C212.673 304.247 212.405 301.165 213.193 298.608C213.953 296.06 215.67 294.296 218.346 293.315C221.416 292.189 224.151 292.72 226.551 294.908L226.72 294.846L222.32 282.847L225.7 281.608L236.792 311.858ZM220.756 295.835C218.784 296.558 217.48 297.707 216.843 299.282C216.189 300.896 216.223 302.689 216.946 304.661L218.31 308.378C219.033 310.35 220.16 311.726 221.692 312.506C223.207 313.325 224.95 313.373 226.921 312.65C227.682 312.371 228.364 312.009 228.968 311.564C229.571 311.119 230.054 310.606 230.417 310.026C230.79 309.474 231.028 308.859 231.131 308.183C231.216 307.544 231.125 306.859 230.856 306.126L227.975 298.268C227.706 297.536 227.328 296.94 226.84 296.48C226.334 296.058 225.755 295.743 225.103 295.535C224.462 295.354 223.767 295.29 223.019 295.34C222.271 295.391 221.516 295.556 220.756 295.835Z" fill="black"/>
<path d="M197.139 320.173L205.62 319.089L206.008 322.124L185.475 324.749L185.087 321.714L193.568 320.63L191.011 300.632L194.582 300.176L197.139 320.173Z" fill="black"/>
<path d="M170.935 325.339L167.352 324.993L168.288 315.318L157.09 314.235L156.154 323.91L152.571 323.563L154.806 300.451L158.389 300.798L157.384 311.189L168.582 312.272L169.587 301.88L173.17 302.227L170.935 325.339Z" fill="black"/>
<path d="M127.937 293.235C129.274 293.68 130.114 294.339 130.456 295.212C130.798 296.084 130.87 297.057 130.671 298.129L130.884 298.2C131.795 297.08 132.914 296.33 134.242 295.95C135.532 295.589 137.073 295.707 138.867 296.304C141.172 297.072 142.809 298.281 143.778 299.931C144.746 301.581 144.884 303.445 144.192 305.523C143.51 307.573 142.244 308.906 140.395 309.523C138.516 310.131 135.912 309.881 132.582 308.772L127.885 307.209L127.16 309.386C126.62 311.009 126.673 312.37 127.318 313.47C127.955 314.599 129.112 315.443 130.792 316.002C132.272 316.495 133.581 316.599 134.719 316.314C135.848 316.057 136.863 315.525 137.764 314.719L139.501 317.194C139.027 317.668 138.458 318.096 137.794 318.475C137.13 318.855 136.376 319.126 135.532 319.287C134.678 319.477 133.758 319.535 132.771 319.459C131.775 319.412 130.722 319.204 129.612 318.834C127.021 317.972 125.19 316.635 124.117 314.824C123.016 313.002 122.854 310.925 123.631 308.591L127.668 296.465L124.593 295.442L125.588 292.453L127.937 293.235ZM137.317 298.966C136.434 298.672 135.604 298.506 134.826 298.469C134.01 298.45 133.275 298.522 132.621 298.683C131.957 298.873 131.402 299.163 130.956 299.552C130.472 299.96 130.136 300.449 129.946 301.018L128.738 304.647L133.435 306.211C135.484 306.893 137.073 307.106 138.202 306.849C139.331 306.592 140.075 305.923 140.435 304.842L140.734 303.945C141.113 302.806 141.003 301.806 140.405 300.943C139.769 300.099 138.74 299.44 137.317 298.966Z" fill="black"/>
<path d="M117.731 292.672L115.499 291.32L111.785 293.542C111.12 293.946 110.514 294.193 109.968 294.283C109.423 294.373 108.87 294.302 108.31 294.068L108.217 294.222C109.787 295.278 110.797 296.592 111.249 298.163C111.659 299.744 111.304 301.458 110.185 303.306C109.035 305.205 107.556 306.343 105.749 306.721C103.926 307.125 102.001 306.713 99.9734 305.486L91.0439 300.077L103.074 280.216L106.153 282.081L101.514 289.741L106.325 292.655L112.158 289.191C113.133 288.624 114.022 288.286 114.825 288.176C115.587 288.076 116.379 288.275 117.2 288.772L119.317 290.055L117.731 292.672ZM95.7084 299.324L101.097 302.588C102.252 303.288 103.302 303.609 104.249 303.551C105.171 303.478 105.942 302.928 106.564 301.901L107.287 300.708C107.908 299.682 108.038 298.743 107.677 297.893C107.289 297.027 106.518 296.244 105.363 295.545L99.9749 292.281L95.7084 299.324Z" fill="black"/>
<path d="M65.8464 279.608L63.5424 276.842L72.636 269.268L77.4305 265.743L77.3153 265.604L56.1983 268.025L54.0382 265.432L71.8797 250.571L74.1837 253.337L65.0901 260.912L60.2956 264.437L60.4108 264.575L81.5278 262.154L83.6879 264.747L65.8464 279.608Z" fill="black"/>
<path d="M56.3133 221.448C56.8669 222.907 57.106 224.34 57.0308 225.748C56.945 227.129 56.5201 228.461 55.7562 229.746C54.9817 231.002 53.8575 232.183 52.3836 233.288C50.8816 234.403 48.9807 235.397 46.6808 236.27C43.4833 237.484 40.6828 238.306 38.2793 238.737C35.8651 239.14 33.7585 239.169 31.9594 238.825C30.1496 238.453 28.628 237.699 27.3946 236.562C26.1505 235.398 25.0858 233.861 24.2004 231.951L21.2569 225.463L24.5806 224.202L27.6939 231.01C28.2358 232.184 28.854 233.137 29.5486 233.868C30.2326 234.571 31.093 235.063 32.1299 235.343C33.1282 235.606 34.3363 235.661 35.7542 235.508C37.1722 235.355 38.8807 234.995 40.8799 234.429L40.8001 234.218C39.1741 234.162 37.7803 233.744 36.6185 232.966C35.4287 232.198 34.5304 231.015 33.9236 229.416C33.402 228.041 33.1755 226.683 33.2439 225.342C33.3124 224 33.6691 222.742 34.314 221.567C34.9309 220.402 35.8554 219.329 37.0875 218.348C38.2809 217.35 39.7611 216.515 41.5281 215.845C43.183 215.217 44.774 214.885 46.3013 214.851C47.8285 214.817 49.248 215.049 50.5597 215.546C51.8713 216.043 53.0225 216.793 54.0131 217.797C54.9931 218.772 55.7598 219.99 56.3133 221.448ZM53.4104 222.55C52.7185 220.727 51.5933 219.453 50.035 218.729C48.438 217.987 46.5456 218.032 44.3578 218.862L41.7073 219.868C39.3512 220.762 37.8024 222.007 37.0608 223.605C36.3086 225.174 36.2784 226.87 36.9703 228.693C37.7793 230.824 38.8996 232.212 40.3312 232.856C41.7242 233.483 43.22 233.493 44.8187 232.886L49.068 231.273C51.2558 230.443 52.7117 229.249 53.4359 227.69C54.1214 226.114 54.1129 224.401 53.4104 222.55Z" fill="black"/>
<path d="M48.7795 193.995C49.0117 195.659 48.9389 197.199 48.561 198.615C48.1789 200.001 47.5343 201.242 46.627 202.338C45.686 203.408 44.5227 204.298 43.1373 205.006C41.7222 205.718 40.1085 206.201 38.296 206.454C36.4539 206.711 34.7548 206.691 33.1987 206.393C31.6384 206.066 30.2741 205.514 29.1056 204.738C27.9074 203.966 26.9369 202.981 26.194 201.782C25.447 200.554 24.9637 199.152 24.7439 197.577C24.5282 196.032 24.6156 194.596 25.0059 193.27C25.3921 191.913 26.0281 190.719 26.9139 189.686C27.77 188.658 28.8483 187.811 30.1487 187.145C31.4491 186.479 32.9163 186.032 34.5505 185.804L36.2441 185.567L38.6203 202.592L39.6899 202.443C40.7002 202.302 41.6133 202.008 42.4293 201.561C43.2453 201.114 43.9239 200.549 44.4649 199.868C45.0017 199.157 45.3883 198.346 45.6246 197.434C45.827 196.497 45.8536 195.494 45.7043 194.425C45.4886 192.88 44.9455 191.592 44.0748 190.563C43.2041 189.533 42.1034 188.808 40.7725 188.388L42.1882 185.51C43.8286 185.978 45.2659 186.943 46.5001 188.407C47.7004 189.845 48.4602 191.707 48.7795 193.995ZM27.6853 197.167C27.8222 198.147 28.127 199.029 28.5996 199.811C29.0723 200.593 29.6641 201.252 30.3752 201.789C31.0821 202.296 31.8912 202.668 32.8026 202.904C33.6802 203.115 34.624 203.15 35.6343 203.009L35.9462 202.965L34.105 189.773L33.6147 189.842C32.6045 189.983 31.7063 190.275 30.9199 190.718C30.1295 191.131 29.4765 191.661 28.9611 192.309C28.4118 192.931 28.0297 193.665 27.8148 194.513C27.5958 195.331 27.5526 196.216 27.6853 197.167Z" fill="black"/>
<path d="M47.4366 166.761C47.2332 169.152 46.6755 171.107 45.7636 172.625C44.8542 174.114 43.6401 175.29 42.1214 176.154L40.1942 173.326C41.3911 172.705 42.353 171.838 43.0799 170.726C43.7769 169.611 44.1978 168.202 44.3427 166.498C44.5258 164.346 44.3142 162.762 43.7081 161.747C43.1019 160.732 42.2608 160.179 41.1847 160.087L40.5569 160.034C39.3912 159.935 38.4763 160.248 37.8123 160.975C37.121 161.668 36.7144 162.733 36.5923 164.168L36.0622 170.4L33.0581 170.145L33.5501 164.36C33.7992 161.431 32.8327 159.874 30.6506 159.688L30.1126 159.642C29.1261 159.558 28.2984 159.909 27.6293 160.696C26.933 161.449 26.4983 162.842 26.3255 164.875C26.1729 166.669 26.3485 168.144 26.8523 169.301C27.3586 170.428 28.1206 171.381 29.1382 172.16L27.2208 174.526C25.7853 173.35 24.7126 171.979 24.0028 170.413C23.2929 168.847 23.0409 166.854 23.2469 164.433C23.5087 161.354 24.2562 159.114 25.4894 157.713C26.725 156.283 28.3144 155.65 30.2574 155.816C31.6922 155.938 32.7963 156.408 33.5697 157.226C34.3431 158.045 34.837 159.141 35.0514 160.514L35.2308 160.529C35.6021 158.995 36.3004 157.865 37.3256 157.139C38.3209 156.411 39.5509 156.109 41.0156 156.234C43.2575 156.425 44.9624 157.443 46.1302 159.288C47.2706 161.102 47.7061 163.592 47.4366 166.761Z" fill="black"/>
<path d="M52.3489 138.436C51.8604 139.98 51.1455 141.296 50.204 142.383C49.2716 143.441 48.1646 144.255 46.8831 144.825C45.582 145.357 44.1583 145.631 42.612 145.645C41.0371 145.651 39.3629 145.373 37.5894 144.812C35.8446 144.261 34.3294 143.53 33.044 142.62C31.7585 141.71 30.7508 140.668 30.0211 139.493C29.2717 138.281 28.8198 136.973 28.6652 135.572C28.5197 134.141 28.6912 132.654 29.1797 131.109C29.6681 129.564 30.3785 128.263 31.3109 127.205C32.2524 126.118 33.3737 125.309 34.6748 124.776C35.9563 124.206 37.3845 123.918 38.9594 123.913C40.5344 123.907 42.1942 124.181 43.9391 124.732C45.7125 125.293 47.242 126.028 48.5275 126.938C49.7843 127.839 50.7874 128.896 51.5368 130.108C52.2666 131.283 52.7042 132.585 52.8497 134.016C53.0042 135.418 52.8373 136.891 52.3489 138.436ZM49.3883 137.499C49.9944 135.583 49.9107 133.857 49.1374 132.323C48.3641 130.788 46.7761 129.641 44.3733 128.881L41.1983 127.877C38.7956 127.118 36.8367 127.143 35.3217 127.954C33.8067 128.765 32.7462 130.129 32.1402 132.045C31.5341 133.962 31.6178 135.687 32.3911 137.222C33.1644 138.756 34.7524 139.903 37.1552 140.663L40.3302 141.667C42.7329 142.427 44.6918 142.401 46.2068 141.591C47.7218 140.78 48.7823 139.416 49.3883 137.499Z" fill="black"/>
<path d="M38.0819 108.405L47.3164 92.6411L67.352 104.378L65.5323 107.484L48.1372 97.2941L42.5418 106.846L59.937 117.036L58.1174 120.142L38.0819 108.405Z" fill="black"/>
<path d="M85.2975 82.6599C84.3336 83.6889 83.3838 84.1763 82.4482 84.1221C81.5125 84.0678 80.5993 83.7262 79.7085 83.0974L79.5547 83.2616C80.1914 84.5567 80.4047 85.8869 80.1946 87.2521C79.9832 88.5749 79.2315 89.9261 77.9395 91.3055C76.2783 93.079 74.4957 94.0606 72.5917 94.2502C70.6877 94.4399 68.9365 93.7861 67.3381 92.289C65.7617 90.8124 65.0797 89.1049 65.2922 87.1666C65.5252 85.2063 66.8415 82.9452 69.2409 80.3835L72.6248 76.7707L70.9498 75.2018C69.7018 74.0329 68.4431 73.5116 67.1737 73.638C65.8825 73.7439 64.6319 74.4428 63.4219 75.7346C62.3555 76.8732 61.7138 78.0191 61.4968 79.1723C61.2579 80.305 61.3166 81.4492 61.6728 82.6049L58.6979 83.148C58.465 82.5189 58.3149 81.8234 58.2476 81.0615C58.1802 80.2996 58.2496 79.5014 58.4558 78.6669C58.64 77.8119 58.9727 76.952 59.4538 76.0873C59.913 75.2021 60.5425 74.3325 61.3424 73.4786C63.2086 71.4861 65.1888 70.3813 67.2829 70.1642C69.3976 69.9253 71.3526 70.6466 73.148 72.3283L82.4755 81.0648L84.6904 78.7001L86.9894 80.8535L85.2975 82.6599ZM76.1696 88.7846C76.8054 88.1058 77.303 87.421 77.6624 86.73C78.0205 85.9967 78.263 85.299 78.3899 84.6369C78.4949 83.9542 78.4638 83.3291 78.2967 82.7615C78.1282 82.1515 77.825 81.6414 77.3871 81.2313L74.5954 78.6165L71.2115 82.2292C69.7349 83.8057 68.8772 85.1603 68.6383 86.293C68.3995 87.4257 68.696 88.3817 69.5281 89.161L70.2178 89.8071C71.0936 90.6274 72.0485 90.9464 73.0826 90.764C74.1152 90.5392 75.1442 89.8794 76.1696 88.7846Z" fill="black"/>
<path d="M101.553 70.0922C100.162 71.0353 98.7611 71.6414 97.3487 71.9106C95.9443 72.1381 94.575 72.07 93.2408 71.7062C91.9065 71.3424 90.6198 70.6746 89.3806 69.7026C88.1662 68.7138 87.0454 67.4622 86.0181 65.9477C84.9909 64.4332 84.2549 62.9205 83.8102 61.4097C83.3655 59.8988 83.2208 58.4563 83.3763 57.0822C83.5149 55.6832 83.958 54.3858 84.7057 53.1899C85.4533 51.9941 86.5099 50.9331 87.8754 50.0069C89.7375 48.7439 91.5299 48.1263 93.2525 48.1542C94.9751 48.1821 96.5558 48.6687 97.9945 49.6141L96.4699 52.4969C95.4487 51.7396 94.3432 51.3656 93.1534 51.3751C91.9884 51.3678 90.8101 51.7683 89.6183 52.5766C88.7494 53.166 88.0683 53.8454 87.5752 54.6148C87.0901 55.3426 86.7885 56.1272 86.6704 56.9685C86.5523 57.8098 86.6133 58.6747 86.8534 59.5631C87.1183 60.4347 87.537 61.2925 88.1095 62.1367L90.3324 65.414C90.9049 66.2581 91.5471 66.9644 92.2589 67.5329C92.9955 68.0845 93.7765 68.461 94.6019 68.6624C95.4272 68.8639 96.2886 68.8778 97.1858 68.7042C98.0662 68.5058 98.9533 68.1035 99.8471 67.4973C101.138 66.6216 102.004 65.5996 102.444 64.4312C102.884 63.2627 102.998 61.9887 102.788 60.6092L105.896 60.6218C106.2 62.3002 106.03 63.974 105.386 65.6433C104.767 67.2958 103.489 68.7787 101.553 70.0922Z" fill="black"/>
<path d="M108.035 38.2494L111.386 36.9343L114.937 45.9825L125.409 41.8728L121.858 32.8246L125.21 31.5094L133.692 53.1246L130.341 54.4397L126.527 44.7213L116.054 48.831L119.868 58.5495L116.517 59.8646L108.035 38.2494Z" fill="black"/>
<path d="M160.919 47.267C159.524 47.478 158.477 47.2724 157.776 46.6503C157.075 46.0282 156.57 45.1944 156.26 44.149L156.037 44.1827C155.735 45.5938 155.079 46.7702 154.068 47.712C153.083 48.6197 151.656 49.2149 149.787 49.4977C147.384 49.8612 145.377 49.5279 143.765 48.4975C142.152 47.4671 141.182 45.8693 140.855 43.7039C140.531 41.5683 141.054 39.8053 142.421 38.415C143.818 37.0203 146.252 36.0604 149.722 35.5352L154.616 34.7946L154.273 32.5254C154.017 30.8346 153.352 29.6458 152.277 28.9589C151.198 28.2423 149.783 28.0165 148.033 28.2813C146.49 28.5147 145.277 29.0169 144.392 29.788C143.503 30.5293 142.841 31.464 142.404 32.592L139.733 31.1758C139.939 30.5377 140.252 29.8987 140.671 29.2588C141.09 28.6189 141.639 28.0352 142.318 27.5077C142.992 26.9505 143.786 26.4815 144.699 26.1006C145.608 25.69 146.641 25.3971 147.797 25.2221C150.497 24.8136 152.736 25.1727 154.514 26.2992C156.322 27.4213 157.411 29.1985 157.779 31.6308L159.691 44.267L162.894 43.7822L163.366 46.8967L160.919 47.267ZM149.959 46.4223C150.878 46.2832 151.693 46.0537 152.403 45.7338C153.139 45.3798 153.761 44.9822 154.271 44.541C154.776 44.0701 155.139 43.5601 155.359 43.0109C155.605 42.4276 155.683 41.8394 155.593 41.2461L155.02 37.4642L150.126 38.2048C147.991 38.528 146.478 39.0603 145.589 39.8016C144.7 40.543 144.341 41.4773 144.511 42.6044L144.653 43.5388C144.832 44.7253 145.384 45.5672 146.309 46.0644C147.259 46.5275 148.476 46.6468 149.959 46.4223Z" fill="black"/>
<path d="M170.718 43.0488L173.321 43.2399L175.621 39.5735C176.03 38.9117 176.458 38.4167 176.903 38.0884C177.348 37.7601 177.873 37.5731 178.478 37.5272L178.491 37.3477C176.613 37.1196 175.116 36.408 174.001 35.2131C172.917 33.9905 172.455 32.3021 172.613 30.1479C172.775 27.9339 173.576 26.248 175.015 25.0902C176.455 23.9025 178.358 23.3955 180.721 23.569L191.133 24.3335L189.433 47.4912L185.843 47.2276L186.498 38.2966L180.888 37.8847L177.264 43.6197C176.653 44.5675 176.014 45.2726 175.349 45.7351C174.715 46.1699 173.92 46.3521 172.962 46.2818L170.494 46.1006L170.718 43.0488ZM187.319 27.1217L181.036 26.6603C179.689 26.5615 178.607 26.7528 177.79 27.2342C177.002 27.7178 176.565 28.558 176.477 29.7548L176.375 31.1461C176.287 32.3429 176.597 33.238 177.306 33.8314C178.044 34.4271 179.086 34.7744 180.433 34.8732L186.716 35.3346L187.319 27.1217Z" fill="black"/>
<path d="M222.628 56.7928C221.085 56.1268 219.821 55.2705 218.835 54.224C217.889 53.1618 217.211 51.9703 216.801 50.6495C216.391 49.3288 216.263 47.8847 216.417 46.3173C216.598 44.7618 217.052 43.144 217.777 41.464C218.502 39.7839 219.383 38.3505 220.418 37.1636C221.453 35.9768 222.592 35.0798 223.835 34.4726C225.089 33.8378 226.422 33.5145 227.832 33.5026C229.242 33.4907 230.705 33.8118 232.219 34.4658C234.285 35.3578 235.769 36.5377 236.671 38.0055C237.573 39.4733 238.012 41.0679 237.987 42.7893L234.737 43.0523C234.827 41.7841 234.548 40.6508 233.901 39.6524C233.281 38.666 232.311 37.8873 230.989 37.3165C230.025 36.9002 229.086 36.6909 228.172 36.6884C227.297 36.6702 226.474 36.8374 225.7 37.1898C224.927 37.5422 224.231 38.0583 223.61 38.7381C223.018 39.4298 222.519 40.2439 222.115 41.1803L220.545 44.8159C220.141 45.7523 219.89 46.6734 219.793 47.5792C219.724 48.4968 219.826 49.3578 220.099 50.1621C220.373 50.9665 220.824 51.7004 221.452 52.3639C222.093 52.9999 222.908 53.5319 223.9 53.96C225.332 54.5784 226.659 54.7593 227.881 54.5026C229.103 54.246 230.239 53.6582 231.289 52.7393L232.948 55.3673C231.697 56.526 230.194 57.2821 228.44 57.6358C226.713 58.0014 224.776 57.7204 222.628 56.7928Z" fill="black"/>
<path d="M253.764 45.6383L256.667 47.7666L254.432 50.8153L254.578 50.9217C257.49 49.4857 260.265 49.7343 262.902 51.6676C265.201 53.3525 266.362 55.5239 266.385 58.1818C266.432 60.8574 265.321 63.7438 263.05 66.8408C260.78 69.9379 258.362 71.8665 255.796 72.6267C253.255 73.4046 250.835 72.951 248.536 71.2661C245.899 69.3329 244.826 66.7615 245.319 63.5519L245.174 63.4455L237.619 73.7529L234.715 71.6246L253.764 45.6383ZM249.3 67.8646C250.994 69.1061 252.673 69.5557 254.337 69.2134C256.043 68.8647 257.517 67.8435 258.759 66.1498L261.1 62.956C262.341 61.2623 262.863 59.5615 262.664 57.8535C262.507 56.1391 261.582 54.6612 259.888 53.4197C259.235 52.9408 258.556 52.5732 257.851 52.3169C257.146 52.0606 256.452 51.9422 255.768 51.9617C255.102 51.957 254.458 52.0991 253.838 52.3879C253.259 52.6703 252.739 53.126 252.277 53.7551L247.329 60.5057C246.868 61.1348 246.581 61.78 246.468 62.4413C246.397 63.0961 246.456 63.7525 246.643 64.4105C246.848 65.0443 247.179 65.6587 247.635 66.2537C248.092 66.8487 248.647 67.3857 249.3 67.8646Z" fill="black"/>
<path d="M268.15 88.7632C267.042 87.5001 266.257 86.1732 265.796 84.7824C265.354 83.4141 265.211 82.023 265.367 80.6089C265.566 79.1976 266.05 77.8156 266.819 76.4629C267.61 75.0904 268.694 73.8008 270.07 72.5942C271.468 71.3678 272.899 70.4517 274.363 69.8461C275.847 69.263 277.29 68.9749 278.693 68.9818C280.118 68.9689 281.47 69.2594 282.749 69.8534C284.048 70.47 285.222 71.3759 286.27 72.5713C287.299 73.7442 288.014 74.9922 288.417 76.3153C288.839 77.661 288.963 79.0084 288.79 80.3576C288.639 81.687 288.203 82.9871 287.482 84.2579C286.761 85.5287 285.78 86.7081 284.54 87.7961L283.254 88.9236L271.919 75.9998L271.107 76.7119C270.341 77.3845 269.739 78.1317 269.302 78.9534C268.866 79.7752 268.609 80.6193 268.531 81.4858C268.472 82.3748 268.595 83.2651 268.898 84.1565C269.243 85.0508 269.772 85.9039 270.484 86.7158C271.513 87.8887 272.673 88.6662 273.966 89.0486C275.259 89.4309 276.577 89.4322 277.92 89.0525L278.318 92.2354C276.69 92.7453 274.958 92.7275 273.123 92.1821C271.331 91.6395 269.673 90.4999 268.15 88.7632ZM284.038 74.5297C283.385 73.7854 282.646 73.2161 281.822 72.822C280.997 72.4278 280.14 72.2016 279.251 72.1434C278.382 72.1077 277.502 72.2413 276.61 72.5443C275.761 72.8501 274.953 73.3393 274.186 74.0118L273.949 74.2195L282.732 84.2338L283.104 83.9074C283.871 83.2348 284.462 82.4976 284.875 81.6956C285.309 80.9162 285.564 80.1144 285.639 79.2902C285.757 78.4688 285.672 77.6449 285.386 76.8183C285.12 76.0143 284.671 75.2514 284.038 74.5297Z" fill="black"/>
<path d="M281.896 98.823L283.139 101.118C284.942 101.232 286.882 101.034 288.959 100.522C291.077 100.023 293.375 99.1011 295.855 97.7573L302.343 94.2404L309.484 107.415L291.76 117.022L293.583 120.384L285.354 124.845L283.788 121.957L289.327 118.954L280.771 103.169L275.232 106.171L273.667 103.283L281.896 98.823ZM290.044 113.857L305.078 105.708L301.325 98.7845L297.369 100.929C294.916 102.258 292.699 103.204 290.717 103.766C288.762 104.314 286.858 104.579 285.005 104.559L290.044 113.857Z" fill="black"/>
<path d="M298.729 145.881C298.35 144.523 298.426 143.459 298.959 142.687C299.491 141.916 300.257 141.312 301.257 140.878L301.196 140.661C299.759 140.533 298.511 140.024 297.453 139.136C296.432 138.269 295.668 136.925 295.16 135.104C294.506 132.764 294.593 130.731 295.419 129.005C296.246 127.279 297.714 126.122 299.823 125.533C301.904 124.952 303.717 125.256 305.263 126.444C306.818 127.661 308.067 129.959 309.011 133.34L310.341 138.108L312.552 137.491C314.199 137.031 315.298 136.226 315.849 135.075C316.429 133.917 316.481 132.485 316.005 130.78C315.585 129.278 314.939 128.134 314.066 127.35C313.222 126.558 312.214 126.014 311.041 125.719L312.121 122.894C312.78 123.022 313.452 123.255 314.138 123.592C314.825 123.93 315.471 124.404 316.077 125.014C316.712 125.615 317.274 126.346 317.764 127.206C318.282 128.058 318.698 129.047 319.013 130.174C319.747 132.804 319.663 135.07 318.761 136.972C317.868 138.904 316.236 140.2 313.867 140.861L301.557 144.298L302.428 147.418L299.394 148.265L298.729 145.881ZM298.233 134.9C298.483 135.796 298.81 136.577 299.214 137.243C299.655 137.93 300.125 138.499 300.625 138.951C301.154 139.395 301.705 139.693 302.277 139.845C302.885 140.018 303.479 140.024 304.057 139.862L307.741 138.834L306.41 134.066C305.829 131.986 305.117 130.549 304.273 129.757C303.429 128.965 302.458 128.722 301.36 129.029L300.449 129.283C299.294 129.605 298.525 130.256 298.144 131.234C297.8 132.234 297.83 133.456 298.233 134.9Z" fill="black"/>
</svg>
